<svg width="120" height="120" viewBox="0 0 120 120" fill="none" xmlns="http://www.w3.org/2000/svg">
<path opacity="0.3" d="M94.7879 92.7363C92.9648 94.6555 91.2399 95.8932 89.877 96.8711C73.8567 108.366 54.9003 105.015 50.8716 104.197C44.9224 102.989 33.4227 100.653 25.1086 90.8758C12.5302 76.0838 14.4888 52.7794 24.2456 37.3958C26.0302 34.5819 35.4573 18.964 54.6177 16.4593C66.2135 14.9436 79.7303 18.0007 89.5189 26.2016C110.066 43.4159 108.603 78.192 94.7879 92.7363Z" fill="url(#paint0_linear_99_152)"/>
<path d="M20.2092 15.3566C20.0625 14.9038 20.5904 14.5317 20.972 14.8163C24.8464 17.7058 34.3766 26.5942 34.2361 44.0365C34.0597 65.9205 39.4514 73.2855 45.5943 77.4537C45.5943 77.4537 37.6512 76.0681 31.9068 68.6258C17.8031 50.353 22.8176 23.4075 20.2092 15.3566Z" fill="url(#paint1_linear_99_152)"/>
<path d="M23.6397 21.7957C24.3508 24.1488 25.0151 26.5148 25.5919 28.9016C26.1812 31.285 26.698 33.6852 27.1392 36.098C27.5712 38.5123 27.9577 40.9344 28.2408 43.3692C28.5349 45.8027 28.7241 48.2461 28.9054 50.6999C29.1004 53.1514 29.2829 55.622 29.7188 58.0815C30.1516 60.5363 30.8844 62.9788 32.0417 65.2151C32.3308 65.7723 32.6313 66.3265 32.9613 66.8574C33.2816 67.3947 33.6259 67.9179 33.9793 68.4347C34.6915 69.4651 35.4734 70.4501 36.3247 71.3725C38.0323 73.2133 40.019 74.7925 42.1558 76.0773C42.3807 76.2126 42.6726 76.1399 42.8079 75.9149C42.9406 75.6941 42.8729 75.4086 42.6575 75.2703L42.656 75.2694C42.1451 74.9422 41.6386 74.6095 41.1487 74.2554C40.9008 74.0822 40.6612 73.8985 40.4182 73.7193C40.1823 73.5311 39.939 73.352 39.7091 73.1567C38.7768 72.3913 37.8993 71.5615 37.0876 70.6708C35.457 68.8994 34.0829 66.8751 32.9735 64.7408C32.4307 63.667 31.9679 62.5551 31.5924 61.4115C31.2176 60.2674 30.9302 59.0928 30.7096 57.9009C30.268 55.5157 30.0672 53.0718 29.8546 50.6219C29.6388 48.1717 29.4051 45.7111 29.0706 43.2638C28.9066 42.0399 28.7206 40.8191 28.5129 39.6023C28.4126 38.9933 28.3004 38.3863 28.1894 37.7793C28.0726 37.1733 27.9524 36.568 27.8274 35.9638C27.3226 33.548 26.7443 31.1487 26.091 28.7711C25.4264 26.3966 24.6989 24.0405 23.882 21.7165C23.8586 21.65 23.7858 21.6151 23.7194 21.6385C23.6549 21.6612 23.6202 21.7309 23.6397 21.7957Z" fill="white"/>
<path d="M38.5009 92.0606C38.3488 92.9243 37.364 93.352 36.6229 92.8831C32.5333 90.2963 21.632 81.9368 19.6585 65.3486C17.9919 51.3407 15.757 43.9035 14.5085 40.5975C14.2445 39.8984 15.0264 39.2687 15.654 39.6743C22.5779 44.1498 44.013 60.7638 38.5009 92.0606Z" fill="url(#paint2_linear_99_152)"/>
<path d="M37.3323 92.2721C37.3165 92.287 37.2992 92.3006 37.2801 92.3127C37.1205 92.4142 36.9089 92.367 36.8075 92.2074C36.6925 92.0265 25.273 73.8932 22.0759 54.5208C22.0452 54.3344 22.1714 54.1582 22.358 54.1272C22.5446 54.0964 22.7208 54.2227 22.7517 54.4093C25.9255 73.6407 37.2712 91.6604 37.3854 91.8401C37.4748 91.9807 37.4489 92.1616 37.3323 92.2721Z" fill="white"/>
<path d="M36.4548 16.5271C34.2437 16.7194 32.5484 18.5712 32.5421 20.7906C32.5036 34.3635 32.4401 81.1801 33.3248 97.7505C33.4185 99.506 34.8577 100.885 36.6156 100.904C45.3102 100.998 70.3198 101.17 84.5179 100.261C87.4751 100.072 89.7763 97.623 89.7728 94.6597C89.7555 80.4145 89.5279 40.3519 87.5766 22.0398C87.3428 19.8458 85.5791 18.1332 83.3792 17.9618C73.8965 17.2229 48.7149 15.4608 36.4548 16.5271Z" fill="url(#paint3_linear_99_152)"/>
<path d="M36.0324 24.3476C35.8616 35.958 35.3755 74.5811 36.2241 88.8361C36.3482 90.9197 37.9667 92.5647 39.9651 92.6343C48.1933 92.921 69.2931 93.4759 81.3161 92.153C83.4811 91.9148 85.1357 90.0382 85.1934 87.766C85.4941 75.9176 86.3065 39.9447 85.4817 25.8491C85.3501 23.6004 83.6321 21.8062 81.4786 21.6611C72.5694 21.0607 49.6918 19.6763 39.4678 20.5277C37.5485 20.6876 36.0619 22.3376 36.0324 24.3476Z" fill="#AEEFEB"/>
<path d="M55.9125 18.5458C55.9195 18.8666 56.1753 19.1257 56.496 19.1354C58.0792 19.1835 62.5393 19.32 64.5328 19.3919C64.9258 19.4061 65.2262 19.0464 65.1433 18.662C65.1364 18.6498 65.0854 18.1569 64.582 18.1219C63.2335 18.0281 59.1651 17.7753 56.4767 17.9304C55.9246 17.9623 55.8946 18.5901 55.9125 18.5458Z" fill="#1F5AA9"/>
<path d="M49.4588 50.3382C55.4189 50.3382 60.2504 45.5066 60.2504 39.5466C60.2504 33.5866 55.4189 28.755 49.4588 28.755C43.4988 28.755 38.6672 33.5866 38.6672 39.5466C38.6672 45.5066 43.4988 50.3382 49.4588 50.3382Z" fill="white"/>
<mask id="mask0_99_152" style="mask-type:luminance" maskUnits="userSpaceOnUse" x="39" y="29" width="21" height="21">
<path d="M49.4589 49.1573C54.7668 49.1573 59.0697 44.8544 59.0697 39.5466C59.0697 34.2387 54.7668 29.9358 49.4589 29.9358C44.151 29.9358 39.8481 34.2387 39.8481 39.5466C39.8481 44.8544 44.151 49.1573 49.4589 49.1573Z" fill="white"/>
</mask>
<g mask="url(#mask0_99_152)">
<path d="M49.5006 41.3036C51.8267 41.3036 53.7124 39.4179 53.7124 37.0918C53.7124 34.7657 51.8267 32.88 49.5006 32.88C47.1745 32.88 45.2888 34.7657 45.2888 37.0918C45.2888 39.4179 47.1745 41.3036 49.5006 41.3036Z" fill="#3CD690"/>
</g>
<mask id="mask1_99_152" style="mask-type:luminance" maskUnits="userSpaceOnUse" x="39" y="29" width="21" height="21">
<path d="M49.4589 49.1573C54.7668 49.1573 59.0697 44.8544 59.0697 39.5466C59.0697 34.2387 54.7668 29.9358 49.4589 29.9358C44.151 29.9358 39.8481 34.2387 39.8481 39.5466C39.8481 44.8544 44.151 49.1573 49.4589 49.1573Z" fill="white"/>
</mask>
<g mask="url(#mask1_99_152)">
<path d="M43.1031 49.7394H56.5213C57.344 49.7394 57.8369 48.6764 57.3939 47.8652C56.2542 45.7781 53.8695 42.712 49.7397 42.8503C45.7593 42.9837 43.4001 45.7533 42.2141 47.7395C41.7106 48.5828 42.2241 49.7394 43.1031 49.7394Z" fill="#3CD690"/>
</g>
<path d="M65.7812 87.3234H52.3581C51.9194 87.3234 51.5605 86.9645 51.5605 86.5258V82.7079C51.5605 82.2693 51.9194 81.9104 52.3581 81.9104H65.7812C66.2199 81.9104 66.5787 82.2693 66.5787 82.7079V86.5258C66.5787 86.9645 66.2199 87.3234 65.7812 87.3234Z" fill="url(#paint4_linear_99_152)"/>
<g opacity="0.8">
<path d="M75.829 62.3099H45.5468C45.3062 62.3099 45.1094 62.113 45.1094 61.8724V59.7669C45.1094 59.5264 45.3062 59.3295 45.5468 59.3295H75.829C76.0696 59.3295 76.2665 59.5263 76.2665 59.7669V61.8724C76.2664 62.113 76.0696 62.3099 75.829 62.3099Z" fill="white"/>
<path d="M41.1128 62.6175C42.1107 62.6175 42.9196 61.8085 42.9196 60.8106C42.9196 59.8127 42.1107 59.0038 41.1128 59.0038C40.1149 59.0038 39.3059 59.8127 39.3059 60.8106C39.3059 61.8085 40.1149 62.6175 41.1128 62.6175Z" fill="white"/>
<path d="M75.8288 67.9025H45.5466C45.306 67.9025 45.1091 67.7057 45.1091 67.4651V65.3596C45.1091 65.119 45.306 64.9221 45.5466 64.9221H75.8288C76.0694 64.9221 76.2662 65.119 76.2662 65.3596V67.4651C76.2662 67.7057 76.0694 67.9025 75.8288 67.9025Z" fill="white"/>
<path d="M42.8978 66.6934C43.0577 65.7084 42.3888 64.7803 41.4037 64.6204C40.4187 64.4606 39.4906 65.1295 39.3307 66.1145C39.1709 67.0995 39.8398 68.0277 40.8248 68.1875C41.8098 68.3474 42.738 67.6785 42.8978 66.6934Z" fill="white"/>
<path d="M75.829 73.4953H45.5468C45.3062 73.4953 45.1094 73.2984 45.1094 73.0578V70.9523C45.1094 70.7117 45.3062 70.5149 45.5468 70.5149H75.829C76.0696 70.5149 76.2665 70.7117 76.2665 70.9523V73.0578C76.2664 73.2984 76.0696 73.4953 75.829 73.4953Z" fill="white"/>
<path d="M41.1128 73.8029C42.1107 73.8029 42.9196 72.994 42.9196 71.9961C42.9196 70.9982 42.1107 70.1892 41.1128 70.1892C40.1149 70.1892 39.3059 70.9982 39.3059 71.9961C39.3059 72.994 40.1149 73.8029 41.1128 73.8029Z" fill="white"/>
<path d="M75.829 79.088H45.5468C45.3062 79.088 45.1094 78.8912 45.1094 78.6506V76.5451C45.1094 76.3045 45.3062 76.1077 45.5468 76.1077H75.829C76.0696 76.1077 76.2665 76.3045 76.2665 76.5451V78.6506C76.2664 78.8912 76.0696 79.088 75.829 79.088Z" fill="white"/>
<path d="M41.1128 79.3956C42.1107 79.3956 42.9196 78.5866 42.9196 77.5887C42.9196 76.5908 42.1107 75.7819 41.1128 75.7819C40.1149 75.7819 39.3059 76.5908 39.3059 77.5887C39.3059 78.5866 40.1149 79.3956 41.1128 79.3956Z" fill="white"/>
</g>
<path d="M63.5173 56.485H39.7648C39.5514 56.485 39.3767 56.3104 39.3767 56.0969V53.8928C39.3767 53.6793 39.5514 53.5046 39.7648 53.5046H63.5173C63.7308 53.5046 63.9055 53.6793 63.9055 53.8928V56.0969C63.9055 56.3104 63.7308 56.485 63.5173 56.485Z" fill="white"/>
<path d="M90.9415 26.4352C90.8777 25.4492 90.2822 24.5758 89.3897 24.1519L77.8261 18.6599C77.0856 18.3082 76.2261 18.3082 75.4856 18.6599L63.922 24.1519C63.0294 24.5757 62.434 25.4492 62.3702 26.4352C61.2855 43.2015 72.0358 49.3104 75.5599 50.8535C76.2588 51.1596 77.0528 51.1596 77.7517 50.8535C81.2758 49.3104 92.0261 43.2014 90.9415 26.4352Z" fill="#3CD690"/>
<path d="M73.158 21.084C73.0553 21.084 72.9568 21.0262 72.9099 20.9272C72.8449 20.7903 72.9031 20.6267 73.04 20.5617L75.7723 19.264C75.9094 19.1988 76.073 19.2572 76.138 19.3942C76.203 19.531 76.1447 19.6947 76.0078 19.7597L73.2755 21.0573C73.2375 21.0755 73.1974 21.084 73.158 21.084Z" fill="white"/>
<path d="M63.2543 30.1336C63.1071 30.1336 62.9852 30.0167 62.9802 29.8684C62.9435 28.774 62.9628 27.6335 63.0375 26.4784C63.0856 25.7362 63.5343 25.0763 64.2088 24.7561L71.9877 21.0615C72.1246 20.9962 72.2882 21.0547 72.3533 21.1916C72.4183 21.3285 72.3601 21.4922 72.2232 21.5572L64.4443 25.2518C63.9495 25.4867 63.6204 25.9704 63.5852 26.5138C63.5117 27.6511 63.4926 28.7735 63.5287 29.8499C63.5338 30.0014 63.4152 30.1283 63.2637 30.1335C63.2605 30.1336 63.2574 30.1336 63.2543 30.1336Z" fill="white"/>
<path d="M88.1451 27.0896C88.1323 26.8397 87.9835 26.6165 87.7574 26.5092L76.9475 21.3751C76.7629 21.2874 76.5487 21.2874 76.3641 21.3751L65.5542 26.5092C65.3281 26.6165 65.1793 26.8397 65.1665 27.0896C64.8468 33.3439 66.2915 38.5623 69.4633 42.6069C71.8815 45.6906 74.7104 47.3431 76.3681 48.114C76.5507 48.199 76.7609 48.199 76.9435 48.114C78.6012 47.3431 81.4301 45.6906 83.8483 42.6069C87.0201 38.5624 88.4648 33.3439 88.1451 27.0896Z" fill="#AEEFEB"/>
<path d="M69.7912 33.9447C70.685 33.391 71.8593 33.6802 72.3935 34.5859L74.9063 38.8454C75.1579 39.2718 75.7879 39.2292 75.9798 38.7729L81.6331 25.3287C81.9151 24.658 82.9085 24.8586 82.9151 25.586C82.9523 29.6558 82.0593 37.4148 75.7152 44.0446C75.7152 44.0446 72.0994 42.7386 69.0618 36.4735C68.6231 35.5685 68.9363 34.4746 69.7912 33.9447Z" fill="url(#paint5_linear_99_152)"/>
<path d="M92.832 101.182C92.832 101.182 93.039 102.354 93.1405 103.514C93.1801 103.967 92.8306 104.361 92.3759 104.38C90.831 104.444 87.5264 104.569 86.3405 104.516C86.1623 104.509 86.0457 104.326 86.1117 104.16C86.167 104.021 86.2736 103.909 86.4095 103.847L91.868 101.338L92.832 101.182Z" fill="url(#paint6_linear_99_152)"/>
<path d="M93.0016 100.493L92.8353 101.895C92.8353 101.895 91.8791 102.34 91.2261 101.839L91.6221 100.277L93.0016 100.493Z" fill="white"/>
<path d="M92.8764 74.1392C92.9483 74.5053 93.2621 92.407 91.3485 100.429C91.3172 100.56 91.3836 100.695 91.5082 100.746C91.8017 100.866 92.3771 101.04 93.0666 101.063C93.2802 101.07 93.4716 100.931 93.5319 100.726C94.0789 98.8648 96.6999 89.5391 97.0418 80.6306C97.4239 70.6762 97.0418 80.2916 97.0418 80.2916L96.8177 74.1384L92.8764 74.1392Z" fill="url(#paint7_linear_99_152)"/>
<path d="M99.1111 101.793C99.1111 101.793 99.4406 102.385 99.7597 103.957C99.8173 104.241 99.6189 104.513 99.3306 104.541C98.8205 104.591 98.0351 104.656 97.4061 104.651C97.1161 104.649 96.8897 104.397 96.9247 104.109C96.9944 103.535 97.2114 102.594 97.8821 101.86L99.1111 101.793Z" fill="url(#paint8_linear_99_152)"/>
<path d="M99.4005 99.9903L99.0118 102.11C99.0118 102.11 98.6276 102.396 97.8674 102.189L98.0529 99.908L99.4005 99.9903Z" fill="white"/>
<path d="M100.45 74.6885C102.015 84.1336 100.111 98.0328 99.4687 100.753C99.4293 100.92 99.2949 101.047 99.1261 101.075C98.8394 101.123 98.3673 101.162 97.902 101.027C97.7417 100.98 97.629 100.835 97.6225 100.668C97.5363 98.4691 97.6914 84.9671 96.2332 79.6311C96.1593 79.3607 95.9941 79.1248 95.7656 78.9624L92.9353 76.9502L92.7183 73.6978L100.45 74.6885Z" fill="url(#paint9_linear_99_152)"/>
<path d="M90.478 56.7919C95.1681 56.7144 100.343 58.0234 100.343 58.0234C101.741 66.1808 100.588 75.5898 100.588 75.5898C96.9566 76.542 92.8606 75.0076 92.8606 75.0076C92.2571 71.598 89.4414 62.0022 89.4414 62.0022C87.1498 61.7178 85.2621 61.0567 83.7075 60.1826C84.8933 58.808 85.4523 57.059 85.6952 56.0251C87.3534 56.5405 89.0314 56.8158 90.478 56.7919Z" fill="url(#paint10_linear_99_152)"/>
<path d="M76.6243 49.8837C77.085 49.3272 77.6681 49.5904 77.6681 49.5904C78.3583 52.5059 81.9772 54.8697 85.6952 56.0252C85.4524 57.0591 84.8934 58.8081 83.7076 60.1827C77.5373 56.7133 76.6243 49.8837 76.6243 49.8837Z" fill="url(#paint11_linear_99_152)"/>
<path d="M76.7361 50.0252C76.6879 50.1784 77.2461 50.4118 77.5748 49.785C77.5863 49.4846 77.769 48.1976 77.5895 47.9529C76.6335 46.6494 74.7799 45.0155 74.7799 45.0155C74.4666 45.3246 74.7247 45.6283 74.7247 45.6283L75.6239 46.565C75.4358 46.9049 75.2064 47.1917 75.0989 47.6029C75.0175 47.9142 75.0673 48.2469 75.2245 48.5302C75.3824 48.8146 75.5977 49.1843 75.8013 49.4735C76.1866 50.021 76.7361 50.0252 76.7361 50.0252Z" fill="url(#paint12_linear_99_152)"/>
<path d="M76.0172 47.1727L76.8366 47.8674L77.0939 48.559L76.3633 49.3694C76.3633 49.3694 76.1176 47.9972 75.9351 47.7001C75.7525 47.4032 75.8471 47.2596 76.0172 47.1727Z" fill="url(#paint13_linear_99_152)"/>
<path d="M98.5442 62.5648L100.343 58.0234C100.343 58.0234 104.724 61 105.444 64.774C104.617 64.835 103.11 65.0503 101.636 65.7947C101.312 64.0127 98.5442 62.5648 98.5442 62.5648Z" fill="url(#paint14_linear_99_152)"/>
<path d="M94.7158 66.8381C94.7158 66.8381 99.6344 69.6178 101.294 67.2442C101.639 66.7514 101.721 66.2616 101.636 65.7946C103.11 65.0502 104.617 64.8349 105.444 64.7739C105.662 65.9116 105.547 67.1217 104.878 68.3447C101.971 73.6625 94.0649 68.0508 94.0649 68.0508L94.7158 66.8381Z" fill="url(#paint15_linear_99_152)"/>
<path d="M95.3068 70.3548L92.6224 60.9804C92.592 60.874 92.5012 60.7964 92.3912 60.7836C91.9048 60.7269 90.4956 60.5676 88.8684 60.4299C86.9084 60.2642 84.6323 60.1298 83.2722 60.2441C83.0788 60.2603 82.962 60.4648 83.048 60.6388C83.8214 62.2036 87.0029 68.5687 88.5961 70.6539C88.6489 70.723 88.7305 70.7633 88.8175 70.7625L95.0456 70.7046C95.2269 70.7029 95.3567 70.5291 95.3068 70.3548Z" fill="url(#paint16_linear_99_152)"/>
<path d="M88.59 59.6172L86.6438 59.2929C86.5401 59.2756 86.4552 59.3746 86.4882 59.4744L86.6808 60.0582C86.6976 60.109 86.7419 60.1458 86.7949 60.1529L88.6678 60.4031C88.7647 60.416 88.8446 60.328 88.8223 60.2328L88.703 59.7231C88.6902 59.6682 88.6456 59.6264 88.59 59.6172Z" fill="url(#paint17_linear_99_152)"/>
<path d="M90.0472 61.2648L89.8869 60.4297C89.8708 60.3459 89.8017 60.2827 89.7168 60.274L85.7859 59.8752C85.6536 59.8617 85.5476 59.983 85.5787 60.1123L85.8286 61.153C85.8486 61.2362 85.9211 61.2964 86.0066 61.3007L89.8479 61.494C89.973 61.5003 90.0708 61.3878 90.0472 61.2648Z" fill="url(#paint18_linear_99_152)"/>
<path d="M94.6582 68.0899C94.6582 68.0899 95.0321 66.5523 94.8812 66.0068C94.7304 65.4613 94.4382 64.7599 93.464 64.9158C92.4899 65.0716 91.3408 65.482 91.3408 65.482C91.3408 65.482 91.3989 66.1925 92.1392 65.9633L91.6801 66.3185C91.6801 66.3185 91.7457 66.8875 92.3711 66.5835L91.9441 67.0546C91.9441 67.0546 92.2127 67.5219 92.6728 67.2222C93.1328 66.9225 93.3534 68.2751 94.6582 68.0899Z" fill="url(#paint19_linear_99_152)"/>
<path d="M95.2287 52.9843L96.721 57.3C96.7457 57.3714 96.7164 57.4506 96.6502 57.4872C96.2434 57.7121 94.7778 58.3622 93.0116 57.2424C92.8276 57.1258 92.7024 56.9355 92.6744 56.7195L92.1912 52.9843L95.2287 52.9843Z" fill="url(#paint20_linear_99_152)"/>
<path d="M91.9817 48.9878C91.9817 48.9878 90.343 52.0725 90.553 53.3186C90.7631 54.5646 92.794 54.4752 94.5675 53.4631L95.8068 50.1323L91.9817 48.9878Z" fill="url(#paint21_linear_99_152)"/>
<path d="M94.489 51.8274C94.4169 51.7955 94.3903 51.7073 94.4335 51.6413C94.5648 51.4407 94.8109 51.0316 94.8894 50.6733C94.8894 50.6733 95.184 50.4847 94.1396 50.2347C93.0952 49.9847 91.5378 49.5967 91.2104 48.7077C90.8912 47.841 91.7299 45.6613 93.0677 47.398C93.1187 47.4641 93.2184 47.4656 93.2692 47.3994C93.4885 47.114 94.0651 46.5215 94.8657 46.8807C95.6149 47.2168 95.6993 47.7658 95.689 48.0425C95.6859 48.1239 95.7587 48.1872 95.8387 48.1719C96.2175 48.0997 97.1265 48.0376 97.5507 48.9701C97.9002 49.7381 97.6731 50.1729 97.4662 50.3855C97.3992 50.4544 97.4285 50.5678 97.5204 50.596C97.7694 50.6722 98.0908 50.8832 98.0586 51.4665C98.0142 52.2728 97.1127 52.2017 96.856 52.165C96.814 52.1589 96.7716 52.1734 96.7431 52.2049C96.5231 52.4484 95.5315 53.4825 94.4584 53.6071C94.3655 53.6179 94.2935 53.5261 94.3239 53.4377L94.7883 52.0877C94.8099 52.025 94.7799 51.9562 94.7193 51.9294L94.489 51.8274Z" fill="url(#paint22_linear_99_152)"/>
<path d="M94.3025 52.019C94.3025 52.019 95.4692 51.2185 95.5545 51.8926C95.6397 52.5667 94.5038 52.8691 93.9412 52.6177L94.3025 52.019Z" fill="url(#paint23_linear_99_152)"/>
<defs>
<linearGradient id="paint0_linear_99_152" x1="116.623" y1="131.609" x2="37.2536" y2="33.0377" gradientUnits="userSpaceOnUse">
<stop stop-color="#B37CFF"/>
<stop offset="1" stop-color="#F895E7"/>
</linearGradient>
<linearGradient id="paint1_linear_99_152" x1="12.9668" y1="40.3197" x2="52.9524" y2="51.7793" gradientUnits="userSpaceOnUse">
<stop stop-color="#A737D5"/>
<stop offset="1" stop-color="#EF497A"/>
</linearGradient>
<linearGradient id="paint2_linear_99_152" x1="23.9583" y1="91.7259" x2="29.127" y2="40.9572" gradientUnits="userSpaceOnUse">
<stop stop-color="#CE1567"/>
<stop offset="1" stop-color="#7A1DBC"/>
</linearGradient>
<linearGradient id="paint3_linear_99_152" x1="32.3378" y1="59.0438" x2="89.3545" y2="57.7949" gradientUnits="userSpaceOnUse">
<stop stop-color="#2B3582"/>
<stop offset="1" stop-color="#150E42"/>
</linearGradient>
<linearGradient id="paint4_linear_99_152" x1="67.4476" y1="49.9773" x2="54.8553" y2="102.041" gradientUnits="userSpaceOnUse">
<stop stop-color="#FDF53F"/>
<stop offset="1" stop-color="#D93C65"/>
</linearGradient>
<linearGradient id="paint5_linear_99_152" x1="56.0299" y1="53.4124" x2="92.1822" y2="22.2095" gradientUnits="userSpaceOnUse">
<stop stop-color="#A737D5"/>
<stop offset="1" stop-color="#EF497A"/>
</linearGradient>
<linearGradient id="paint6_linear_99_152" x1="86.5133" y1="99.5622" x2="106.503" y2="121.305" gradientUnits="userSpaceOnUse">
<stop stop-color="#CB236D"/>
<stop offset="1" stop-color="#4C246D"/>
</linearGradient>
<linearGradient id="paint7_linear_99_152" x1="97.2117" y1="87.6007" x2="91.3409" y2="87.6007" gradientUnits="userSpaceOnUse">
<stop stop-color="#2B3582"/>
<stop offset="1" stop-color="#150E42"/>
</linearGradient>
<linearGradient id="paint8_linear_99_152" x1="90.9975" y1="95.4396" x2="110.987" y2="117.182" gradientUnits="userSpaceOnUse">
<stop stop-color="#CB236D"/>
<stop offset="1" stop-color="#4C246D"/>
</linearGradient>
<linearGradient id="paint9_linear_99_152" x1="101.053" y1="87.4086" x2="92.7182" y2="87.4086" gradientUnits="userSpaceOnUse">
<stop stop-color="#2B3582"/>
<stop offset="1" stop-color="#150E42"/>
</linearGradient>
<linearGradient id="paint10_linear_99_152" x1="95.3796" y1="59.1932" x2="85.8291" y2="84.8805" gradientUnits="userSpaceOnUse">
<stop stop-color="#CE1567"/>
<stop offset="1" stop-color="#7A1DBC"/>
</linearGradient>
<linearGradient id="paint11_linear_99_152" x1="85.6952" y1="54.8554" x2="76.6243" y2="54.8554" gradientUnits="userSpaceOnUse">
<stop stop-color="#F9B776"/>
<stop offset="1" stop-color="#F47960"/>
</linearGradient>
<linearGradient id="paint12_linear_99_152" x1="78.645" y1="53.3349" x2="84.7318" y2="67.1838" gradientUnits="userSpaceOnUse">
<stop stop-color="#F9B776"/>
<stop offset="1" stop-color="#F47960"/>
</linearGradient>
<linearGradient id="paint13_linear_99_152" x1="76.6678" y1="48.7227" x2="74.128" y2="44.8178" gradientUnits="userSpaceOnUse">
<stop stop-color="#F9B776"/>
<stop offset="1" stop-color="#F47960"/>
</linearGradient>
<linearGradient id="paint14_linear_99_152" x1="102.653" y1="61.8975" x2="93.1027" y2="87.5848" gradientUnits="userSpaceOnUse">
<stop stop-color="#CE1567"/>
<stop offset="1" stop-color="#7A1DBC"/>
</linearGradient>
<linearGradient id="paint15_linear_99_152" x1="105.544" y1="67.7041" x2="94.0649" y2="67.7041" gradientUnits="userSpaceOnUse">
<stop stop-color="#F9B776"/>
<stop offset="1" stop-color="#F47960"/>
</linearGradient>
<linearGradient id="paint16_linear_99_152" x1="90.592" y1="59.5428" x2="84.2799" y2="85.8431" gradientUnits="userSpaceOnUse">
<stop stop-color="#9CFFFB"/>
<stop offset="1" stop-color="#9BFFFA"/>
</linearGradient>
<linearGradient id="paint17_linear_99_152" x1="86.64" y1="55.3971" x2="87.9843" y2="61.3003" gradientUnits="userSpaceOnUse">
<stop stop-color="#53D8FF"/>
<stop offset="1" stop-color="#3840F7"/>
</linearGradient>
<linearGradient id="paint18_linear_99_152" x1="87.3435" y1="57.8734" x2="87.9865" y2="61.7309" gradientUnits="userSpaceOnUse">
<stop stop-color="#53D8FF"/>
<stop offset="1" stop-color="#3840F7"/>
</linearGradient>
<linearGradient id="paint19_linear_99_152" x1="94.9171" y1="66.5005" x2="91.3408" y2="66.5005" gradientUnits="userSpaceOnUse">
<stop stop-color="#F9B776"/>
<stop offset="1" stop-color="#F47960"/>
</linearGradient>
<linearGradient id="paint20_linear_99_152" x1="96.7297" y1="55.432" x2="92.1912" y2="55.432" gradientUnits="userSpaceOnUse">
<stop stop-color="#F9B776"/>
<stop offset="1" stop-color="#F47960"/>
</linearGradient>
<linearGradient id="paint21_linear_99_152" x1="91.1118" y1="52.5446" x2="96.1019" y2="49.501" gradientUnits="userSpaceOnUse">
<stop stop-color="#F9B776"/>
<stop offset="1" stop-color="#F47960"/>
</linearGradient>
<linearGradient id="paint22_linear_99_152" x1="98.7433" y1="46.2927" x2="92.2966" y2="51.3845" gradientUnits="userSpaceOnUse">
<stop stop-color="#2B3582"/>
<stop offset="1" stop-color="#150E42"/>
</linearGradient>
<linearGradient id="paint23_linear_99_152" x1="92.4225" y1="53.6796" x2="96.9123" y2="50.9412" gradientUnits="userSpaceOnUse">
<stop stop-color="#F9B776"/>
<stop offset="1" stop-color="#F47960"/>
</linearGradient>
</defs>
</svg>
