<svg width="120" height="120" viewBox="0 0 120 120" fill="none" xmlns="http://www.w3.org/2000/svg">
<path opacity="0.3" d="M101.443 77.0631C91.8309 98.2875 67.4512 106.979 48.5336 105.012C43.3683 104.475 32.9757 103.395 25.0082 95.5374C9.7074 80.4469 12.7595 49.6394 28.085 31.7856C30.0586 29.4864 43.7087 14.091 64.4625 14.7367C79.6573 15.2094 90.1444 24.0185 91.4191 25.1153C93.0293 26.5009 96.576 29.7874 99.7262 34.9494C107.128 47.0783 107.45 63.8 101.443 77.0631Z" fill="url(#paint0_linear_99_232)"/>
<path d="M16.3548 23.6312C16.262 23.2364 16.8173 22.974 17.1574 23.2498C20.6102 26.0497 28.9063 34.434 26.8387 49.0864C24.2447 67.4699 28.6795 74.1779 34.1998 78.2696C34.1998 78.2696 26.6186 76.3454 21.8489 69.5387C10.1382 52.8267 18.0035 30.6498 16.3548 23.6312Z" fill="url(#paint1_linear_99_232)"/>
<path d="M18.9825 29.3731C19.4144 31.4196 19.7994 33.4724 20.0969 35.5345C20.4069 37.5948 20.6444 39.6623 20.807 41.7332C20.9603 43.8045 21.0686 45.8779 21.0748 47.9522C21.0917 50.0264 21.0055 52.099 20.9105 54.1795C20.829 56.2594 20.7332 58.3542 20.8855 60.4639C21.0352 62.5692 21.4784 64.693 22.3578 66.6839C22.5776 67.18 22.8088 67.6747 23.0714 68.1527C23.3239 68.635 23.6012 69.1079 23.8881 69.5762C24.4676 70.5107 25.1199 71.4136 25.8467 72.2705C27.3057 73.9815 29.0654 75.4992 31.0039 76.7838C31.2079 76.919 31.5002 76.8857 31.6568 76.7095C31.8106 76.5366 31.7762 76.29 31.5818 76.1532L31.5804 76.1522C31.1191 75.8283 30.6627 75.5002 30.2248 75.1556C30.0027 74.9863 29.7897 74.8089 29.5729 74.635C29.364 74.4542 29.1469 74.2803 28.9447 74.0942C28.1216 73.3616 27.359 72.5799 26.6672 71.7534C25.2756 70.1082 24.1615 68.2748 23.3175 66.3742C22.9078 65.4194 22.5803 64.4403 22.3412 63.4428C22.1029 62.445 21.9531 61.4299 21.8702 60.4067C21.7042 58.359 21.7792 56.2849 21.8433 54.2047C21.9044 52.1239 21.9492 50.0326 21.8943 47.943C21.8701 46.8983 21.8242 45.854 21.7567 44.811C21.7264 44.2893 21.6844 43.7683 21.6435 43.2473C21.5967 42.7266 21.5467 42.2061 21.4918 41.6862C21.2677 39.6067 20.9702 37.5341 20.5973 35.4725C20.2129 33.4125 19.7653 31.3619 19.2271 29.3297C19.2117 29.2716 19.1447 29.2353 19.0775 29.2486C19.0122 29.2615 18.9707 29.3167 18.9825 29.3731Z" fill="white"/>
<path d="M25.2991 67.6338C24.8757 68.083 24.1312 67.9538 23.8765 67.3916C22.4713 64.2892 19.2913 55.1583 24.5431 44.6391C28.9781 35.7561 30.5387 30.518 31.0825 28.0909C31.1974 27.5777 31.9008 27.5096 32.113 27.9908C34.4553 33.2996 40.6397 51.3575 25.2991 67.6338Z" fill="url(#paint2_linear_99_232)"/>
<path d="M24.5301 67.3064C24.515 67.309 24.4995 67.3103 24.4836 67.3101C24.3506 67.308 24.2444 67.1985 24.2464 67.0655C24.2487 66.9146 24.5423 51.835 30.1509 39.2052C30.2049 39.0837 30.3472 39.0288 30.469 39.0827C30.5906 39.1368 30.6454 39.2792 30.5914 39.4009C25.0237 51.9387 24.7306 66.923 24.7283 67.0728C24.7265 67.19 24.6414 67.2864 24.5301 67.3064Z" fill="white"/>
<path d="M20.4101 100.033C20.4101 100.819 21.0534 101.461 21.8397 101.461H99.1491C99.9354 101.461 100.579 100.819 100.579 100.033L101.222 55.6055C101.222 54.82 100.297 53.2864 98.6004 53.4016L23.0451 51.4466C22.0585 51.4211 21.1046 51.8009 20.406 52.4972C19.7074 53.1936 19.3251 54.1457 19.3484 55.1314L20.4101 100.033Z" fill="url(#paint3_linear_99_232)"/>
<path d="M21.8216 98.6629C21.8216 99.4067 22.4303 100.015 23.1742 100.015H97.2848C98.0287 100.015 98.6374 99.4067 98.6374 98.6629L99.2444 58.3311C99.1729 55.9041 97.045 55.0317 95.7552 55.0833L23.3424 53.1406C22.6493 53.122 21.9791 53.389 21.4882 53.8787C20.9973 54.3683 20.7273 55.0384 20.7447 55.7316L21.8216 98.6629Z" fill="white"/>
<path d="M97.8364 79.5024C97.8354 79.5024 97.8345 79.5024 97.8335 79.5024C97.724 79.5008 97.6365 79.4108 97.6382 79.3012L97.6862 76.0303C97.6878 75.9219 97.7762 75.8351 97.8842 75.8351C97.8852 75.8351 97.8862 75.8351 97.8872 75.8351C97.9967 75.8367 98.0842 75.9267 98.0825 76.0363L98.0345 79.3071C98.0329 79.4155 97.9445 79.5024 97.8364 79.5024Z" fill="white"/>
<path d="M97.9542 71.4871C97.9532 71.4871 97.9522 71.4871 97.9512 71.4871C97.8417 71.4855 97.7542 71.3953 97.7559 71.2859L97.9398 58.7585C97.9364 58.0144 97.7105 57.4203 97.2685 56.9967C96.4432 56.2061 95.1331 56.2464 95.0779 56.249L71.9331 55.6284C71.8237 55.6256 71.7373 55.5344 71.7403 55.425C71.7432 55.3156 71.8273 55.2224 71.9438 55.2323L95.0748 55.8529C95.2187 55.8444 96.6137 55.8203 97.5426 56.7104C98.0653 57.2112 98.3322 57.901 98.3362 58.7605L98.1522 71.2918C98.1507 71.4003 98.0622 71.4871 97.9542 71.4871Z" fill="white"/>
<path d="M14.5408 105.149H105.32C105.42 105.149 105.503 105.067 105.503 104.966V101.429C105.503 101.328 105.42 101.246 105.32 101.246H14.5408C14.4402 101.246 14.3579 101.328 14.3579 101.429V104.966C14.3579 105.067 14.4402 105.149 14.5408 105.149Z" fill="url(#paint4_linear_99_232)"/>
<path d="M79.5722 18.3169L75.0036 27.8515C74.852 28.1679 75.1055 28.5281 75.4544 28.4922L85.0494 27.5053C85.3333 27.4761 85.4892 27.1603 85.3396 26.9172L80.0333 18.2928C79.9242 18.1155 79.6622 18.1292 79.5722 18.3169Z" fill="#3CD690"/>
<path d="M80.0603 79.0895L75.4171 69.591C75.2631 69.2758 74.8233 69.2511 74.6349 69.5471L69.456 77.6844C69.3027 77.9252 69.4538 78.2433 69.7372 78.2769L79.7932 79.4661C79.9999 79.4905 80.1517 79.2764 80.0603 79.0895Z" fill="#3CD690"/>
<path d="M32.3247 50.563L42.879 51.1861C43.2292 51.2067 43.4668 50.8358 43.3016 50.5264L38.759 42.0174C38.6245 41.7656 38.2732 41.7408 38.1048 41.9712L32.1279 50.1453C32.0051 50.3133 32.1169 50.5507 32.3247 50.563Z" fill="#3CD690"/>
<path d="M60.4924 73.7264C60.4974 73.4644 60.3193 73.2341 60.0639 73.1755C48.9897 70.6353 40.729 60.7209 40.729 48.876C40.729 48.8183 40.7308 48.7612 40.7312 48.7036C38.584 48.7256 36.4369 48.7403 34.2898 48.7275C34.2887 48.8339 34.2861 48.94 34.2861 49.0466C34.2861 64.1468 44.9714 76.749 59.1928 79.7104C59.85 79.8472 60.4657 79.3395 60.462 78.6681C60.4531 77.0225 60.4604 75.3754 60.4924 73.7264Z" fill="#3CD690"/>
<path d="M96.3379 42.9394C96.236 42.4248 95.7638 42.0688 95.2416 42.1176C93.454 42.2847 92.4261 42.3903 90.18 42.6308C89.9864 42.6515 89.8564 42.8382 89.902 43.0275C90.3529 44.9034 90.5921 46.8618 90.5921 48.8761C90.5921 59.54 83.8961 68.6385 74.48 72.2008C75.5863 74.0909 76.6172 76.0112 77.5325 78.0206C88.919 73.3303 96.9355 62.1256 96.9355 49.0468C96.9354 46.9565 96.729 44.9147 96.3379 42.9394Z" fill="#3CD690"/>
<path d="M65.6607 23.9445C69.7222 23.9445 73.5565 24.9164 76.9447 26.6392C77.4869 25.696 78.0302 24.7598 78.7195 23.9114C79.3763 23.1452 80.0053 22.3512 80.6277 21.5506C76.1689 19.1103 71.0522 17.722 65.6109 17.722C54.8839 17.722 45.4177 23.1151 39.772 31.3366C39.5381 31.6771 39.6365 32.1445 39.9867 32.3637L39.9932 32.3678C41.4494 33.2945 42.7697 34.1321 44.1097 35.0656C44.4057 35.2718 44.812 35.1949 45.0145 34.8964C49.4983 28.2872 57.0723 23.9445 65.6607 23.9445Z" fill="#3CD690"/>
<path d="M45.7344 50.7731C45.7344 50.7731 50.8856 64.3586 52.5131 67.1847C54.4023 70.4653 59.9196 68.3748 59.645 65.6293C59.3705 62.8838 52.9243 51.5356 52.9243 51.5356L45.7344 50.7731Z" fill="url(#paint5_linear_99_232)"/>
<path d="M52.6945 40.8768L84.7113 29.7761L84.3751 59.8165L51.8196 52.5525L52.6945 40.8768Z" fill="#AEEFEB"/>
<path d="M84.7415 60.3213C86.4787 60.3213 87.887 53.4095 87.887 44.8834C87.887 36.3572 86.4787 29.4454 84.7415 29.4454C83.0042 29.4454 81.5959 36.3572 81.5959 44.8834C81.5959 53.4095 83.0042 60.3213 84.7415 60.3213Z" fill="#3CD690"/>
<path d="M84.9801 59.2656C84.6958 58.9765 84.0764 57.861 83.5455 54.9767C83.0323 52.1893 82.7498 48.5738 82.7498 44.7963C82.7498 41.0188 83.0323 37.4033 83.5455 34.6159C84.0765 31.7315 84.6958 30.6161 84.9801 30.3269C85.2644 30.6161 85.8838 31.7315 86.4147 34.6159C86.9279 37.4033 87.2105 41.0188 87.2105 44.7963C87.2105 48.5738 86.9279 52.1893 86.4147 54.9767C85.8838 57.861 85.2644 58.9765 84.9801 59.2656Z" fill="url(#paint6_linear_99_232)"/>
<mask id="mask0_99_232" style="mask-type:luminance" maskUnits="userSpaceOnUse" x="82" y="30" width="9" height="30">
<path d="M84.9801 59.2656C84.6958 58.9765 84.0764 57.861 83.5455 54.9767C83.0323 52.1893 82.7498 48.5738 82.7498 44.7963C82.7498 41.0188 83.0323 37.4033 83.5455 34.6159C84.0765 31.7315 84.6958 30.6161 84.9801 30.3269C85.2644 30.6161 85.8838 31.7315 86.4147 34.6159C86.9279 37.4033 90.9773 41.0188 90.9773 44.7963C90.9773 48.5738 86.9279 52.1893 86.4147 54.9767C85.8838 57.861 85.2644 58.9765 84.9801 59.2656Z" fill="white"/>
</mask>
<g mask="url(#mask0_99_232)">
<path d="M89.0118 44.6813C89.0118 47.3044 87.5987 49.4308 84.802 49.4308C82.0053 49.4308 79.738 47.3044 79.738 44.6813C79.738 42.0582 82.0053 39.9318 84.802 39.9318C87.5987 39.9318 89.0118 42.0582 89.0118 44.6813Z" fill="url(#paint7_linear_99_232)"/>
</g>
<path d="M47.5307 40.231C49.0368 40.0561 51.1966 39.9932 53.5317 40.528C52.7624 44.5468 52.8785 48.7357 53.7683 53.0731H47.1819C46.1318 53.0731 45.2364 52.3104 45.0726 51.2731C44.7444 49.194 44.3431 45.6996 44.771 42.8929C44.9857 41.4845 46.1154 40.3954 47.5307 40.231Z" fill="url(#paint8_linear_99_232)"/>
<path d="M51.4834 43.309H46.3518C46.1776 43.309 46.0239 43.2177 45.9407 43.0647C45.8575 42.9117 45.8643 42.733 45.9589 42.5868C45.9985 42.5256 46.0802 42.5084 46.1414 42.5477C46.2025 42.5873 46.2201 42.669 46.1805 42.7303C46.1392 42.794 46.1363 42.8718 46.1725 42.9386C46.2088 43.0052 46.2758 43.0451 46.3518 43.0451H51.4834C51.5959 43.0451 51.6874 42.9536 51.6874 42.8411V42.4759C51.6874 42.3634 51.5959 42.2719 51.4834 42.2719H46.3137C46.2408 42.2719 46.1818 42.2128 46.1818 42.1399C46.1818 42.0671 46.2408 42.0079 46.3137 42.0079H51.4834C51.7415 42.0079 51.9514 42.2179 51.9514 42.4759V42.841C51.9514 43.0991 51.7415 43.309 51.4834 43.309Z" fill="white"/>
<path d="M51.0259 45.5817H45.8943C45.7201 45.5817 45.5665 45.4904 45.4832 45.3374C45.4 45.1844 45.4068 45.0057 45.5014 44.8595C45.541 44.7984 45.6228 44.7812 45.6839 44.8204C45.745 44.86 45.7626 44.9417 45.723 45.003C45.6817 45.0667 45.6788 45.1445 45.715 45.2113C45.7513 45.278 45.8184 45.3178 45.8943 45.3178H51.0259C51.1384 45.3178 51.2299 45.2263 51.2299 45.1138V44.7487C51.2299 44.6361 51.1384 44.5446 51.0259 44.5446H45.8562C45.7833 44.5446 45.7243 44.4855 45.7243 44.4126C45.7243 44.3397 45.7833 44.2806 45.8562 44.2806H51.0259C51.284 44.2806 51.4938 44.4906 51.4938 44.7487V45.1138C51.4939 45.3718 51.284 45.5817 51.0259 45.5817Z" fill="white"/>
<path d="M57.3468 40.0637C57.2909 40.0637 57.239 40.0279 57.2211 39.9718C57.199 39.9023 57.2374 39.8282 57.3068 39.806L81.5559 32.0895C81.6254 32.0674 81.6996 32.1058 81.7217 32.1752C81.7438 32.2447 81.7054 32.3189 81.636 32.341L57.3869 40.0575C57.3736 40.0617 57.3601 40.0637 57.3468 40.0637Z" fill="white"/>
<path d="M54.0676 41.4042C54.0156 41.4042 53.9663 41.3732 53.9454 41.3221C53.9178 41.2547 53.9502 41.1776 54.0177 41.15L55.2657 40.6399C55.3331 40.6122 55.4101 40.6447 55.4377 40.7121C55.4653 40.7796 55.433 40.8566 55.3655 40.8842L54.1175 41.3943C54.1011 41.4011 54.0842 41.4042 54.0676 41.4042Z" fill="white"/>
<path d="M51.4834 48.2433H46.3518C46.1777 48.2433 46.024 48.152 45.9408 47.999C45.8575 47.846 45.8643 47.6673 45.9589 47.5211C45.9985 47.4598 46.0802 47.4426 46.1414 47.4819C46.2026 47.5215 46.2201 47.6032 46.1805 47.6644C46.1392 47.7282 46.1362 47.8061 46.1726 47.8729C46.2089 47.9396 46.2759 47.9794 46.3518 47.9794H51.4834C51.5959 47.9794 51.6875 47.8878 51.6875 47.7753V47.4102C51.6875 47.2977 51.5959 47.2062 51.4834 47.2062H46.3138C46.2409 47.2062 46.1818 47.1471 46.1818 47.0742C46.1818 47.0014 46.2409 46.9423 46.3138 46.9423H51.4834C51.7415 46.9423 51.9514 47.1522 51.9514 47.4102V47.7753C51.9514 48.0334 51.7415 48.2433 51.4834 48.2433Z" fill="white"/>
<path d="M51.9639 51.1977H46.8323C46.6581 51.1977 46.5045 51.1064 46.4212 50.9534C46.338 50.8004 46.3448 50.6217 46.4394 50.4755C46.4791 50.4142 46.5608 50.397 46.6219 50.4363C46.683 50.4759 46.7006 50.5576 46.6609 50.6188C46.6197 50.6826 46.6167 50.7605 46.653 50.8273C46.6893 50.8939 46.7563 50.9338 46.8323 50.9338H51.9639C52.0764 50.9338 52.1679 50.8423 52.1679 50.7298V50.3646C52.1679 50.252 52.0764 50.1605 51.9639 50.1605H46.7942C46.7213 50.1605 46.6623 50.1014 46.6623 50.0286C46.6623 49.9557 46.7213 49.8966 46.7942 49.8966H51.9639C52.2219 49.8966 52.4318 50.1066 52.4318 50.3645V50.7298C52.4318 50.9877 52.2219 51.1977 51.9639 51.1977Z" fill="white"/>
<path d="M56.5473 67.2604C56.3108 67.2604 56.0718 67.2349 55.8334 67.1829C54.7901 66.9556 53.9407 66.2677 53.5031 65.2955L49.4033 56.1872C49.3733 56.1208 49.403 56.0428 49.4694 56.0128C49.5359 55.9828 49.614 56.0126 49.6439 56.079L53.7437 65.1872C54.1467 66.0823 54.9288 66.7158 55.8896 66.9251C56.8338 67.131 57.7893 66.8866 58.5111 66.2548C58.5498 66.221 58.5887 66.1862 58.6278 66.1505C58.6816 66.1014 58.765 66.1051 58.8142 66.1589C58.8633 66.2127 58.8596 66.2962 58.8058 66.3454C58.7653 66.3824 58.725 66.4184 58.6849 66.4534C58.0819 66.981 57.329 67.2604 56.5473 67.2604Z" fill="white"/>
<path d="M48.9173 54.9183C48.867 54.9183 48.8189 54.8893 48.7969 54.8405L48.3396 53.8244C48.3096 53.758 48.3393 53.6799 48.4057 53.6499C48.4721 53.62 48.5503 53.6498 48.5802 53.7161L49.0375 54.7321C49.0675 54.7986 49.0378 54.8767 48.9714 54.9067C48.9538 54.9146 48.9354 54.9183 48.9173 54.9183Z" fill="white"/>
<path d="M88.2622 44.5446C88.1936 44.5446 88.1357 44.4915 88.1307 44.422C88.0395 43.1367 87.5941 42.1786 86.8067 41.574C85.4451 40.5286 83.5021 40.8879 83.4826 40.8917C83.4107 40.9054 83.3419 40.8587 83.3281 40.7872C83.3143 40.7156 83.3611 40.6464 83.4327 40.6327C83.5169 40.6164 85.5126 40.2479 86.9674 41.3647C87.8172 42.0171 88.2972 43.0395 88.3939 44.4033C88.3991 44.476 88.3444 44.5391 88.2717 44.5443C88.2685 44.5445 88.2653 44.5446 88.2622 44.5446Z" fill="white"/>
<path d="M34.971 100.394C34.06 100.473 32.4789 100.601 31.2325 100.656C30.4832 100.689 30.0519 100.615 29.8035 100.516C29.8039 100.544 29.8047 100.57 29.8058 100.595C29.8116 100.726 29.9182 100.831 30.0507 100.839C32.4059 100.97 34.279 100.884 34.9458 100.843C35.0837 100.835 35.1658 100.685 35.0953 100.568C35.0601 100.509 35.0174 100.451 34.971 100.394Z" fill="url(#paint9_linear_99_232)"/>
<path d="M31.2323 100.656C32.4788 100.601 34.0598 100.473 34.9708 100.394C34.0751 99.2954 31.2323 98.5548 31.2323 98.5548H30.4294C29.8772 99.3508 29.7972 100.109 29.8033 100.516C30.0517 100.615 30.483 100.689 31.2323 100.656Z" fill="url(#paint10_linear_99_232)"/>
<path d="M30.2942 97.244L30.3693 98.7309C30.3774 98.8919 30.498 99.0272 30.6592 99.0502C30.8197 99.0732 31.0345 99.0761 31.2624 99.0003C31.4025 98.9536 31.5066 98.8355 31.5325 98.6914L31.7921 97.244H30.2942Z" fill="url(#paint11_linear_99_232)"/>
<path d="M20.9756 102.109C20.5805 102.038 20.4018 101.773 20.3268 101.489C20.3264 101.492 20.3258 101.494 20.3254 101.497C20.2672 101.796 20.402 102.106 20.6714 102.254C20.9969 102.432 21.3529 102.462 21.6293 102.447C21.9258 102.432 22.198 102.273 22.3476 102.019L22.3498 102.015C22.0522 102.206 21.6344 102.228 20.9756 102.109Z" fill="url(#paint12_linear_99_232)"/>
<path d="M22.8383 97.7021H22.1761C21.1676 97.6755 20.5342 100.425 20.3269 101.489C20.4018 101.773 20.5806 102.038 20.9756 102.109C21.6345 102.228 22.0523 102.206 22.3499 102.015C22.8948 101.089 23.1649 99.7315 23.2948 98.9394C23.4425 98.0386 22.8383 97.7021 22.8383 97.7021Z" fill="url(#paint13_linear_99_232)"/>
<path d="M22.2612 96.322L21.8935 97.7844C21.8484 97.9637 21.9343 98.1491 22.1 98.2342C22.3057 98.3397 22.5953 98.4507 22.8614 98.4186C22.9866 98.4035 23.0906 98.3153 23.1319 98.1974L23.6717 96.6589L22.2612 96.322Z" fill="url(#paint14_linear_99_232)"/>
<path d="M35.1951 77.0619C35.1951 77.0619 31.9094 97.6005 31.9636 97.7133C31.9636 97.7133 31.0561 98.1258 30.0667 97.7659C30.0667 97.7659 30.3639 86.7866 31.0601 82.5768C31.0601 82.5768 25.4525 92.3902 23.6717 97.28C23.6717 97.28 22.7429 97.1693 21.9741 96.6633C21.9741 96.6633 28.012 78.9997 29.6228 76.647L35.1951 77.0619Z" fill="url(#paint15_linear_99_232)"/>
<path d="M31.1912 82.4699C31.1736 82.4699 31.1558 82.4652 31.1398 82.4552C31.0944 82.4267 31.0806 82.3668 31.109 82.3214L32.3369 80.3602C32.3511 80.3376 32.3739 80.3217 32.4 80.3164L33.3036 80.1346C33.3565 80.1242 33.4074 80.1582 33.418 80.2105C33.4285 80.2631 33.3945 80.3143 33.342 80.3249L32.4793 80.4985L31.2736 82.4243C31.2551 82.4538 31.2235 82.4699 31.1912 82.4699Z" fill="url(#paint16_linear_99_232)"/>
<path d="M50.2733 56.9502C50.2733 56.9502 48.0561 57.4392 46.7076 58.0618C46.4397 58.1855 46.2261 58.4017 46.1044 58.6682C45.7011 59.5517 44.4945 61.7671 42.1543 62.8243C42.4913 63.2716 43.0339 64.202 43.2703 65.7659C44.6758 64.7198 45.8892 62.9727 46.4717 60.1076C46.4717 60.1076 46.9154 60.3487 47.4687 60.0799C47.7611 59.9379 48.0987 59.7365 48.3521 59.5781C48.6045 59.4203 48.7926 59.1749 48.8656 58.8884C48.9621 58.5101 48.9053 58.1774 48.9053 57.8204L50.0449 57.4674C50.045 57.4674 50.3876 57.3381 50.2733 56.9502Z" fill="url(#paint17_linear_99_232)"/>
<path d="M43.2703 65.7659C43.0339 64.2021 42.4913 63.2717 42.1543 62.8244C40.7006 63.4812 38.8095 63.6911 36.4015 62.8567C36.1796 62.7798 35.948 62.7348 35.7133 62.721C34.4313 62.6458 30.207 62.5087 26.7115 63.6635C25.9758 63.9066 25.38 64.4504 25.0729 65.1551C24.1273 67.3251 22.5964 72.2669 26.8464 74.7618C27.1729 73.9511 27.5497 73.2995 27.872 72.8208C27.1876 71.6663 26.9849 70.0896 28.1994 68.0364C29.085 70.4277 29.5004 73.9168 29.5872 75.461C29.6158 75.9694 29.5266 76.4768 29.3272 76.9462L29.3054 76.9974C29.2627 77.0978 29.3214 77.2133 29.4288 77.2374C31.8213 77.7748 34.3097 77.6288 35.0532 77.5673C35.1859 77.5564 35.2962 77.4614 35.3266 77.3331C36.4901 72.431 36.4927 69.087 36.2079 66.9732C37.2962 67.2165 40.6241 67.7355 43.2703 65.7659Z" fill="url(#paint18_linear_99_232)"/>
<path d="M36.2124 67.1049C36.1644 67.1049 36.1228 67.0694 36.1163 67.0207C35.8431 64.9567 35.2867 64.0559 35.2811 64.0471C35.2525 64.0018 35.266 63.9418 35.3113 63.9131C35.3564 63.8847 35.4163 63.8979 35.445 63.9431C35.4688 63.9805 36.029 64.8824 36.3087 66.9952C36.3157 67.0483 36.2783 67.0971 36.2252 67.1041C36.2209 67.1047 36.2166 67.1049 36.2124 67.1049Z" fill="url(#paint19_linear_99_232)"/>
<path d="M30.3082 59.8652C30.3082 59.8652 30.0661 62.4243 29.853 63.1813C29.8207 63.2962 29.8706 63.4173 29.9749 63.4769C30.3366 63.6836 31.2041 64.0207 32.3907 63.4391C32.5829 63.3449 32.6985 63.1445 32.6895 62.9325L32.585 60.4595L30.3082 59.8652Z" fill="url(#paint20_linear_99_232)"/>
<path d="M32.6371 56.5913C32.6371 56.5913 33.4112 58.3696 33.4632 59.303C33.5152 60.2364 33.7163 60.8421 32.6371 61.03C31.5578 61.218 30.6487 60.6803 30.1561 59.7506C30.1561 59.7506 29.3844 58.3179 29.5575 57.7312C29.7307 57.1445 32.6371 56.5913 32.6371 56.5913Z" fill="url(#paint21_linear_99_232)"/>
<path d="M30.525 59.0821L30.5864 59.0551C30.6646 59.0206 30.6981 58.9275 30.6588 58.8516C30.5066 58.5575 30.2099 57.8837 30.5932 57.7265C31.0871 57.5239 33.0437 57.1249 33.4658 56.4307C33.8715 55.7634 33.5121 54.9021 32.9718 54.6572C32.9357 54.6408 32.893 54.6538 32.8745 54.6889L32.8295 54.7741C32.7987 54.8324 32.7125 54.8236 32.6942 54.7602C32.6766 54.6994 32.5957 54.6876 32.5621 54.7413C32.4323 54.949 32.082 55.2857 31.1452 55.4586C29.8138 55.7043 28.9335 56.2431 28.9116 57.1632C28.9102 57.2216 28.848 57.2541 28.7981 57.2237C28.6998 57.1638 28.5424 57.1357 28.3322 57.3124C27.9666 57.6199 28.1162 58.4174 28.9177 59.0735C28.9558 59.1047 28.9555 59.1642 28.9143 59.191C28.769 59.2856 28.5523 59.5106 29.1137 59.8107C29.6942 60.1211 30.1278 60.0956 30.2947 60.068C30.3363 60.0612 30.363 60.021 30.354 59.9799L30.1758 59.1712C30.1657 59.1255 30.2005 59.0821 30.2474 59.0821H30.525Z" fill="url(#paint22_linear_99_232)"/>
<path d="M30.5585 59.2527C30.5585 59.2527 30.2631 58.1167 29.7538 58.4352C29.2445 58.7537 30.0181 59.708 30.4276 59.7506L30.5585 59.2527Z" fill="url(#paint23_linear_99_232)"/>
<path d="M47.0629 59.8433C47.0414 59.8433 47.0198 59.8362 47.0018 59.8215C46.9602 59.7878 46.9539 59.7266 46.9878 59.685C47.0716 59.5818 47.8157 58.6721 48.1023 58.5103C48.2066 58.4513 48.2688 58.3905 48.282 58.3343C48.2883 58.3075 48.2841 58.2773 48.269 58.243L47.3948 58.4182L46.8994 58.8432C46.859 58.8782 46.7975 58.8735 46.7627 58.8328C46.7277 58.7921 46.7325 58.7309 46.7731 58.6959L47.2876 58.2543C47.3003 58.2435 47.3154 58.2362 47.3317 58.2329L48.2995 58.0389C48.3383 58.0311 48.3773 58.0474 48.3991 58.0799C48.47 58.1851 48.4935 58.283 48.4708 58.3789C48.4441 58.4922 48.3548 58.5905 48.1977 58.6793C47.9821 58.8011 47.3599 59.535 47.1383 59.8076C47.1192 59.8311 47.0912 59.8433 47.0629 59.8433Z" fill="#F8A570"/>
<path d="M30.5209 75.9916L33.9428 76.0339L32.7451 74.9066C32.4475 74.6264 31.9931 74.5811 31.6495 74.8039C31.4483 74.9344 31.2301 75.1115 31.0411 75.3461C31.0411 75.3461 28.9066 74.566 27.8718 72.8207C27.5496 73.2994 27.1727 73.951 26.8462 74.7617C27.7738 75.3063 28.9763 75.7344 30.5209 75.9916Z" fill="url(#paint24_linear_99_232)"/>
<path d="M30.8895 76.4329C30.8962 76.4332 30.9028 76.4334 30.9095 76.4333L39.5955 76.4239C39.8102 76.4238 39.9841 76.2513 39.9839 76.0389C39.9836 75.8264 39.8088 75.6508 39.5946 75.6546L30.9086 75.664C30.6939 75.6642 30.52 75.8366 30.5203 76.0491C30.5205 76.2549 30.6841 76.4228 30.8895 76.4329Z" fill="url(#paint25_linear_99_232)"/>
<path d="M47.4037 68.6299H40.17C39.6363 68.6299 39.1506 68.9346 38.923 69.4121L35.5789 76.4283H44.5685C44.9124 76.4283 45.2213 76.2204 45.3477 75.904L47.941 69.4116C48.0908 69.0364 47.8114 68.6299 47.4037 68.6299Z" fill="url(#paint26_linear_99_232)"/>
<path d="M42.3077 72.2273C42.1509 72.7091 42.2667 73.1771 42.5663 73.2725C42.866 73.3679 43.2359 73.0546 43.3927 72.5728C43.5494 72.0909 43.4336 71.6229 43.134 71.5275C42.8344 71.4321 42.4644 71.7454 42.3077 72.2273Z" fill="url(#paint27_linear_99_232)"/>
<defs>
<linearGradient id="paint0_linear_99_232" x1="109.874" y1="118.275" x2="44.7033" y2="44.8989" gradientUnits="userSpaceOnUse">
<stop stop-color="#B37CFF"/>
<stop offset="1" stop-color="#F895E7"/>
</linearGradient>
<linearGradient id="paint1_linear_99_232" x1="8.05057" y1="43.5232" x2="42.6523" y2="57.8379" gradientUnits="userSpaceOnUse">
<stop stop-color="#A737D5"/>
<stop offset="1" stop-color="#EF497A"/>
</linearGradient>
<linearGradient id="paint2_linear_99_232" x1="16.8748" y1="61.8141" x2="39.5416" y2="33.9546" gradientUnits="userSpaceOnUse">
<stop stop-color="#CE1567"/>
<stop offset="1" stop-color="#7A1DBC"/>
</linearGradient>
<linearGradient id="paint3_linear_99_232" x1="62.6625" y1="46.1564" x2="57.6142" y2="104.761" gradientUnits="userSpaceOnUse">
<stop stop-color="#2B3582"/>
<stop offset="1" stop-color="#150E42"/>
</linearGradient>
<linearGradient id="paint4_linear_99_232" x1="59.706" y1="112.617" x2="60.5869" y2="75.6171" gradientUnits="userSpaceOnUse">
<stop stop-color="#2B3582"/>
<stop offset="1" stop-color="#150E42"/>
</linearGradient>
<linearGradient id="paint5_linear_99_232" x1="44.6708" y1="69.4187" x2="55.9269" y2="54.3192" gradientUnits="userSpaceOnUse">
<stop stop-color="#2B3582"/>
<stop offset="1" stop-color="#150E42"/>
</linearGradient>
<linearGradient id="paint6_linear_99_232" x1="81.2641" y1="45.1341" x2="89.5438" y2="44.3814" gradientUnits="userSpaceOnUse">
<stop stop-color="#A737D5"/>
<stop offset="1" stop-color="#EF497A"/>
</linearGradient>
<linearGradient id="paint7_linear_99_232" x1="91.7102" y1="44.2848" x2="69.38" y2="45.5661" gradientUnits="userSpaceOnUse">
<stop stop-color="#2B3582"/>
<stop offset="1" stop-color="#150E42"/>
</linearGradient>
<linearGradient id="paint8_linear_99_232" x1="49.4108" y1="52.2185" x2="48.5872" y2="31.4909" gradientUnits="userSpaceOnUse">
<stop stop-color="#2B3582"/>
<stop offset="1" stop-color="#150E42"/>
</linearGradient>
<linearGradient id="paint9_linear_99_232" x1="32.4032" y1="101.933" x2="32.6227" y2="96.9397" gradientUnits="userSpaceOnUse">
<stop stop-color="#CB236D"/>
<stop offset="1" stop-color="#4C246D"/>
</linearGradient>
<linearGradient id="paint10_linear_99_232" x1="29.803" y1="99.6093" x2="34.9708" y2="99.6093" gradientUnits="userSpaceOnUse">
<stop stop-color="#CB236D"/>
<stop offset="1" stop-color="#4C246D"/>
</linearGradient>
<linearGradient id="paint11_linear_99_232" x1="30.2942" y1="98.1542" x2="31.7921" y2="98.1542" gradientUnits="userSpaceOnUse">
<stop stop-color="#F9B776"/>
<stop offset="1" stop-color="#F47960"/>
</linearGradient>
<linearGradient id="paint12_linear_99_232" x1="21.5549" y1="103.489" x2="20.1831" y2="93.4476" gradientUnits="userSpaceOnUse">
<stop stop-color="#CB236D"/>
<stop offset="1" stop-color="#4C246D"/>
</linearGradient>
<linearGradient id="paint13_linear_99_232" x1="20.3269" y1="99.9422" x2="23.318" y2="99.9422" gradientUnits="userSpaceOnUse">
<stop stop-color="#CB236D"/>
<stop offset="1" stop-color="#4C246D"/>
</linearGradient>
<linearGradient id="paint14_linear_99_232" x1="21.8816" y1="97.3731" x2="23.6717" y2="97.3731" gradientUnits="userSpaceOnUse">
<stop stop-color="#F9B776"/>
<stop offset="1" stop-color="#F47960"/>
</linearGradient>
<linearGradient id="paint15_linear_99_232" x1="36.3611" y1="78.0555" x2="21.0776" y2="103.091" gradientUnits="userSpaceOnUse">
<stop stop-color="#2B3582"/>
<stop offset="1" stop-color="#150E42"/>
</linearGradient>
<linearGradient id="paint16_linear_99_232" x1="29.8399" y1="67.6353" x2="31.7422" y2="78.3904" gradientUnits="userSpaceOnUse">
<stop stop-color="#53D8FF"/>
<stop offset="1" stop-color="#3840F7"/>
</linearGradient>
<linearGradient id="paint17_linear_99_232" x1="48.5424" y1="59.197" x2="61.9314" y2="49.0272" gradientUnits="userSpaceOnUse">
<stop stop-color="#F9B776"/>
<stop offset="1" stop-color="#F47960"/>
</linearGradient>
<linearGradient id="paint18_linear_99_232" x1="38.0933" y1="61.8269" x2="14.4229" y2="89.8807" gradientUnits="userSpaceOnUse">
<stop stop-color="#CB236D"/>
<stop offset="1" stop-color="#4C246D"/>
</linearGradient>
<linearGradient id="paint19_linear_99_232" x1="42.967" y1="57.6095" x2="32.6509" y2="68.9499" gradientUnits="userSpaceOnUse">
<stop stop-color="#CB236D"/>
<stop offset="1" stop-color="#4C246D"/>
</linearGradient>
<linearGradient id="paint20_linear_99_232" x1="30.7007" y1="65.6277" x2="31.4763" y2="61.5556" gradientUnits="userSpaceOnUse">
<stop stop-color="#F9B776"/>
<stop offset="1" stop-color="#F47960"/>
</linearGradient>
<linearGradient id="paint21_linear_99_232" x1="32.7994" y1="58.1566" x2="28.3739" y2="61.5428" gradientUnits="userSpaceOnUse">
<stop stop-color="#F9B776"/>
<stop offset="1" stop-color="#F47960"/>
</linearGradient>
<linearGradient id="paint22_linear_99_232" x1="29.684" y1="55.4755" x2="33.8057" y2="60.7822" gradientUnits="userSpaceOnUse">
<stop stop-color="#2B3582"/>
<stop offset="1" stop-color="#150E42"/>
</linearGradient>
<linearGradient id="paint23_linear_99_232" x1="32.2505" y1="57.4392" x2="27.8249" y2="60.8254" gradientUnits="userSpaceOnUse">
<stop stop-color="#F9B776"/>
<stop offset="1" stop-color="#F47960"/>
</linearGradient>
<linearGradient id="paint24_linear_99_232" x1="34.8451" y1="68.5205" x2="31.7476" y2="73.1668" gradientUnits="userSpaceOnUse">
<stop stop-color="#F9B776"/>
<stop offset="1" stop-color="#F47960"/>
</linearGradient>
<linearGradient id="paint25_linear_99_232" x1="29.4164" y1="74.1293" x2="36.311" y2="76.3906" gradientUnits="userSpaceOnUse">
<stop stop-color="#2B3582"/>
<stop offset="1" stop-color="#150E42"/>
</linearGradient>
<linearGradient id="paint26_linear_99_232" x1="38.9059" y1="69.664" x2="43.8419" y2="74.8811" gradientUnits="userSpaceOnUse">
<stop stop-color="#2B3582"/>
<stop offset="1" stop-color="#150E42"/>
</linearGradient>
<linearGradient id="paint27_linear_99_232" x1="41.8992" y1="70.9679" x2="44.1304" y2="74.3279" gradientUnits="userSpaceOnUse">
<stop stop-color="#53D8FF"/>
<stop offset="1" stop-color="#3840F7"/>
</linearGradient>
</defs>
</svg>
