<svg width="120" height="120" viewBox="0 0 120 120" fill="none" xmlns="http://www.w3.org/2000/svg">
<g clip-path="url(#clip0_99_307)">
<path opacity="0.3" d="M100.752 75.2774C92.1566 95.5166 69.2599 106.855 49.4038 103.796C46.1728 103.299 37.315 101.816 29.4726 94.8224C14.3754 81.3589 11.1468 54.6992 23.3252 35.9116C32.1889 22.2374 48.0781 14.486 63.1759 14.8737C66.428 14.9573 78.8912 15.472 89.8443 24.5036C91.4531 25.8302 95.0015 28.9825 98.1994 33.9834C105.709 45.7266 106.354 62.0873 100.752 75.2774Z" fill="url(#paint0_linear_99_307)"/>
<g opacity="0.3">
<path d="M27.2991 29.8733C27.2917 30.0162 27.1698 30.1261 27.0269 30.1186C26.7493 30.1043 26.4669 30.1017 26.1876 30.1111C26.0463 30.1158 25.9276 30.0064 25.9202 29.8659C25.9201 29.8642 25.9201 29.8625 25.92 29.8608C25.9152 29.7178 26.0273 29.598 26.1703 29.5932C26.4643 29.5834 26.7616 29.586 27.0538 29.6012C27.1874 29.6081 27.2922 29.7152 27.2991 29.846C27.2995 29.855 27.2996 29.8641 27.2991 29.8733ZM24.8312 30.25C24.5559 30.2973 24.28 30.3569 24.011 30.4271C23.8727 30.4632 23.7311 30.3803 23.6949 30.2418C23.6591 30.1028 23.7418 29.9619 23.8803 29.9257C24.1633 29.8519 24.4537 29.7891 24.7433 29.7393C24.8843 29.715 25.0183 29.8097 25.0426 29.9508C25.0443 29.961 25.0455 29.9712 25.046 29.9813C25.0528 30.1106 24.962 30.2275 24.8312 30.25ZM22.7196 30.8621C22.4625 30.9693 22.2069 31.0889 21.9598 31.2178C21.833 31.2839 21.6764 31.2347 21.6103 31.1079C21.5443 30.9811 21.5933 30.8246 21.7202 30.7583C21.9803 30.6226 22.2496 30.4966 22.5203 30.3838C22.6524 30.3288 22.804 30.3913 22.8592 30.5233C22.8709 30.5515 22.8773 30.5805 22.8788 30.6093C22.8844 30.7157 22.8235 30.8189 22.7196 30.8621ZM20.798 31.9312C20.571 32.0932 20.3485 32.2671 20.1365 32.4478C20.0275 32.5406 19.864 32.5276 19.7712 32.4187C19.6785 32.3097 19.6916 32.1463 19.8003 32.0535C20.0236 31.8632 20.2579 31.6802 20.4967 31.5095C20.6131 31.4264 20.775 31.4533 20.8581 31.5697C20.8879 31.6114 20.9036 31.6588 20.9061 31.7065C20.9105 31.7919 20.8727 31.8777 20.798 31.9312ZM19.1624 33.4017C18.9775 33.6096 18.7989 33.8285 18.6317 34.0521C18.546 34.1667 18.3836 34.19 18.269 34.1044C18.1544 34.0186 18.131 33.8563 18.2168 33.7417C18.3927 33.5065 18.5807 33.2762 18.7752 33.0574C18.8702 32.9504 19.0339 32.9408 19.1409 33.0359C19.1948 33.0838 19.224 33.1492 19.2275 33.2159C19.231 33.2816 19.2095 33.3486 19.1624 33.4017ZM17.8929 35.1974C17.7584 35.4415 17.6328 35.6943 17.5194 35.9489C17.4612 36.0796 17.308 36.1385 17.1774 36.0803C17.0466 36.0221 16.9878 35.869 17.046 35.7382C17.1652 35.4702 17.2975 35.2041 17.4391 34.9473C17.5082 34.822 17.6657 34.7764 17.7911 34.8454C17.8725 34.8903 17.9202 34.9725 17.9247 35.059C17.9272 35.1056 17.9171 35.1535 17.8929 35.1974ZM17.6684 44.8157C17.5414 44.8817 17.385 44.8323 17.319 44.7053C17.1839 44.4452 17.0584 44.1755 16.9459 43.9041C16.8911 43.7719 16.9538 43.6203 17.0861 43.5656C17.2182 43.5108 17.3697 43.5735 17.4245 43.7057C17.5313 43.9634 17.6506 44.2194 17.7789 44.4664C17.7965 44.5003 17.8059 44.5362 17.8078 44.572C17.813 44.6704 17.7616 44.7674 17.6684 44.8157ZM17.0536 37.2286C16.9768 37.4963 16.9107 37.7706 16.8571 38.0439C16.8296 38.1843 16.6934 38.2759 16.553 38.2483C16.4125 38.2208 16.3217 38.0847 16.3486 37.9442C16.405 37.6565 16.4746 37.3676 16.5556 37.0857C16.5951 36.9482 16.7385 36.8687 16.8761 36.9082C16.9852 36.9395 17.0578 37.0362 17.0634 37.1436C17.0649 37.1715 17.0617 37.2002 17.0536 37.2286ZM16.806 42.7289C16.6675 42.7647 16.5261 42.6815 16.4902 42.5429C16.4168 42.2592 16.3547 41.9685 16.3054 41.679C16.2808 41.538 16.3764 41.4042 16.5174 41.3802C16.6584 41.3562 16.7922 41.4511 16.8163 41.5922C16.8631 41.8673 16.9221 42.1435 16.9919 42.4132C16.9964 42.4304 16.9989 42.4476 16.9998 42.4647C17.0062 42.5852 16.9273 42.6975 16.806 42.7289ZM16.6894 39.3961C16.6744 39.6741 16.6712 39.9563 16.68 40.2351C16.6846 40.3782 16.5723 40.4977 16.4293 40.5023C16.2881 40.5067 16.1698 40.3974 16.1624 40.257C16.1623 40.2552 16.1622 40.2533 16.1622 40.2515C16.1528 39.958 16.1561 39.6608 16.1718 39.3683C16.1796 39.2254 16.3016 39.1158 16.4445 39.1235C16.578 39.1306 16.6824 39.2377 16.6893 39.3683C16.6898 39.3774 16.6898 39.3868 16.6894 39.3961Z" fill="url(#paint1_linear_99_307)"/>
<path d="M18.7892 46.104C18.7865 46.0531 18.7688 46.0024 18.7351 45.959C18.6532 45.8535 18.5721 45.7445 18.494 45.6351C18.4109 45.5187 18.2491 45.4916 18.1327 45.5747C18.0161 45.6577 17.9889 45.8196 18.0723 45.9361C18.1543 46.0512 18.2396 46.1657 18.3258 46.2768C18.4135 46.3898 18.5763 46.4103 18.6893 46.3226C18.759 46.2685 18.7935 46.1859 18.7892 46.104Z" fill="url(#paint2_linear_99_307)"/>
</g>
<g opacity="0.3">
<path d="M25.6853 49.9557C25.6787 49.8308 25.5824 49.7257 25.454 49.712C25.3212 49.6979 25.1865 49.6807 25.0536 49.6609C24.912 49.6399 24.7802 49.7376 24.7592 49.8791C24.7381 50.0212 24.8359 50.1524 24.9774 50.1735C25.1173 50.1942 25.2593 50.2123 25.3991 50.2273C25.5414 50.2425 25.669 50.1394 25.6842 49.9971C25.6857 49.9832 25.686 49.9693 25.6853 49.9557Z" fill="url(#paint3_linear_99_307)"/>
<path d="M36.8548 39.9125C36.8554 40.0555 36.7398 40.172 36.5966 40.1725C36.4535 40.173 36.3373 40.0575 36.3366 39.9143C36.3356 39.6419 36.323 39.3653 36.2991 39.089C36.2864 38.9472 36.3925 38.8209 36.535 38.8086C36.6776 38.7963 36.8031 38.9019 36.8155 39.0444C36.8258 39.1641 36.8341 39.2835 36.8404 39.4026C36.8494 39.5724 36.8542 39.744 36.8548 39.9125ZM36.403 37.959C36.2635 37.9904 36.1248 37.9028 36.0933 37.7633C36.0328 37.4953 35.9604 37.227 35.878 36.9658C35.8345 36.8297 35.9105 36.6839 36.047 36.6407C36.1834 36.5977 36.3289 36.6734 36.372 36.8098C36.4588 37.0848 36.5351 37.3672 36.5987 37.6492C36.602 37.6638 36.604 37.6785 36.6047 37.6929C36.6113 37.8166 36.528 37.9307 36.403 37.959ZM36.7631 41.3213C36.7248 41.607 36.6736 41.895 36.6111 42.1772C36.5801 42.3169 36.4418 42.4051 36.302 42.3742C36.1624 42.3432 36.0744 42.2049 36.1051 42.0651C36.1646 41.7971 36.2132 41.5237 36.2495 41.2524C36.2686 41.1106 36.399 41.011 36.5409 41.0301C36.6663 41.0469 36.7586 41.151 36.765 41.2729C36.7659 41.2888 36.7653 41.305 36.7631 41.3213ZM35.7325 35.8405C35.6033 35.9019 35.4487 35.8469 35.3873 35.7176C35.2697 35.4699 35.14 35.2242 35.002 34.9874C34.9298 34.8637 34.9716 34.7052 35.0953 34.6331C35.2189 34.561 35.3775 34.6028 35.4496 34.7264C35.595 34.9757 35.7315 35.2345 35.8554 35.4953C35.8704 35.5269 35.8785 35.5599 35.8802 35.5927C35.8856 35.6945 35.8302 35.7941 35.7325 35.8405ZM36.2119 43.5304C36.1117 43.8004 35.9985 44.07 35.8754 44.3316C35.8146 44.4611 35.6603 44.5167 35.5308 44.4558C35.4013 44.395 35.3457 44.2406 35.4066 44.1111C35.5234 43.8626 35.6309 43.6066 35.7261 43.3501C35.7759 43.2159 35.925 43.1475 36.0591 43.1973C36.1591 43.2344 36.2225 43.3267 36.2278 43.4267C36.2296 43.4609 36.2246 43.4962 36.2119 43.5304ZM35.1895 45.5649C35.0323 45.8072 34.8631 46.0455 34.6865 46.2735C34.5988 46.3867 34.4361 46.4073 34.3229 46.3197C34.2097 46.2319 34.1891 46.0692 34.2768 45.9562C34.4446 45.7396 34.6055 45.513 34.7549 45.2829C34.8328 45.1628 34.9933 45.1287 35.1133 45.2066C35.1856 45.2536 35.2267 45.3305 35.2309 45.4105C35.2337 45.4632 35.2204 45.5173 35.1895 45.5649ZM33.748 47.3284C33.5417 47.5308 33.3245 47.7267 33.1026 47.9106C32.9924 48.002 32.8291 47.9866 32.7378 47.8765C32.6463 47.7662 32.6618 47.603 32.7719 47.5117C32.9828 47.3369 33.1891 47.1508 33.3852 46.9585C33.4873 46.8583 33.6514 46.8599 33.7515 46.962C33.7976 47.009 33.8221 47.0689 33.8253 47.1297C33.8291 47.2014 33.8032 47.2742 33.748 47.3284ZM31.9561 48.7355C31.7106 48.8878 31.4556 49.0314 31.1984 49.1622C31.0709 49.2271 30.9149 49.1763 30.85 49.0487C30.7852 48.9214 30.836 48.7653 30.9635 48.7004C31.2077 48.5762 31.4497 48.4398 31.683 48.2951C31.8046 48.2197 31.9642 48.2571 32.0397 48.3787C32.0635 48.4171 32.0761 48.4593 32.0783 48.5014C32.0831 48.5927 32.0393 48.6838 31.9561 48.7355ZM29.8978 49.7149C29.6254 49.8091 29.3453 49.8929 29.0653 49.964C28.9266 49.9992 28.7856 49.9153 28.7504 49.7766C28.7153 49.6384 28.799 49.497 28.9377 49.4618C29.2038 49.3943 29.4698 49.3147 29.7285 49.2252C29.8637 49.1784 30.0113 49.2501 30.058 49.3853C30.0662 49.4089 30.0708 49.4328 30.072 49.4565C30.0779 49.5689 30.0095 49.6762 29.8978 49.7149ZM27.677 50.2179C27.4659 50.242 27.2515 50.2598 27.0398 50.271C26.9631 50.275 26.8866 50.2782 26.8102 50.2805C26.6673 50.2849 26.545 50.1744 26.5433 50.0295C26.5388 49.8865 26.6512 49.767 26.7943 49.7626C26.8669 49.7603 26.9397 49.7574 27.0125 49.7535C27.2139 49.7429 27.4176 49.726 27.6183 49.7031C27.7604 49.6868 27.8888 49.789 27.905 49.9311C27.9056 49.9365 27.9061 49.9418 27.9064 49.9471C27.9135 50.0828 27.8138 50.2023 27.677 50.2179Z" fill="url(#paint4_linear_99_307)"/>
<path d="M34.7072 33.699C34.7044 33.6475 34.6865 33.5964 34.6523 33.5529C34.5657 33.4425 34.4752 33.3319 34.3832 33.2241C34.2903 33.1152 34.1268 33.1023 34.018 33.1952C33.9091 33.2881 33.896 33.4515 33.989 33.5604C34.0764 33.6628 34.1624 33.7679 34.2446 33.8727C34.3329 33.9853 34.4957 34.005 34.6083 33.9167C34.6774 33.8625 34.7115 33.7803 34.7072 33.699Z" fill="url(#paint5_linear_99_307)"/>
</g>
<path d="M30.298 33.162C30.2563 33.1315 30.1999 33.1308 30.1574 33.1603L28.9468 34.0008C28.3134 33.7316 27.6325 33.5616 26.9262 33.5074L26.2388 32.2048C26.2147 32.1592 26.1642 32.1338 26.1132 32.1417L24.3662 32.4121C24.3151 32.42 24.2747 32.4594 24.2655 32.5102L24.004 33.9596C23.3472 34.2247 22.7495 34.5927 22.2271 35.0407L20.819 34.6055C20.7696 34.5903 20.7161 34.608 20.6856 34.6497L19.6414 36.0762C19.6109 36.1178 19.6102 36.1743 19.6397 36.2167L20.4802 37.4273C20.211 38.0608 20.0409 38.7417 19.9868 39.448L18.6842 40.1354C18.6385 40.1595 18.6131 40.21 18.6211 40.261L18.8914 42.008C18.8993 42.0591 18.9388 42.0995 18.9896 42.1086L20.4391 42.3702C20.7042 43.027 21.0721 43.6247 21.5202 44.1471L21.0849 45.5552C21.0696 45.6045 21.0874 45.6581 21.1291 45.6886L22.5556 46.7327C22.5972 46.7633 22.6537 46.764 22.6961 46.7345L23.9068 45.894C24.5402 46.1632 25.2211 46.3332 25.9274 46.3874L26.6148 47.6899C26.6389 47.7356 26.6894 47.761 26.7404 47.7531L28.4874 47.4827C28.5385 47.4748 28.5789 47.4354 28.5881 47.3846L28.8496 45.9351C29.5064 45.67 30.1041 45.3021 30.6265 44.854L32.0346 45.2893C32.0839 45.3045 32.1375 45.2868 32.1681 45.2451L33.2122 43.8186C33.2427 43.7769 33.2434 43.7205 33.2139 43.6781L32.3734 42.4674C32.6426 41.834 32.8126 41.1531 32.8668 40.4469L34.1694 39.7594C34.215 39.7353 34.2404 39.6849 34.2325 39.6338L33.9622 37.8868C33.9543 37.8358 33.9149 37.7953 33.864 37.7861L32.4146 37.5246C32.1495 36.8678 31.7815 36.2701 31.3335 35.7477L31.7687 34.3396C31.784 34.2903 31.7662 34.2367 31.7245 34.2062L30.298 33.162Z" fill="url(#paint6_linear_99_307)"/>
<path opacity="0.56" d="M28.1959 40.1138C28.1042 41.0892 27.236 41.8083 26.2605 41.7166C25.7879 41.6722 25.3609 41.4464 25.0582 41.0808C24.7555 40.7153 24.6131 40.2537 24.6577 39.7811C24.7494 38.8056 25.6176 38.0866 26.5932 38.1783C27.4807 38.2617 28.1558 38.9879 28.2014 39.8529C28.2059 39.9386 28.2042 40.0258 28.1959 40.1138ZM25.3775 40.8164C25.6096 41.0967 25.9369 41.2698 26.2993 41.3039C27.0472 41.3742 27.713 40.8229 27.7832 40.075C27.8538 39.3268 27.3022 38.6613 26.5542 38.591C25.8064 38.5207 25.1406 39.072 25.0703 39.8199C25.0639 39.8877 25.0626 39.9551 25.0661 40.0219C25.0814 40.3121 25.1888 40.5886 25.3775 40.8164Z" fill="white"/>
<path opacity="0.56" d="M30.7662 39.7542C30.7584 39.6056 30.7431 39.4566 30.72 39.3076C30.7127 39.2607 30.7047 39.2139 30.696 39.1672C30.6528 38.9371 30.5913 38.7109 30.5126 38.4919C30.5115 38.4889 30.5105 38.4859 30.5094 38.483C30.5063 38.4745 30.5032 38.466 30.5 38.4576C30.494 38.4411 30.4878 38.4248 30.4815 38.4084C30.4651 38.3654 30.4231 38.3397 30.3794 38.3419C30.3688 38.3425 30.3581 38.3447 30.3477 38.3487C30.2942 38.3692 30.2677 38.4291 30.288 38.4825C30.3934 38.7576 30.4698 39.0458 30.5151 39.3392C30.7409 40.7966 30.1774 42.1972 29.1441 43.1054C28.5694 43.6106 27.8493 43.9634 27.0386 44.0888C26.8965 44.1108 26.7543 44.1255 26.6126 44.1329C25.659 44.183 24.7249 43.9059 23.9439 43.3342C23.0468 42.6776 22.4591 41.7109 22.2891 40.6123C21.9382 38.3434 23.4978 36.2137 25.7656 35.8628C25.9054 35.8411 26.0458 35.8266 26.1862 35.8193C26.7945 35.7874 27.4031 35.8889 27.9678 36.1188C27.9824 36.1247 27.9975 36.1271 28.0123 36.1263C28.0511 36.1242 28.0872 36.1003 28.1028 36.0619C28.1242 36.0088 28.0991 35.9484 28.0459 35.9268C27.453 35.6855 26.8141 35.5788 26.1754 35.6123C26.0281 35.62 25.8807 35.6352 25.7339 35.6579C23.3529 36.0264 21.7159 38.2639 22.0842 40.644C22.2627 41.7974 22.8797 42.8121 23.8215 43.5015C24.6413 44.1016 25.6219 44.3925 26.6231 44.34C26.7718 44.3322 26.9211 44.3167 27.0703 44.2937C28.2237 44.1152 29.2385 43.4983 29.9279 42.5565C30.5281 41.7364 30.8189 40.7555 30.7662 39.7542Z" fill="white"/>
<g opacity="0.3">
<path d="M29.5151 16.1763C29.5115 16.1072 29.463 16.0458 29.3922 16.0291C29.26 15.9977 29.1251 15.9699 28.9912 15.9465C28.9041 15.9313 28.8213 15.9895 28.806 16.0766C28.7904 16.1637 28.849 16.2465 28.9361 16.2618C29.0637 16.2841 29.1923 16.3105 29.3185 16.3405C29.4043 16.3609 29.4906 16.3077 29.5111 16.2217C29.5147 16.2064 29.5159 16.1912 29.5151 16.1763Z" fill="url(#paint7_linear_99_307)"/>
<path d="M28.2964 16.0197C28.292 16.1079 28.217 16.176 28.1286 16.1716C27.9059 16.1607 27.6799 16.1611 27.4572 16.1729C27.4103 16.1753 27.3631 16.1784 27.3159 16.1819C27.2278 16.1883 27.1511 16.1222 27.1446 16.034C27.1418 15.9505 27.2043 15.8692 27.2926 15.8626C27.342 15.859 27.3913 15.8559 27.4404 15.8533C27.6738 15.841 27.9107 15.8406 28.1444 15.8521C28.227 15.8561 28.292 15.9223 28.2963 16.0033C28.2966 16.0086 28.2966 16.0141 28.2964 16.0197ZM26.5106 16.2908C26.2453 16.3433 25.9809 16.4128 25.7248 16.4972C25.6408 16.5249 25.5505 16.4793 25.5228 16.3954C25.4954 16.3118 25.5407 16.221 25.6246 16.1933C25.893 16.1048 26.1703 16.032 26.4484 15.9769C26.5351 15.9598 26.6193 16.0161 26.6366 16.1029C26.6381 16.1104 26.6389 16.1182 26.6393 16.1257C26.6434 16.2039 26.5896 16.2752 26.5106 16.2908ZM24.9704 16.7993C24.7264 16.9151 24.4872 17.0474 24.2592 17.1926C24.1847 17.24 24.0857 17.2181 24.0383 17.1436C23.9907 17.0688 24.0126 16.9702 24.0872 16.9227C24.3263 16.7704 24.5774 16.6316 24.8331 16.5102C24.9129 16.4724 25.0085 16.5063 25.0463 16.5861C25.0555 16.6056 25.0604 16.626 25.0615 16.6463C25.0648 16.7091 25.0307 16.7707 24.9704 16.7993ZM23.6021 17.6708C23.3937 17.8431 23.194 18.0299 23.009 18.226C22.9482 18.2903 22.847 18.2932 22.7827 18.2325C22.7187 18.1719 22.7155 18.0706 22.7761 18.0063C22.9703 17.8006 23.1795 17.6048 23.3982 17.4241C23.4663 17.3677 23.5672 17.3774 23.6236 17.4455C23.6461 17.473 23.6582 17.5058 23.6599 17.5388C23.6625 17.5878 23.6427 17.6372 23.6021 17.6708ZM22.488 18.8498C22.3278 19.0675 22.1797 19.2972 22.0475 19.5324C22.0043 19.6094 21.9067 19.6368 21.8296 19.5935C21.7525 19.5502 21.725 19.4527 21.7685 19.3756C21.907 19.129 22.0624 18.8883 22.2302 18.6601C22.2826 18.589 22.3828 18.5737 22.4539 18.626C22.4941 18.6556 22.5165 18.7004 22.5189 18.7466C22.5208 18.7823 22.5108 18.8188 22.488 18.8498ZM21.6939 20.2636C21.5916 20.5135 21.504 20.7721 21.4335 21.0324C21.4104 21.1176 21.3225 21.1681 21.2373 21.145C21.152 21.1218 21.1017 21.0342 21.1246 20.9486C21.1985 20.6757 21.2904 20.4044 21.3977 20.1423C21.4313 20.0605 21.5247 20.0214 21.6064 20.0548C21.6656 20.0791 21.7025 20.1348 21.7057 20.1946C21.7069 20.2175 21.7032 20.241 21.6939 20.2636ZM21.2699 21.828C21.2322 22.0945 21.2107 22.367 21.2061 22.6379C21.2046 22.7262 21.1317 22.7967 21.0434 22.7951C20.9551 22.7937 20.886 22.721 20.886 22.6324C20.8909 22.3485 20.9134 22.0628 20.953 21.7832C20.9655 21.6957 21.0464 21.6348 21.1339 21.6472C21.2109 21.6581 21.2673 21.7222 21.2712 21.7971C21.2718 21.8072 21.2714 21.8175 21.2699 21.828ZM21.258 24.4432C21.1719 24.4632 21.0859 24.4097 21.0659 24.3236C21.0105 24.0853 20.9672 23.8399 20.9373 23.5948C20.9325 23.5576 20.9283 23.5205 20.9243 23.4833C20.9126 23.3961 20.9788 23.3166 21.0669 23.3075C21.1548 23.2982 21.2334 23.362 21.2428 23.4499C21.2463 23.4848 21.2504 23.5197 21.2549 23.5552C21.2835 23.7898 21.3248 24.0239 21.3776 24.2512C21.3798 24.2605 21.3811 24.2699 21.3815 24.2791C21.3856 24.3552 21.3346 24.4254 21.258 24.4432Z" fill="url(#paint8_linear_99_307)"/>
</g>
<g opacity="0.3">
<path d="M34.7035 22.4883C34.7145 22.767 34.7086 23.0487 34.6861 23.3258C34.6788 23.4138 34.6017 23.4795 34.5135 23.4723C34.4254 23.4651 34.3607 23.3873 34.3671 23.2997C34.3887 23.0355 34.3942 22.7668 34.3837 22.5009C34.3801 22.4126 34.449 22.3382 34.5372 22.3347C34.6248 22.3313 34.6988 22.3989 34.7034 22.4861C34.7034 22.4868 34.7035 22.4876 34.7035 22.4883ZM34.4874 21.8377C34.4002 21.8517 34.318 21.7924 34.3041 21.7052C34.2618 21.4427 34.2032 21.1802 34.1298 20.9248C34.1058 20.8404 34.1545 20.7512 34.2396 20.7269C34.3245 20.7025 34.413 20.7516 34.4375 20.8365C34.5143 21.1041 34.5758 21.3792 34.62 21.6543C34.6209 21.6601 34.6215 21.6658 34.6218 21.6716C34.6261 21.7521 34.569 21.8246 34.4874 21.8377ZM34.5668 24.1556C34.5102 24.4288 34.4364 24.7009 34.3474 24.9643C34.3191 25.048 34.2282 25.093 34.1446 25.0647C34.0608 25.0365 34.0161 24.9459 34.0441 24.8619C34.129 24.6107 34.1994 24.3512 34.2536 24.0905C34.2716 24.004 34.3563 23.9484 34.4426 23.9664C34.5154 23.9815 34.5662 24.0437 34.57 24.1146C34.5707 24.128 34.5697 24.1417 34.5668 24.1556ZM34.0724 20.2562C33.9911 20.2908 33.8971 20.2529 33.8625 20.1716C33.7584 19.9271 33.6382 19.6865 33.5052 19.4566C33.4611 19.3801 33.4872 19.2822 33.5635 19.238C33.64 19.1937 33.7379 19.2198 33.7822 19.2963C33.9218 19.5374 34.0479 19.7898 34.157 20.0463C34.1645 20.064 34.1686 20.0824 34.1695 20.1005C34.1729 20.1658 34.1359 20.2292 34.0724 20.2562ZM34.0315 25.7398C33.9111 25.9908 33.774 26.2371 33.624 26.4719C33.5765 26.5464 33.4775 26.5682 33.403 26.5206C33.3285 26.4731 33.3065 26.3741 33.3542 26.2996C33.4974 26.0757 33.628 25.8408 33.7428 25.6014C33.781 25.5217 33.8766 25.4881 33.9564 25.5264C34.011 25.5525 34.044 25.6058 34.0469 25.6623C34.0483 25.6882 34.0435 25.7148 34.0315 25.7398ZM33.1316 27.1497C32.9542 27.365 32.7621 27.5714 32.5608 27.7632C32.4968 27.8241 32.3956 27.8217 32.3347 27.7577C32.2738 27.6939 32.2761 27.5925 32.3402 27.5315C32.5321 27.3485 32.7153 27.1516 32.8846 26.9461C32.9408 26.8779 33.0417 26.8682 33.1099 26.9244C33.1459 26.9541 33.1656 26.9963 33.1679 27.0396C33.1699 27.0781 33.158 27.1175 33.1316 27.1497ZM31.9199 28.3035C31.696 28.4702 31.4599 28.6246 31.2183 28.7623C31.1414 28.8061 31.0438 28.7793 31 28.7025C30.9562 28.6258 30.9832 28.5281 31.0597 28.4843C31.2902 28.353 31.5153 28.2058 31.7287 28.0468C31.7996 27.994 31.8999 28.0087 31.9526 28.0796C31.9723 28.1059 31.9825 28.1362 31.9841 28.1666C31.9868 28.2182 31.9645 28.2703 31.9199 28.3035Z" fill="url(#paint9_linear_99_307)"/>
<path d="M33.3467 18.6795C33.345 18.6487 33.3345 18.618 33.3145 18.5915C33.2319 18.4823 33.1457 18.375 33.0583 18.2726C33.0009 18.2054 32.8998 18.1973 32.8326 18.2547C32.7657 18.3122 32.7575 18.413 32.8147 18.4804C32.8981 18.578 32.9804 18.6804 33.0592 18.7846C33.1125 18.8551 33.213 18.869 33.2834 18.8157C33.3273 18.7824 33.3494 18.7308 33.3467 18.6795Z" fill="url(#paint10_linear_99_307)"/>
</g>
<path d="M30.3347 18.2223C30.3068 18.2019 30.269 18.2014 30.2406 18.2211L29.4305 18.7836C29.0066 18.6035 28.551 18.4897 28.0784 18.4534L27.6184 17.5818C27.6023 17.5512 27.5685 17.5342 27.5343 17.5395L26.3653 17.7205C26.3312 17.7257 26.3041 17.7521 26.298 17.7861L26.123 18.7561C25.6835 18.9335 25.2836 19.1797 24.934 19.4795L23.9917 19.1883C23.9587 19.178 23.9228 19.1899 23.9024 19.2178L23.2038 20.1724C23.1833 20.2002 23.1829 20.238 23.2026 20.2664L23.765 21.0765C23.5849 21.5004 23.4711 21.956 23.4349 22.4286L22.5632 22.8886C22.5327 22.9047 22.5157 22.9385 22.521 22.9726L22.7019 24.1416C22.7072 24.1758 22.7336 24.2028 22.7676 24.209L23.7375 24.384C23.9149 24.8235 24.1611 25.2235 24.4609 25.573L24.1697 26.5152C24.1595 26.5483 24.1713 26.5841 24.1992 26.6046L25.1538 27.3033C25.1817 27.3237 25.2195 27.3241 25.2478 27.3044L26.0579 26.742C26.4818 26.9221 26.9374 27.0359 27.41 27.0722L27.87 27.9438C27.8861 27.9744 27.9199 27.9913 27.9541 27.986L29.1231 27.8051C29.1573 27.7998 29.1843 27.7735 29.1905 27.7394L29.3654 26.7695C29.805 26.5921 30.2049 26.3459 30.5545 26.0461L31.4967 26.3374C31.5297 26.3476 31.5656 26.3357 31.586 26.3078L32.2847 25.3533C32.3051 25.3254 32.3056 25.2876 32.2859 25.2592L31.7234 24.4491C31.9036 24.0252 32.0174 23.5696 32.0536 23.097L32.9252 22.637C32.9558 22.6209 32.9728 22.5872 32.9675 22.553L32.7865 21.384C32.7812 21.3498 32.7549 21.3227 32.7209 21.3166L31.751 21.1416C31.5736 20.7021 31.3273 20.3022 31.0275 19.9526L31.3188 19.0104C31.329 18.9773 31.3171 18.9415 31.2892 18.9211L30.3347 18.2223Z" fill="url(#paint11_linear_99_307)"/>
<path opacity="0.56" d="M28.9494 22.876C28.9192 23.198 28.7653 23.4889 28.5163 23.6951C28.2674 23.9013 27.9529 23.9982 27.631 23.9679C26.9666 23.9054 26.4778 23.3149 26.5391 22.6495C26.6018 21.985 27.1932 21.4952 27.8575 21.5577C28.1794 21.588 28.4703 21.7418 28.6765 21.9908C28.8441 22.1932 28.9395 22.4389 28.9531 22.6966C28.9562 22.7559 28.955 22.8159 28.9494 22.876ZM27.6609 23.6493C27.8978 23.6716 28.129 23.6003 28.3123 23.4486C28.4954 23.2969 28.6085 23.0829 28.6308 22.8461C28.6527 22.6093 28.5817 22.3781 28.43 22.1948C28.2784 22.0117 28.0643 21.8986 27.8276 21.8763C27.3388 21.8304 26.9039 22.1906 26.8578 22.6794C26.8537 22.7235 26.8528 22.7671 26.8551 22.8101C26.8779 23.2436 27.2163 23.6075 27.6609 23.6493Z" fill="white"/>
<path opacity="0.56" d="M30.7381 22.6256C30.7328 22.5245 30.7222 22.4229 30.7066 22.3207C30.6752 22.1179 30.6232 21.9181 30.5518 21.7263C30.5485 21.7177 30.5453 21.7092 30.542 21.7006C30.5166 21.6341 30.4517 21.5944 30.3843 21.5979C30.3679 21.5988 30.3514 21.6022 30.3353 21.6084C30.2527 21.64 30.2119 21.7325 30.2432 21.815C30.3116 21.9934 30.361 22.18 30.3902 22.3695V22.3696C30.3919 22.38 30.3933 22.3905 30.3948 22.4009C30.4599 22.8501 30.4106 23.2985 30.2572 23.7132C30.1739 23.9383 30.0597 24.1535 29.9161 24.3535C29.9149 24.3551 29.9138 24.3567 29.9126 24.3584C29.909 24.3634 29.9055 24.3683 29.9018 24.3732C29.4767 24.9539 28.8509 25.3344 28.1397 25.4444C28.0476 25.4588 27.9556 25.4682 27.8639 25.473C27.2466 25.5054 26.6419 25.326 26.1362 24.956C25.5554 24.5308 25.1751 23.905 25.0651 23.1939C24.9553 22.4831 25.1285 21.7712 25.5535 21.1904C25.9786 20.6097 26.6044 20.2292 27.3156 20.1191C27.4061 20.1051 27.497 20.0958 27.5878 20.091C27.9817 20.0703 28.3756 20.136 28.7411 20.2848C28.7637 20.294 28.787 20.2977 28.8098 20.2964C28.8697 20.2933 28.9255 20.2563 28.9496 20.197C28.9827 20.115 28.9437 20.0218 28.8617 19.9884C28.4526 19.8219 28.0118 19.7483 27.5713 19.7713C27.4695 19.7767 27.3679 19.7871 27.2667 19.8028C26.4709 19.9259 25.7708 20.3516 25.2952 21.0014C24.8197 21.6511 24.625 22.4468 24.7488 23.2428C24.8719 24.0385 25.2974 24.7386 25.9473 25.2141C26.5129 25.6282 27.1895 25.8289 27.8801 25.7926C27.9827 25.7872 28.0857 25.7766 28.1886 25.7607C29.7291 25.5222 30.8183 24.1501 30.7381 22.6256Z" fill="white"/>
<path d="M97.6924 21.9672C97.8294 21.5445 97.3365 21.1971 96.9802 21.4628C93.363 24.1605 84.4653 32.459 84.5966 48.7435C84.7612 69.1749 79.7274 76.0511 73.9922 79.9425C73.9922 79.9425 81.4081 78.649 86.7712 71.7006C99.9388 54.6407 95.2571 29.4837 97.6924 21.9672Z" fill="url(#paint12_linear_99_307)"/>
<path d="M94.4897 27.9788C93.8258 30.1758 93.2056 32.3847 92.667 34.6131C92.1169 36.8383 91.6344 39.0792 91.2224 41.3319C90.8192 43.5859 90.4583 45.8472 90.1939 48.1205C89.9194 50.3924 89.7428 52.6736 89.5735 54.9646C89.3915 57.2533 89.2211 59.56 88.8141 61.8563C88.41 64.1481 87.7259 66.4285 86.6453 68.5163C86.3754 69.0366 86.0949 69.5539 85.7868 70.0496C85.4877 70.5512 85.1663 71.0397 84.8363 71.5223C84.1714 72.4843 83.4414 73.4038 82.6466 74.265C81.0523 75.9836 79.1975 77.4581 77.2026 78.6576C76.9926 78.7838 76.72 78.7159 76.5938 78.5059C76.4698 78.2998 76.533 78.0332 76.7341 77.9041L76.7356 77.9032C77.2125 77.5977 77.6854 77.2872 78.1428 76.9566C78.3742 76.7949 78.598 76.6233 78.8248 76.456C79.0451 76.2803 79.2723 76.1131 79.4868 75.9308C80.3573 75.2163 81.1765 74.4414 81.9344 73.6099C83.4567 71.9561 84.7396 70.0662 85.7754 68.0735C86.2822 67.071 86.7142 66.0329 87.0649 64.9652C87.4147 63.897 87.6831 62.8004 87.889 61.6876C88.3013 59.4607 88.4888 57.179 88.6873 54.8918C88.8888 52.6042 89.1069 50.3069 89.4193 48.0221C89.5724 46.8795 89.746 45.7397 89.9399 44.6036C90.0336 44.035 90.1383 43.4683 90.2419 42.9016C90.351 42.3358 90.4632 41.7707 90.5799 41.2067C91.0512 38.9512 91.5911 36.7112 92.201 34.4914C92.8216 32.2745 93.5007 30.0748 94.2635 27.905C94.2853 27.843 94.3532 27.8104 94.4152 27.8322C94.4755 27.8533 94.5079 27.9183 94.4897 27.9788Z" fill="white"/>
<path d="M82.3272 95.548C82.4693 96.3543 83.3887 96.7536 84.0806 96.3159C87.8988 93.9008 98.0765 86.0961 99.919 70.6091C101.475 57.531 103.562 50.5873 104.727 47.5008C104.974 46.8481 104.244 46.2601 103.658 46.6389C97.1933 50.8173 77.181 66.3285 82.3272 95.548Z" fill="url(#paint13_linear_99_307)"/>
<path d="M83.4181 95.7454C83.4329 95.7593 83.4491 95.772 83.4669 95.7833C83.6159 95.878 83.8134 95.834 83.9081 95.685C84.0155 95.5161 94.677 78.5864 97.6619 60.4999C97.6905 60.3258 97.5727 60.1613 97.3985 60.1324C97.2243 60.1037 97.0598 60.2215 97.031 60.3958C94.0678 78.3506 83.4752 95.1743 83.3686 95.3421C83.2851 95.4733 83.3093 95.6422 83.4181 95.7454Z" fill="white"/>
<path d="M27.8789 30.6441C27.8789 27.6129 30.3363 25.1555 33.3675 25.1555H80.0431C82.6182 25.1555 84.7415 27.1735 84.8724 29.7452L88.3178 97.4161C88.4202 99.4286 86.836 101.126 84.8213 101.163L31.3252 102.135C29.4321 102.169 27.8789 100.644 27.8789 98.7508V30.6441Z" fill="url(#paint14_linear_99_307)"/>
<path d="M39.1439 100.985C39.1433 100.985 39.1427 100.985 39.1422 100.985L33.1563 100.907C31.1547 100.881 29.5264 99.2317 29.5264 97.2301V88.1925C29.5264 88.1218 29.5836 88.0647 29.6542 88.0647C29.7247 88.0647 29.782 88.1218 29.782 88.1925V97.2301C29.782 99.0926 31.2971 100.627 33.1596 100.652L39.1455 100.729C39.216 100.73 39.2725 100.788 39.2716 100.858C39.2707 100.928 39.2136 100.985 39.1439 100.985Z" fill="url(#paint15_linear_99_307)"/>
<path d="M29.6542 85.5208C29.5836 85.5208 29.5264 85.4637 29.5264 85.393V83.9294C29.5264 83.8588 29.5836 83.8016 29.6542 83.8016C29.7247 83.8016 29.782 83.8588 29.782 83.9294V85.393C29.782 85.4637 29.7247 85.5208 29.6542 85.5208Z" fill="url(#paint16_linear_99_307)"/>
<path d="M31.7029 26.1971C31.6972 25.2273 32.5501 24.4767 33.5112 24.607C39.8852 25.4714 61.8036 28.1447 79.9255 26.7536C80.7519 26.6902 81.4691 27.3163 81.5131 28.1441L85.1257 96.1166C85.1752 97.0486 84.4635 97.8456 83.5318 97.9007C75.9101 98.3518 44.5214 100.095 33.3256 98.9227C32.6441 98.8513 32.1269 98.2777 32.1229 97.5925L31.7029 26.1971Z" fill="#AEEFEB"/>
<path opacity="0.6" d="M32.4536 27.9005C32.4481 26.9672 33.2689 26.2448 34.1938 26.3703C40.3277 27.2021 61.4208 29.7748 78.8603 28.436C79.6556 28.375 80.3458 28.9776 80.3881 29.7741L83.8647 95.187C83.9124 96.0839 83.2275 96.851 82.3308 96.904C74.9961 97.3381 44.7894 99.016 34.0151 97.8875C33.3594 97.8188 32.8616 97.2667 32.8578 96.6074L32.4536 27.9005Z" fill="#AEEFEB"/>
<path opacity="0.78" d="M38.1321 32.9437L38.7836 46.9676C38.8053 47.4341 39.1821 47.8049 39.6488 47.8181C42.246 47.8913 50.3391 48.0888 54.9088 47.8505C55.4257 47.8236 55.8346 47.4054 55.8518 46.888C55.9389 44.258 56.1296 36.6032 55.5303 33.4033C55.4335 32.8864 54.9892 32.5076 54.4636 32.4892L39.1122 31.9524C38.5586 31.9331 38.1064 32.3905 38.1321 32.9437Z" fill="white"/>
<g opacity="0.6">
<path d="M76.5904 34.1645C76.8629 34.1645 77.0797 33.9528 77.0721 33.694C77.0646 33.4353 76.8355 33.2196 76.563 33.2147L59.6261 32.9129C59.3536 32.9081 59.2048 33.1144 59.2953 33.3714L59.41 33.6971C59.5006 33.9542 59.7976 34.1645 60.0701 34.1645L76.5904 34.1645Z" fill="white"/>
</g>
<g opacity="0.6">
<path d="M59.6261 35.5273C59.3536 35.5225 59.2048 35.7288 59.2953 35.9858L59.41 36.3115C59.5006 36.5686 59.7976 36.7788 60.0701 36.7788H76.5904C76.8629 36.7788 77.0797 36.5671 77.0722 36.3084C77.0646 36.0496 76.8355 35.8339 76.563 35.8291L59.6261 35.5273Z" fill="white"/>
</g>
<g opacity="0.6">
<path d="M59.6261 38.1798C59.3536 38.1749 59.2048 38.3812 59.2953 38.6383L59.41 38.964C59.5006 39.2211 59.7976 39.4314 60.0701 39.4314H76.5904C76.8629 39.4314 77.0797 39.2197 77.0722 38.9609C77.0646 38.7021 76.8355 38.4865 76.563 38.4816L59.6261 38.1798Z" fill="white"/>
</g>
<g opacity="0.6">
<path d="M59.6261 41.1984C59.3536 41.1936 59.2048 41.3999 59.2953 41.657L59.41 41.9827C59.5006 42.2397 59.7976 42.45 60.0701 42.45H76.5904C76.8629 42.45 77.0797 42.2383 77.0722 41.9796C77.0646 41.7208 76.8355 41.5051 76.563 41.5003L59.6261 41.1984Z" fill="white"/>
</g>
<g opacity="0.6">
<path d="M59.6261 44.1768C59.3536 44.172 59.2048 44.3783 59.2953 44.6354L59.41 44.9611C59.5006 45.2181 59.7976 45.4284 60.0701 45.4284H76.5904C76.8629 45.4284 77.0797 45.2167 77.0722 44.9579C77.0646 44.6992 76.8355 44.4835 76.563 44.4787L59.6261 44.1768Z" fill="white"/>
</g>
<g opacity="0.6">
<path d="M78.2257 52.2224C78.4982 52.2224 78.7072 52.0107 78.6901 51.752C78.673 51.4932 78.436 51.2798 78.1636 51.2776L38.623 50.966C38.3505 50.9638 38.2664 51.1365 38.4361 51.3497L38.8225 51.8348C38.9922 52.048 39.3541 52.2225 39.6266 52.2225L78.2257 52.2224Z" fill="white"/>
</g>
<g opacity="0.6">
<path d="M38.623 53.5803C38.3505 53.5782 38.2664 53.7509 38.4361 53.9641L38.8225 54.4492C38.9922 54.6624 39.3541 54.8369 39.6266 54.8369H78.2257C78.4982 54.8369 78.7072 54.6252 78.6901 54.3664C78.673 54.1076 78.4361 53.8942 78.1636 53.892L38.623 53.5803Z" fill="white"/>
</g>
<path opacity="0.6" d="M38.4964 57.9458C39.4446 57.8731 41.2203 57.8395 42.1978 57.8258C42.612 57.82 42.9752 58.1005 43.0724 58.5032C43.261 59.2853 43.5212 60.6433 43.4885 62.0821C43.4787 62.513 43.1257 62.857 42.6947 62.8523L39.0876 62.8135C38.644 62.8088 38.2758 62.4696 38.2345 62.0279L37.9173 58.6346C37.8845 58.2836 38.1449 57.9727 38.4964 57.9458Z" fill="white"/>
<g opacity="0.6">
<path d="M45.1156 59.3371C44.8433 59.3257 44.6537 59.5369 44.6942 59.8064L44.7968 60.4898C44.8373 60.7593 45.0933 60.9798 45.3658 60.9798H54.2291C54.5017 60.9798 54.7219 60.7568 54.7185 60.4843L54.7153 60.2335C54.7119 59.961 54.4864 59.7288 54.2141 59.7174L45.1156 59.3371Z" fill="white"/>
</g>
<path opacity="0.6" d="M58.1475 57.9458C59.0957 57.8731 60.8714 57.8395 61.8489 57.8258C62.2631 57.82 62.6263 58.1005 62.7235 58.5032C62.9121 59.2853 63.1724 60.6433 63.1396 62.0821C63.1298 62.513 62.7768 62.857 62.3458 62.8523L58.7387 62.8135C58.2951 62.8088 57.9268 62.4696 57.8856 62.0279L57.5685 58.6346C57.5357 58.2836 57.796 57.9727 58.1475 57.9458Z" fill="white"/>
<g opacity="0.6">
<path d="M64.7665 59.3371C64.4942 59.3257 64.3046 59.5369 64.345 59.8064L64.4477 60.4898C64.4881 60.7593 64.7442 60.9798 65.0167 60.9798H73.8801C74.1526 60.9798 74.3728 60.7568 74.3694 60.4843L74.3663 60.2335C74.3629 59.961 74.1373 59.7288 73.865 59.7174L64.7665 59.3371Z" fill="white"/>
</g>
<path d="M43.5859 71.4091C43.5828 71.4091 43.5798 71.4091 43.5768 71.4091L40.2483 71.3771C39.7727 71.3725 39.3802 71.0453 39.3351 70.6161L39.0426 67.8234C39.0254 67.6594 39.0763 67.4974 39.1859 67.367C39.3086 67.2211 39.4942 67.1295 39.6952 67.1157C39.9756 67.0966 40.3705 67.0629 40.7886 67.0273C41.6689 66.9523 42.7646 66.8591 43.381 66.8513C43.8283 66.8491 44.2077 67.1138 44.3131 67.5033C44.4865 68.1444 44.4712 69.3579 44.4382 70.6507C44.4275 71.0706 44.046 71.4091 43.5859 71.4091ZM39.7126 67.3708C39.5804 67.3798 39.4598 67.4384 39.3815 67.5315C39.3169 67.6083 39.2868 67.7025 39.2967 67.7967L39.5893 70.5894C39.6207 70.8895 39.9051 71.1182 40.2507 71.1216L43.5792 71.1535C43.5814 71.1535 43.5836 71.1535 43.5859 71.1535C43.9084 71.1535 44.1755 70.9263 44.1827 70.6442C44.2152 69.371 44.2307 68.178 44.0663 67.57C43.9926 67.2975 43.7091 67.108 43.3842 67.1069C42.7769 67.1146 41.6865 67.2074 40.8102 67.282C40.3911 67.3177 39.9951 67.3514 39.7126 67.3708Z" fill="white"/>
<path opacity="0.6" d="M40.0706 67.6591C40.7698 67.6113 42.2896 67.457 43.0104 67.4481C43.3158 67.4442 43.5837 67.6288 43.6553 67.8936C43.7944 68.408 43.776 69.4332 43.7518 70.3795C43.7446 70.6629 43.4843 70.8891 43.1665 70.886L40.5066 70.8605C40.1795 70.8573 39.9079 70.6343 39.8775 70.3438L39.6437 68.1121C39.6195 67.8812 39.8114 67.6768 40.0706 67.6591Z" fill="white"/>
<g opacity="0.6">
<path d="M46.5095 69.5547C46.6058 69.9201 46.9378 70.1736 47.3156 70.1704L78.1123 69.9078C78.4607 69.9048 78.7394 69.6175 78.7318 69.2692C78.7244 68.9306 78.4485 68.6595 78.1098 68.6579L47.3123 68.5175C46.7687 68.515 46.3708 69.0291 46.5095 69.5547Z" fill="white"/>
</g>
<path d="M40.2124 68.097C40.4595 67.952 40.7775 68.0385 40.9171 68.2888L41.5736 69.4656C41.6393 69.5835 41.8112 69.576 41.8665 69.4529L43.4948 65.8277C43.5761 65.6469 43.8454 65.708 43.8424 65.9063C43.8258 67.0151 43.5316 69.1229 41.7598 70.8873C41.7598 70.8873 40.7834 70.5078 39.9971 68.7811C39.8835 68.5317 39.976 68.2357 40.2124 68.097Z" fill="url(#paint17_linear_99_307)"/>
<path d="M43.5859 78.5429C43.5828 78.5429 43.5798 78.5429 43.5768 78.5429L40.2483 78.5109C39.7727 78.5063 39.3802 78.1791 39.3351 77.7499L39.0426 74.9572C39.0254 74.7932 39.0763 74.6312 39.1859 74.5008C39.3086 74.3549 39.4942 74.2633 39.6952 74.2494C39.9756 74.2303 40.3705 74.1967 40.7886 74.1611C41.6689 74.0861 42.7646 73.9929 43.381 73.9851C43.3855 73.9851 43.39 73.985 43.3944 73.985C43.8322 73.985 44.2088 74.2515 44.3131 74.6371C44.4865 75.2781 44.4712 76.4917 44.4382 77.7845C44.4275 78.2045 44.046 78.5429 43.5859 78.5429ZM39.7126 74.5046C39.5804 74.5136 39.4598 74.5722 39.3815 74.6653C39.3169 74.7421 39.2868 74.8363 39.2967 74.9305L39.5893 77.7233C39.6207 78.0233 39.9051 78.252 40.2507 78.2554L43.5792 78.2873C43.5814 78.2873 43.5836 78.2873 43.5859 78.2873C43.9084 78.2873 44.1755 78.0601 44.1827 77.7781C44.2152 76.5049 44.2307 75.3118 44.0663 74.7038C43.9925 74.4315 43.705 74.2357 43.3841 74.2408C42.7769 74.2484 41.6865 74.3413 40.8103 74.4159C40.3911 74.4515 39.9951 74.4852 39.7126 74.5046Z" fill="white"/>
<path opacity="0.6" d="M40.0706 74.7929C40.7698 74.7451 42.2896 74.5908 43.0104 74.5818C43.3158 74.5781 43.5837 74.7626 43.6553 75.0274C43.7944 75.5417 43.776 76.567 43.7518 77.5133C43.7446 77.7967 43.4843 78.0229 43.1665 78.0198L40.5066 77.9943C40.1795 77.9911 39.9079 77.7681 39.8775 77.4776L39.6437 75.2459C39.6195 75.0151 39.8114 74.8106 40.0706 74.7929Z" fill="white"/>
<g opacity="0.6">
<path d="M46.5095 76.6886C46.6058 77.054 46.9378 77.3075 47.3156 77.3043L78.1123 77.0417C78.4607 77.0387 78.7394 76.7514 78.7318 76.4031C78.7244 76.0645 78.4485 75.7934 78.1098 75.7919L47.3123 75.6514C46.7687 75.6489 46.3708 76.1629 46.5095 76.6886Z" fill="white"/>
</g>
<path d="M40.2124 75.2308C40.4595 75.0858 40.7775 75.1724 40.9171 75.4226L41.5736 76.5995C41.6393 76.7173 41.8112 76.7098 41.8665 76.5867L43.4948 72.9615C43.5761 72.7807 43.8454 72.8418 43.8424 73.04C43.8258 74.1489 43.5316 76.2567 41.7598 78.0211C41.7598 78.0211 40.7834 77.6415 39.9971 75.9149C39.8835 75.6655 39.976 75.3695 40.2124 75.2308Z" fill="url(#paint18_linear_99_307)"/>
<path d="M43.5859 85.6767C43.5828 85.6767 43.5798 85.6767 43.5768 85.6767L40.2483 85.6448C39.7727 85.6403 39.3802 85.3132 39.3351 84.8839L39.0426 82.0912C39.0254 81.9272 39.0763 81.7651 39.186 81.6347C39.3086 81.4888 39.4942 81.3972 39.6952 81.3833C39.9756 81.3642 40.3705 81.3305 40.7886 81.295C41.6689 81.22 42.7646 81.1268 43.381 81.119C43.3855 81.119 43.39 81.1189 43.3944 81.1189C43.8322 81.1189 44.2088 81.3854 44.3131 81.771C44.4865 82.412 44.4712 83.6256 44.4382 84.9184C44.4275 85.3383 44.046 85.6767 43.5859 85.6767ZM39.7126 81.6384C39.5804 81.6474 39.4598 81.706 39.3815 81.7991C39.3169 81.8759 39.2868 81.9701 39.2967 82.0644L39.5893 84.8571C39.6207 85.1571 39.9051 85.3859 40.2507 85.3891L43.5792 85.4211C43.5814 85.4211 43.5836 85.4211 43.5859 85.4211C43.9084 85.4211 44.1755 85.1938 44.1827 84.9118C44.2152 83.6386 44.2307 82.4455 44.0663 81.8375C43.9925 81.5652 43.705 81.3684 43.3841 81.3745C42.7769 81.3821 41.6865 81.475 40.8103 81.5496C40.3911 81.5854 39.9951 81.619 39.7126 81.6384Z" fill="white"/>
<path opacity="0.6" d="M40.0706 81.9267C40.7698 81.8789 42.2896 81.7246 43.0104 81.7156C43.3158 81.7118 43.5837 81.8963 43.6553 82.1612C43.7944 82.6755 43.776 83.7008 43.7518 84.6471C43.7446 84.9305 43.4843 85.1567 43.1665 85.1536L40.5066 85.1281C40.1795 85.1249 39.9079 84.9019 39.8775 84.6114L39.6437 82.3797C39.6195 82.1489 39.8114 81.9444 40.0706 81.9267Z" fill="white"/>
<g opacity="0.6">
<path d="M46.5095 83.8224C46.6058 84.1878 46.9378 84.4413 47.3156 84.4381L78.1123 84.1755C78.4607 84.1725 78.7394 83.8852 78.7318 83.5369C78.7244 83.1983 78.4485 82.9272 78.1098 82.9256L47.3123 82.7852C46.7687 82.7827 46.3708 83.2967 46.5095 83.8224Z" fill="white"/>
</g>
<path d="M40.2124 82.3646C40.4595 82.2196 40.7775 82.3061 40.9171 82.5564L41.5736 83.7332C41.6393 83.851 41.8112 83.8436 41.8665 83.7205L43.4948 80.0953C43.5761 79.9145 43.8454 79.9756 43.8424 80.1738C43.8258 81.2827 43.5316 83.3905 41.7598 85.1549C41.7598 85.1549 40.7834 84.7753 39.9971 83.0487C39.8835 82.7992 39.976 82.5033 40.2124 82.3646Z" fill="url(#paint19_linear_99_307)"/>
<path d="M43.5859 92.8106C43.5828 92.8106 43.5798 92.8106 43.5768 92.8106L40.2483 92.7786C39.7727 92.7741 39.3802 92.447 39.3351 92.0177L39.0426 89.225C39.0254 89.061 39.0763 88.8989 39.186 88.7685C39.3086 88.6226 39.4942 88.531 39.6952 88.5171C39.9756 88.498 40.3705 88.4643 40.7886 88.4288C41.6689 88.3538 42.7646 88.2605 43.381 88.2528C43.3855 88.2528 43.39 88.2527 43.3944 88.2527C43.8322 88.2527 44.2088 88.5192 44.3131 88.9048C44.4865 89.5458 44.4712 90.7594 44.4382 92.0522C44.4275 92.4721 44.046 92.8106 43.5859 92.8106ZM39.7126 88.7722C39.5804 88.7812 39.4598 88.8398 39.3815 88.933C39.3169 89.0097 39.2868 89.1039 39.2967 89.1983L39.5893 91.991C39.6207 92.291 39.9051 92.5198 40.2507 92.523L43.5792 92.555C43.5814 92.555 43.5836 92.555 43.5859 92.555C43.9084 92.555 44.1755 92.3277 44.1827 92.0457C44.2152 90.7725 44.2307 89.5794 44.0663 88.9714C43.9925 88.6991 43.705 88.5014 43.3841 88.5084C42.7769 88.516 41.6865 88.6088 40.8103 88.6835C40.3911 88.7192 39.9951 88.7529 39.7126 88.7722Z" fill="white"/>
<path opacity="0.6" d="M40.0706 89.0605C40.7698 89.0127 42.2896 88.8584 43.0104 88.8494C43.3158 88.8456 43.5837 89.0301 43.6553 89.295C43.7944 89.8093 43.776 90.8346 43.7518 91.7808C43.7446 92.0643 43.4843 92.2905 43.1665 92.2874L40.5066 92.2619C40.1795 92.2587 39.9079 92.0357 39.8775 91.7452L39.6437 89.5135C39.6195 89.2827 39.8114 89.0782 40.0706 89.0605Z" fill="white"/>
<g opacity="0.6">
<path d="M46.5095 90.9562C46.6058 91.3216 46.9378 91.5751 47.3156 91.5719L78.1123 91.3093C78.4607 91.3063 78.7394 91.019 78.7318 90.6707C78.7244 90.3321 78.4485 90.0609 78.1098 90.0594L47.3123 89.919C46.7687 89.9165 46.3708 90.4305 46.5095 90.9562Z" fill="white"/>
</g>
<path d="M40.2124 89.4984C40.4595 89.3534 40.7775 89.4399 40.9171 89.6902L41.5736 90.867C41.6393 90.9848 41.8112 90.9774 41.8665 90.8543L43.4948 87.2291C43.5761 87.0483 43.8454 87.1094 43.8424 87.3076C43.8258 88.4165 43.5316 90.5243 41.7598 92.2886C41.7598 92.2886 40.7834 91.9091 39.9971 90.1825C39.8835 89.9331 39.976 89.6371 40.2124 89.4984Z" fill="url(#paint20_linear_99_307)"/>
<path d="M59.6002 15.929C57.9142 14.756 56.4482 14.7793 55.4163 15.0838C54.4749 15.3616 53.8647 16.2705 53.9542 17.2479L54.3993 22.1056L59.6952 22.5756C59.6952 22.5756 62.9067 18.2292 59.6002 15.929ZM57.2713 19.8479C56.542 19.8479 55.9508 19.2567 55.9508 18.5274C55.9508 17.7981 56.542 17.2069 57.2713 17.2069C58.0006 17.2069 58.5918 17.7981 58.5918 18.5274C58.5918 19.2568 58.0006 19.8479 57.2713 19.8479Z" fill="url(#paint21_linear_99_307)"/>
<path d="M54.9282 20.0622C54.8628 20.0622 54.8071 20.0124 54.801 19.946L54.7301 19.1723C54.7237 19.1021 54.7755 19.0399 54.8457 19.0334C54.9174 19.0267 54.9782 19.0787 54.9846 19.1491L55.0555 19.9228C55.062 19.993 55.0102 20.0552 54.9399 20.0616C54.936 20.062 54.932 20.0622 54.9282 20.0622ZM54.7893 18.5461C54.7239 18.5461 54.6682 18.4963 54.6622 18.4299L54.6083 17.8426C54.523 16.9115 55.1089 16.0446 56.0014 15.7811C56.6335 15.5945 57.2848 15.5678 57.937 15.7016C58.0061 15.7157 58.0507 15.7833 58.0365 15.8525C58.0223 15.9215 57.9553 15.9657 57.8857 15.9519C57.2747 15.8269 56.6652 15.8517 56.0737 16.0262C55.2979 16.2552 54.7886 17.0094 54.8628 17.8194L54.9167 18.4067C54.9232 18.477 54.8714 18.5391 54.8011 18.5456C54.7971 18.546 54.7932 18.5461 54.7893 18.5461Z" fill="white"/>
<path d="M47.1714 25.2449V22.8026C47.1714 21.9595 47.8701 21.2843 48.7128 21.3131L65.5514 21.8901C66.2987 21.9157 66.9038 22.5055 66.9486 23.2519L67.0893 25.5986L47.1714 25.2449Z" fill="url(#paint22_linear_99_307)"/>
<path d="M53.4501 22.2334H52.7259C52.6554 22.2334 52.5981 22.1762 52.5981 22.1056C52.5981 22.0349 52.6554 21.9778 52.7259 21.9778H53.4501C53.5207 21.9778 53.5779 22.0349 53.5779 22.1056C53.5779 22.1762 53.5207 22.2334 53.4501 22.2334Z" fill="white"/>
<path d="M48.0826 24.478C48.0121 24.478 47.9548 24.4208 47.9548 24.3502V23.3621C47.9548 22.5988 48.5759 21.9778 49.3393 21.9778H52.0016C52.0722 21.9778 52.1294 22.0349 52.1294 22.1056C52.1294 22.1762 52.0722 22.2334 52.0016 22.2334H49.3393C48.7169 22.2334 48.2104 22.7398 48.2104 23.3622V24.3502C48.2104 24.4208 48.1532 24.478 48.0826 24.478Z" fill="white"/>
<path d="M40.3103 25.8616C40.351 25.0159 41.0485 24.3511 41.8952 24.351L71.3407 24.3502C72.3995 24.3502 73.3047 25.1121 73.4853 26.1554L73.5102 26.2994C73.708 27.4421 72.8282 28.4872 71.6685 28.4872H41.4591C40.7651 28.4872 40.212 27.9069 40.2453 27.2137L40.3103 25.8616Z" fill="white"/>
<path d="M27.3984 57.7761C27.3984 57.7761 26.3488 58.2867 26.1558 58.8731C26.001 59.3437 24.8405 59.4043 24.7258 60.3297C24.6667 60.8076 24.3131 61.1902 23.8371 61.2631C22.6519 61.4448 20.8252 62.0603 20.533 64.1183C20.3099 65.689 21.1106 66.2847 21.951 66.4909C22.5682 66.6423 22.9784 67.2426 22.8536 67.8658C22.7338 68.4635 22.9124 69.1545 23.9479 69.7009C26.2683 70.9252 28.5856 66.8001 28.5856 66.8001L29.0606 59.5974L27.3984 57.7761Z" fill="url(#paint23_linear_99_307)"/>
<path d="M38.3212 53.9777C38.3212 53.9777 35.3354 62.1173 30.2478 64.6612C30.2478 64.6612 31.9412 67.4241 32.8249 67.5916C32.8249 67.5916 38.2597 60.6356 38.8138 54.9368L38.3212 53.9777Z" fill="url(#paint24_linear_99_307)"/>
<path d="M17.8604 102.94L17.7103 104.174C17.6818 104.408 17.4974 104.594 17.263 104.62C16.8673 104.666 16.2323 104.712 15.611 104.646C15.3382 104.617 15.1612 104.341 15.2443 104.08C15.3958 103.603 15.6728 102.888 16.0723 102.467H17.4417C17.6949 102.467 17.891 102.689 17.8604 102.94Z" fill="url(#paint25_linear_99_307)"/>
<path d="M28.5857 88.4795L28.8169 89.8391C28.8169 89.8391 28.0429 97.679 27.9052 100.815C27.8836 101.307 28.0109 101.792 28.2689 102.211L29.6147 104.397L26.1943 102.379L26.1262 101.961L26.6861 101.191L25.9527 92.4087C25.9096 91.8928 26.0161 91.3754 26.2594 90.9184L26.9669 89.5893L28.5857 88.4795Z" fill="url(#paint26_linear_99_307)"/>
<path d="M29.8399 104.714H28.7484C28.5441 104.714 28.3514 104.62 28.2268 104.458C27.8865 104.016 27.1815 103.153 26.8444 103.131C26.3905 103.1 26.4486 104.714 26.4486 104.714H26.1942L25.872 102.709C25.791 102.204 26.0418 101.705 26.4947 101.468C26.4947 101.468 26.5985 102.236 27.161 102.575C27.7235 102.914 29.45 104.13 29.45 104.13C29.45 104.13 29.6614 104.099 29.8936 104.141C30.238 104.204 30.1899 104.714 29.8399 104.714Z" fill="url(#paint27_linear_99_307)"/>
<path d="M23.9007 89.1252C23.9007 89.1252 19.3664 97.7263 18.6457 99.69C17.9249 101.654 17.6724 103.292 17.6627 103.447C17.6476 103.69 17.3461 103.922 16.515 103.922C16.0861 103.922 15.8761 103.75 15.7733 103.584C15.6855 103.442 15.6809 103.264 15.7549 103.114C16.0172 102.584 16.8495 100.887 17.1578 100.118C17.5259 99.1993 18.3176 95.0364 18.7518 93.5889C19.186 92.1415 19.6768 90.5714 21.5675 89.1252C21.5675 89.1252 22.8656 87.8539 23.9007 89.1252Z" fill="url(#paint28_linear_99_307)"/>
<path d="M26.7651 75.0319C27.9347 70.0757 24.9717 67.2725 24.9717 67.2725C26.8413 65.4779 30.2477 64.6613 30.2477 64.6613C30.2477 64.6613 33.4981 67.0376 33.1126 68.8977C32.8866 69.9879 30.8278 75.4276 30.8278 75.4276C30.8278 75.4276 28.9241 76.3286 26.7651 75.0319Z" fill="url(#paint29_linear_99_307)"/>
<path d="M24.1718 77.4856C24.6478 76.0516 26.7651 75.0319 26.7651 75.0319C28.9241 76.3286 30.8278 75.4276 30.8278 75.4276C30.8278 75.4276 31.2548 77.0595 30.9601 78.5761C30.6654 80.0926 28.8167 89.839 28.8167 89.839C25.9037 90.4293 21.4236 89.2452 21.4236 89.2452C23.2791 85.951 23.6958 78.9196 24.1718 77.4856Z" fill="url(#paint30_linear_99_307)"/>
<path d="M28.1227 61.386L27.1718 65.6575C27.0808 66.0337 27.4237 65.9721 27.8041 65.9004C28.427 65.783 29.2299 65.5411 29.4983 65.0564C29.5256 65.007 29.5393 64.9513 29.547 64.8954L29.9555 61.9335C29.9879 61.6985 29.8609 61.4704 29.644 61.3743L28.8557 61.0247C28.5522 60.8901 28.2008 61.0633 28.1227 61.386Z" fill="url(#paint31_linear_99_307)"/>
<path d="M29.2384 57.3191C29.2384 57.3191 30.3646 57.7947 31.1304 59.4221C31.8962 61.0495 31.3243 61.801 30.606 61.9041C29.8877 62.0072 28.8134 61.9915 27.6772 60.9402C26.5409 59.889 27.7744 56.7554 29.2384 57.3191Z" fill="url(#paint32_linear_99_307)"/>
<path d="M28.4411 60.0714C28.4411 60.0714 27.5914 57.6904 29.7024 57.6622L30.1991 58.0094C30.1991 58.0094 30.9736 56.6893 29.7024 56.0591C28.4311 55.429 26.9432 55.9495 26.4022 57.6622C25.8612 59.3749 25.7688 60.5214 26.6689 61.3409C27.5689 62.1603 27.9398 61.2312 27.9398 61.2312C27.9398 61.2312 27.4497 60.4648 27.6492 60.0547C27.8488 59.6447 28.309 60.1395 28.309 60.1395L28.4411 60.0714Z" fill="url(#paint33_linear_99_307)"/>
<path d="M28.2042 60.3366C28.2042 60.3366 27.7746 59.1101 27.2016 59.5986C26.6284 60.087 27.6674 60.7315 28.0741 60.9403L28.2042 60.3366Z" fill="url(#paint34_linear_99_307)"/>
<path d="M38.6077 55.4592C38.6533 55.604 38.1258 55.8245 37.8151 55.2322C37.8043 54.9484 37.6317 53.7323 37.8013 53.501C38.7047 52.2694 39.6587 52.1896 39.6587 52.1896C39.8364 52.5107 40.0532 52.7818 40.1548 53.1703C40.2317 53.4645 40.1847 53.7789 40.0361 54.0466C39.8869 54.3153 39.6835 54.6646 39.4911 54.9379C39.127 55.4553 38.6077 55.4592 38.6077 55.4592Z" fill="url(#paint35_linear_99_307)"/>
<path d="M24.446 68.5918C24.446 68.5918 33.1444 79.2133 39.6432 67.1195C39.6432 67.1195 39.7679 66.8104 39.6899 66.364C39.6506 66.1386 39.7996 65.3393 39.8815 64.9309C39.9078 64.7996 39.8145 64.6755 39.6812 64.6627C39.5768 64.6526 39.4744 64.6965 39.4096 64.779L38.2225 66.2906C38.134 66.59 38.2767 66.9091 38.5586 67.0429C38.7385 67.1283 38.7953 67.3568 38.6745 67.515C33.7322 73.9936 25.4658 66.8845 25.3146 66.968C24.7778 67.2642 24.1577 67.5917 24.446 68.5918Z" fill="url(#paint36_linear_99_307)"/>
<path d="M36.5648 61.7833C36.5786 61.6129 36.7526 61.4654 37.0473 61.3472C36.727 61.1706 36.5499 60.9813 36.5648 60.7957C36.6101 60.2339 38.3891 59.919 40.5384 60.0922C42.6876 60.2656 44.3932 60.8614 44.3479 61.4231C44.3341 61.5936 44.1601 61.741 43.8654 61.8593C44.1856 62.0359 44.3628 62.2252 44.3479 62.4108C44.3341 62.5812 44.1601 62.7287 43.8654 62.8469C44.1856 63.0235 44.3628 63.2129 44.3479 63.3985C44.3341 63.5689 44.1601 63.7164 43.8654 63.8346C44.1856 64.0112 44.3628 64.2005 44.3479 64.3861C44.3278 64.6346 43.9683 64.8346 43.388 64.9656C43.3955 65.1492 43.3913 65.3505 43.3732 65.5726C43.2892 66.6078 42.1248 67.4194 40.5848 67.4194C39.0448 67.4194 37.712 66.3128 37.6968 65.2743C37.6931 65.0199 37.7039 64.7959 37.727 64.5968C36.9901 64.3507 36.5414 64.0501 36.5649 63.7586C36.5786 63.5882 36.7527 63.4407 37.0474 63.3225C36.7271 63.1459 36.5499 62.9566 36.5649 62.771C36.5786 62.6006 36.7527 62.4531 37.0474 62.3349C36.727 62.1582 36.5499 61.9689 36.5648 61.7833Z" fill="url(#paint37_linear_99_307)"/>
<path d="M41.533 65.1891C42.1713 65.1891 42.7553 65.1421 43.2379 65.0497C43.2659 65.0444 43.2842 65.0173 43.2789 64.9893C43.2735 64.9613 43.2466 64.943 43.2185 64.9483C42.4634 65.0929 41.4549 65.1247 40.3786 65.038C39.498 64.967 38.6744 64.8249 37.997 64.6272C37.9696 64.6192 37.9409 64.6349 37.933 64.6623C37.925 64.6896 37.9407 64.7183 37.9681 64.7263C38.6522 64.9259 39.4828 65.0693 40.3703 65.1408C40.77 65.1731 41.1607 65.1891 41.533 65.1891Z" fill="url(#paint38_linear_99_307)"/>
<path d="M41.5222 64.2005C42.3515 64.2005 43.0927 64.1225 43.6154 63.9736C43.6429 63.9658 43.6587 63.9372 43.6509 63.9098C43.6431 63.8824 43.6146 63.8665 43.5872 63.8743C42.8422 64.0864 41.6428 64.1522 40.3786 64.0503C39.1281 63.9494 37.9618 63.6957 37.2588 63.3714C37.2329 63.3595 37.2023 63.3708 37.1903 63.3967C37.1784 63.4226 37.1897 63.4533 37.2155 63.4652C37.929 63.7942 39.1083 64.0514 40.3703 64.1532C40.7641 64.1849 41.152 64.2005 41.5222 64.2005Z" fill="url(#paint39_linear_99_307)"/>
<path d="M41.5329 63.2137C42.4283 63.2137 43.2119 63.122 43.7393 62.9481C43.7664 62.9392 43.7811 62.91 43.7721 62.883C43.7632 62.8559 43.7341 62.8411 43.707 62.8501C42.973 63.0921 41.7288 63.1716 40.3786 63.0627C39.1282 62.9619 37.9619 62.7081 37.2588 62.3839C37.2329 62.372 37.2023 62.3833 37.1903 62.4091C37.1784 62.435 37.1897 62.4657 37.2155 62.4776C37.929 62.8067 39.1084 63.0639 40.3703 63.1656C40.7702 63.1979 41.1612 63.2137 41.5329 63.2137Z" fill="url(#paint40_linear_99_307)"/>
<path d="M41.5258 62.2255C42.2361 62.2255 42.8822 62.1681 43.3844 62.0565C43.4122 62.0503 43.4298 62.0227 43.4236 61.9949C43.4174 61.9671 43.3898 61.9495 43.362 61.9557C42.6068 62.1235 41.5193 62.167 40.3785 62.075C39.1392 61.9751 37.9789 61.7241 37.2747 61.4035C37.2488 61.3916 37.2181 61.4031 37.2063 61.4291C37.1945 61.455 37.206 61.4856 37.2319 61.4975C37.9464 61.8227 39.1196 62.0771 40.3702 62.1779C40.7653 62.2098 41.1544 62.2255 41.5258 62.2255Z" fill="url(#paint41_linear_99_307)"/>
<path d="M45.7904 56.7978C46.0514 55.8732 46.4948 55.0092 47.0919 54.2566C48.3714 52.644 50.4587 49.3647 50.7156 44.8889C51.0893 38.3786 45.3155 35.1193 40.0467 35.5617C34.778 36.0042 29.5792 39.9272 30.1483 45.9837C30.4985 49.7103 32.5843 52.5369 34.1373 54.1603C35.1234 55.1911 35.8269 56.4536 36.2077 57.8285C36.6737 59.5112 37.7829 61.6082 40.4191 61.736C43.8304 61.9014 45.2471 58.7218 45.7904 56.7978Z" fill="#3CD690"/>
<path d="M39.5478 60.4377L37.7042 48.4473C37.6662 48.1996 37.5443 48.0332 37.432 48.0757C37.3197 48.1183 37.2595 48.3535 37.2976 48.6012C37.2986 48.6078 37.2999 48.616 37.3011 48.6224L39.401 60.5014C39.4168 60.5908 39.4622 60.6472 39.5023 60.6275C39.5413 60.6083 39.561 60.5242 39.5478 60.4377Z" fill="url(#paint42_linear_99_307)"/>
<path d="M41.4614 60.5329L43.3049 48.5425C43.343 48.2948 43.4649 48.1284 43.5772 48.1709C43.6895 48.2135 43.7497 48.4487 43.7116 48.6964C43.7106 48.703 43.7092 48.7112 43.7081 48.7177L41.6082 60.5967C41.5924 60.686 41.547 60.7424 41.5068 60.7227C41.4678 60.7035 41.4482 60.6194 41.4614 60.5329Z" fill="url(#paint43_linear_99_307)"/>
<path d="M37.7175 47.4178C37.7643 47.3425 37.8726 47.3144 37.9595 47.355L38.986 47.8346L39.3423 46.8194C39.3611 46.7664 39.4048 46.7194 39.4671 46.6938C39.5852 46.6451 39.7264 46.6886 39.7825 46.791L39.7843 46.7943L40.6285 48.3335L41.4119 46.1424L41.4132 46.1388C41.4324 46.0853 41.4728 46.0372 41.5318 46.005C41.6631 45.9333 41.8366 45.9675 41.9194 46.0814L43.0995 47.7061C43.1475 47.7727 43.1311 47.8619 43.058 47.9111C42.98 47.9637 42.8676 47.9514 42.807 47.8838L41.7678 46.7247L40.8323 48.8091L40.8315 48.8107C40.8165 48.8441 40.7883 48.8732 40.7491 48.8915C40.6613 48.9326 40.5517 48.9042 40.5043 48.8281L39.6014 47.3793L39.2616 48.1121L39.2586 48.1187C39.2562 48.1239 39.2533 48.1291 39.2502 48.1342C39.2034 48.2094 39.0951 48.2375 39.0084 48.197L37.7899 47.6277C37.7031 47.587 37.6707 47.4931 37.7175 47.4178Z" fill="white"/>
<path d="M34.0972 52.7109C34.1658 52.7109 34.2348 52.6897 34.2939 52.6458C34.4403 52.5371 34.471 52.3302 34.3623 52.1837C34.0505 51.7636 33.7648 51.3297 33.5131 50.8939C33.4219 50.736 33.22 50.6819 33.0619 50.7731C32.9039 50.8642 32.8498 51.0663 32.9411 51.2242C33.2054 51.6819 33.505 52.1371 33.8318 52.5774C33.8966 52.6647 33.9963 52.7109 34.0972 52.7109Z" fill="white"/>
<path d="M32.5805 50.1082C32.6244 50.1082 32.669 50.0993 32.7119 50.0807C32.8792 50.008 32.956 49.8136 32.8833 49.6461C30.9523 45.1989 32.6147 41.4724 32.6318 41.4352C32.7078 41.2694 32.6351 41.0734 32.4692 40.9973C32.3029 40.9215 32.1072 40.9942 32.0312 41.16C31.9569 41.3224 30.2301 45.1942 32.2774 49.9092C32.3314 50.0338 32.4529 50.1082 32.5805 50.1082Z" fill="white"/>
<path d="M78.5545 102.013C78.5545 102.013 78.7373 102.993 78.8317 103.965C78.8685 104.344 78.5788 104.677 78.1979 104.696C76.9039 104.763 74.1357 104.894 73.1416 104.859C72.9922 104.854 72.8931 104.702 72.947 104.562C72.9922 104.445 73.0807 104.35 73.194 104.297L77.748 102.151L78.5545 102.013Z" fill="url(#paint44_linear_99_307)"/>
<path d="M78.6912 101.434L78.563 102.61C78.563 102.61 77.7653 102.991 77.2141 102.576L77.5334 101.264L78.6912 101.434Z" fill="url(#paint45_linear_99_307)"/>
<path d="M78.3756 79.3517C78.4387 79.6579 78.8448 94.6563 77.3055 101.394C77.2803 101.504 77.337 101.616 77.4418 101.658C77.6888 101.756 78.1723 101.897 78.7503 101.911C78.9293 101.915 79.0886 101.798 79.1375 101.625C79.5809 100.061 81.7027 92.2257 81.918 84.758C82.1586 76.4135 81.9153 84.474 81.9153 84.474L81.6783 79.3196L78.3756 79.3517Z" fill="url(#paint46_linear_99_307)"/>
<path d="M83.8212 102.475C83.8212 102.475 84.1021 102.968 84.382 104.283C84.4326 104.52 84.2685 104.75 84.0271 104.776C83.6 104.822 82.9425 104.882 82.4153 104.883C82.1723 104.884 81.9807 104.674 82.0077 104.433C82.0615 103.951 82.2359 103.161 82.7919 102.54L83.8212 102.475Z" fill="url(#paint47_linear_99_307)"/>
<path d="M84.0493 100.962L83.7406 102.741C83.7406 102.741 83.4208 102.984 82.7822 102.816L82.9194 100.903L84.0493 100.962Z" fill="url(#paint48_linear_99_307)"/>
<path d="M84.7267 79.7514C86.1136 87.6535 84.6289 99.3157 84.1124 101.6C84.0808 101.74 83.9692 101.848 83.8279 101.873C83.588 101.915 83.1928 101.952 82.8018 101.842C82.6671 101.804 82.5715 101.684 82.5647 101.544C82.4749 99.702 82.4969 88.3866 81.2323 83.9268C81.1682 83.7008 81.0279 83.5045 80.8352 83.3702L78.4474 81.7067L78.2395 78.983L84.7267 79.7514Z" fill="url(#paint49_linear_99_307)"/>
<path d="M76.2273 64.8345C80.1568 64.7321 84.5037 65.7876 84.5037 65.7876C85.7404 72.612 84.849 80.5056 84.849 80.5056C81.814 81.3325 78.3695 80.0796 78.3695 80.0796C77.8366 77.2273 75.4004 69.2089 75.4004 69.2089C73.4779 68.9889 71.8907 68.45 70.5811 67.73C71.5637 66.5687 72.0182 65.0986 72.2133 64.2303C73.607 64.6489 75.0153 64.8662 76.2273 64.8345Z" fill="url(#paint50_linear_99_307)"/>
<path d="M64.5632 59.1565C64.9448 58.6865 65.4356 58.9024 65.4356 58.9024C66.0372 61.3399 69.0886 63.2918 72.2134 64.2304C72.0182 65.0987 71.5637 66.5687 70.5811 67.73C65.3829 64.8722 64.5632 59.1565 64.5632 59.1565Z" fill="url(#paint51_linear_99_307)"/>
<path d="M64.658 59.2742C64.6188 59.403 65.0885 59.5941 65.3589 59.0662C65.3661 58.8144 65.5089 57.7345 65.3565 57.5308C64.545 56.4463 62.9787 55.0919 62.9787 55.0919C62.7186 55.3535 62.9373 55.6059 62.9373 55.6059L63.6983 56.3836C63.5434 56.6699 63.3535 56.9122 63.2667 57.2575C63.201 57.519 63.2453 57.7975 63.3794 58.0336C63.5139 58.2706 63.6973 58.5786 63.8702 58.8194C64.1975 59.2751 64.658 59.2742 64.658 59.2742Z" fill="url(#paint52_linear_99_307)"/>
<path d="M64.0327 56.8898L64.7249 57.4653L64.946 58.0428L64.3403 58.7278C64.3403 58.7278 64.1235 57.5798 63.9681 57.3324C63.8127 57.085 63.8909 56.9639 64.0327 56.8898Z" fill="url(#paint53_linear_99_307)"/>
<path d="M83.0325 69.6075L84.5036 65.7876C84.5036 65.7876 88.1984 68.2468 88.8322 71.4035C88.1391 71.4612 86.8786 71.6537 85.6492 72.2893C85.3634 70.7986 83.0325 69.6075 83.0325 69.6075Z" fill="url(#paint54_linear_99_307)"/>
<path d="M79.8588 73.2191C79.8588 73.2191 84.0025 75.509 85.3743 73.5068C85.659 73.091 85.7242 72.68 85.6493 72.2893C86.8788 71.6537 88.1392 71.4613 88.8324 71.4036C89.0235 72.3552 88.9369 73.3701 88.3865 74.4003C85.993 78.8796 79.323 74.2404 79.323 74.2404L79.8588 73.2191Z" fill="url(#paint55_linear_99_307)"/>
<path d="M80.1777 61.606L81.4627 65.2104C81.484 65.2701 81.46 65.3367 81.4048 65.3679C81.0657 65.5596 79.8428 66.1161 78.3539 65.1919C78.1987 65.0956 78.0923 64.9372 78.0671 64.7564L77.6323 61.6302L80.1777 61.606Z" fill="url(#paint56_linear_99_307)"/>
<path d="M80.7056 76.8381L78.4483 68.9551C78.4227 68.8657 78.3463 68.8004 78.2539 68.7896C77.8449 68.7419 76.6598 68.6079 75.2916 68.4922C73.6434 68.3528 71.7295 68.2399 70.5857 68.3359C70.4231 68.3496 70.3248 68.5216 70.3972 68.6678C71.0476 69.9836 73.7229 75.3362 75.0626 77.0896C75.107 77.1477 75.1757 77.1816 75.2488 77.181L80.486 77.1322C80.6384 77.1308 80.7475 76.9846 80.7056 76.8381Z" fill="url(#paint57_linear_99_307)"/>
<path d="M80.1601 74.9336C80.1601 74.9336 80.4746 73.6406 80.3477 73.1819C80.2209 72.7231 79.9751 72.1334 79.156 72.2644C78.3368 72.3955 77.3706 72.7405 77.3706 72.7405C77.3706 72.7405 77.4194 73.3381 78.042 73.1453L77.6559 73.444C77.6559 73.444 77.7111 73.9224 78.237 73.6668L77.8779 74.063C77.8779 74.063 78.1038 74.4559 78.4906 74.2039C78.8775 73.9519 79.0629 75.0893 80.1601 74.9336Z" fill="url(#paint58_linear_99_307)"/>
<path d="M75.4419 70.8455C75.4419 71.2114 75.1453 71.5081 74.7793 71.5081C74.4134 71.5081 74.1167 71.2115 74.1167 70.8455C74.1167 70.4795 74.4134 70.1829 74.7793 70.1829C75.1453 70.1829 75.4419 70.4795 75.4419 70.8455Z" fill="url(#paint59_linear_99_307)"/>
<path d="M78.193 71.2823L77.7334 69.7232C77.677 69.5318 77.5231 69.388 77.3317 69.348C75.8913 69.0475 71.9486 68.9838 71.9089 68.9832L71.9116 68.807C72.0742 68.8095 75.9108 68.8717 77.3677 69.1757C77.6226 69.2288 77.8275 69.4196 77.9024 69.6733L78.362 71.2324L78.193 71.2823Z" fill="white"/>
<path d="M78.1683 57.9345C78.1235 57.9793 76.2764 61.8275 76.2764 61.8275L78.3699 62.8997L80.6314 59.5283C80.6314 59.5283 78.9188 57.185 78.1683 57.9345Z" fill="url(#paint60_linear_99_307)"/>
<path d="M79.7051 59.6217C79.7425 59.7242 79.7333 59.8386 79.6801 59.9329L78.6359 61.7794C78.62 61.8074 78.6012 61.8328 78.5786 61.855C78.4543 61.9777 78.029 62.3348 77.7002 61.8487C77.42 61.4344 77.1571 61.0578 76.8754 60.9025C76.7109 60.8118 76.5084 60.8842 76.4249 61.0599C76.2528 61.4216 75.9196 62.159 75.7103 62.8582C75.6578 63.0334 75.7431 63.2216 75.9037 63.2906C76.3276 63.4728 77.1655 63.8023 77.909 63.9112C78.0311 63.9291 78.152 63.8744 78.2247 63.7688C78.5446 63.3039 79.4461 62.0047 79.7538 61.6796C80.0397 61.3774 80.5673 61.4913 80.805 61.5638C80.8953 61.5913 80.9914 61.5781 81.0718 61.5267C81.3131 61.3726 81.7339 60.9887 81.3489 60.3389C81.2531 60.1773 81.3019 59.9621 81.4522 59.8572C81.7215 59.6693 82.0137 59.3165 81.7353 58.7452C81.4535 58.1669 80.9502 58.115 80.6074 58.1595C80.4557 58.1791 80.3018 58.0948 80.2436 57.9449C80.2177 57.8782 80.1666 57.8214 80.0713 57.8009C79.8916 57.7622 79.7737 57.5879 79.809 57.3971C79.8694 57.0698 79.8239 56.6447 79.3313 56.3574C78.428 55.8305 77.6368 56.689 77.4356 57.4138C77.2344 58.1385 78.2444 58.6507 78.8797 58.7362C79.3463 58.7989 79.6022 59.3393 79.7051 59.6217Z" fill="url(#paint61_linear_99_307)"/>
<path d="M79.3616 62.3577C79.3616 62.3577 79.7632 61.1108 80.2774 61.1566C80.7915 61.2024 81.1962 61.7458 80.559 62.3567C79.7664 63.1165 79.3616 62.3577 79.3616 62.3577Z" fill="url(#paint62_linear_99_307)"/>
</g>
<defs>
<linearGradient id="paint0_linear_99_307" x1="112.055" y1="105.501" x2="45.5465" y2="47.3056" gradientUnits="userSpaceOnUse">
<stop stop-color="#B37CFF"/>
<stop offset="1" stop-color="#F895E7"/>
</linearGradient>
<linearGradient id="paint1_linear_99_307" x1="21.4563" y1="29.8415" x2="22.2336" y2="44.5986" gradientUnits="userSpaceOnUse">
<stop stop-color="#B37CFF"/>
<stop offset="1" stop-color="#F895E7"/>
</linearGradient>
<linearGradient id="paint2_linear_99_307" x1="18.384" y1="45.5208" x2="18.4294" y2="46.3827" gradientUnits="userSpaceOnUse">
<stop stop-color="#B37CFF"/>
<stop offset="1" stop-color="#F895E7"/>
</linearGradient>
<linearGradient id="paint3_linear_99_307" x1="25.2054" y1="49.6477" x2="25.2366" y2="50.2391" gradientUnits="userSpaceOnUse">
<stop stop-color="#B37CFF"/>
<stop offset="1" stop-color="#F895E7"/>
</linearGradient>
<linearGradient id="paint4_linear_99_307" x1="31.1701" y1="34.811" x2="31.9707" y2="50.0112" gradientUnits="userSpaceOnUse">
<stop stop-color="#B37CFF"/>
<stop offset="1" stop-color="#F895E7"/>
</linearGradient>
<linearGradient id="paint5_linear_99_307" x1="34.2949" y1="33.1271" x2="34.3397" y2="33.978" gradientUnits="userSpaceOnUse">
<stop stop-color="#B37CFF"/>
<stop offset="1" stop-color="#F895E7"/>
</linearGradient>
<linearGradient id="paint6_linear_99_307" x1="-6.98026" y1="64.2236" x2="69.8239" y2="8.41157" gradientUnits="userSpaceOnUse">
<stop stop-color="#A737D5"/>
<stop offset="1" stop-color="#EF497A"/>
</linearGradient>
<linearGradient id="paint7_linear_99_307" x1="29.1483" y1="15.9341" x2="29.1705" y2="16.3548" gradientUnits="userSpaceOnUse">
<stop stop-color="#B37CFF"/>
<stop offset="1" stop-color="#F895E7"/>
</linearGradient>
<linearGradient id="paint8_linear_99_307" x1="24.4136" y1="16.0127" x2="24.8478" y2="24.2566" gradientUnits="userSpaceOnUse">
<stop stop-color="#B37CFF"/>
<stop offset="1" stop-color="#F895E7"/>
</linearGradient>
<linearGradient id="paint9_linear_99_307" x1="32.5103" y1="19.2759" x2="33.006" y2="28.6853" gradientUnits="userSpaceOnUse">
<stop stop-color="#B37CFF"/>
<stop offset="1" stop-color="#F895E7"/>
</linearGradient>
<linearGradient id="paint10_linear_99_307" x1="33.0448" y1="18.2105" x2="33.0787" y2="18.854" gradientUnits="userSpaceOnUse">
<stop stop-color="#B37CFF"/>
<stop offset="1" stop-color="#F895E7"/>
</linearGradient>
<linearGradient id="paint11_linear_99_307" x1="-15.2736" y1="54.0229" x2="61.5307" y2="-1.78916" gradientUnits="userSpaceOnUse">
<stop stop-color="#A737D5"/>
<stop offset="1" stop-color="#EF497A"/>
</linearGradient>
<linearGradient id="paint12_linear_99_307" x1="104.454" y1="45.2734" x2="67.1225" y2="55.9723" gradientUnits="userSpaceOnUse">
<stop stop-color="#A737D5"/>
<stop offset="1" stop-color="#EF497A"/>
</linearGradient>
<linearGradient id="paint13_linear_99_307" x1="95.9046" y1="95.2355" x2="91.0789" y2="47.8367" gradientUnits="userSpaceOnUse">
<stop stop-color="#CE1567"/>
<stop offset="1" stop-color="#7A1DBC"/>
</linearGradient>
<linearGradient id="paint14_linear_99_307" x1="58.0809" y1="97.5894" x2="53.7881" y2="-29.481" gradientUnits="userSpaceOnUse">
<stop stop-color="#2B3582"/>
<stop offset="1" stop-color="#150E42"/>
</linearGradient>
<linearGradient id="paint15_linear_99_307" x1="46.0574" y1="70.8883" x2="14.4758" y2="134.917" gradientUnits="userSpaceOnUse">
<stop stop-color="#53D8FF"/>
<stop offset="1" stop-color="#3840F7"/>
</linearGradient>
<linearGradient id="paint16_linear_99_307" x1="21.6854" y1="79.5987" x2="70.3385" y2="110.508" gradientUnits="userSpaceOnUse">
<stop stop-color="#A737D5"/>
<stop offset="1" stop-color="#EF497A"/>
</linearGradient>
<linearGradient id="paint17_linear_99_307" x1="49.9857" y1="54.2953" x2="32.9893" y2="83.3042" gradientUnits="userSpaceOnUse">
<stop stop-color="#A737D5"/>
<stop offset="1" stop-color="#EF497A"/>
</linearGradient>
<linearGradient id="paint18_linear_99_307" x1="53.0973" y1="56.1184" x2="36.1009" y2="85.1273" gradientUnits="userSpaceOnUse">
<stop stop-color="#A737D5"/>
<stop offset="1" stop-color="#EF497A"/>
</linearGradient>
<linearGradient id="paint19_linear_99_307" x1="55.7136" y1="63.2694" x2="33.3499" y2="94.4508" gradientUnits="userSpaceOnUse">
<stop stop-color="#A737D5"/>
<stop offset="1" stop-color="#EF497A"/>
</linearGradient>
<linearGradient id="paint20_linear_99_307" x1="59.3205" y1="59.7645" x2="42.324" y2="88.7734" gradientUnits="userSpaceOnUse">
<stop stop-color="#A737D5"/>
<stop offset="1" stop-color="#EF497A"/>
</linearGradient>
<linearGradient id="paint21_linear_99_307" x1="64.8078" y1="8.96182" x2="43.3387" y2="37.204" gradientUnits="userSpaceOnUse">
<stop stop-color="#2B3582"/>
<stop offset="1" stop-color="#150E42"/>
</linearGradient>
<linearGradient id="paint22_linear_99_307" x1="67.1628" y1="10.752" x2="45.6937" y2="38.9941" gradientUnits="userSpaceOnUse">
<stop stop-color="#2B3582"/>
<stop offset="1" stop-color="#150E42"/>
</linearGradient>
<linearGradient id="paint23_linear_99_307" x1="29.2444" y1="53.5752" x2="26.1311" y2="61.3848" gradientUnits="userSpaceOnUse">
<stop stop-color="#CB236D"/>
<stop offset="1" stop-color="#4C246D"/>
</linearGradient>
<linearGradient id="paint24_linear_99_307" x1="35.6675" y1="58.0872" x2="29.9158" y2="71.1734" gradientUnits="userSpaceOnUse">
<stop stop-color="#F9B776"/>
<stop offset="1" stop-color="#F47960"/>
</linearGradient>
<linearGradient id="paint25_linear_99_307" x1="17.8636" y1="103.573" x2="15.2237" y2="103.573" gradientUnits="userSpaceOnUse">
<stop stop-color="#A737D5"/>
<stop offset="1" stop-color="#EF497A"/>
</linearGradient>
<linearGradient id="paint26_linear_99_307" x1="29.0188" y1="113.983" x2="25.2197" y2="69.582" gradientUnits="userSpaceOnUse">
<stop stop-color="#F9B776"/>
<stop offset="1" stop-color="#F47960"/>
</linearGradient>
<linearGradient id="paint27_linear_99_307" x1="30.1286" y1="103.091" x2="25.857" y2="103.091" gradientUnits="userSpaceOnUse">
<stop stop-color="#A737D5"/>
<stop offset="1" stop-color="#EF497A"/>
</linearGradient>
<linearGradient id="paint28_linear_99_307" x1="21.3766" y1="114.644" x2="17.5765" y2="70.2309" gradientUnits="userSpaceOnUse">
<stop stop-color="#F9B776"/>
<stop offset="1" stop-color="#F47960"/>
</linearGradient>
<linearGradient id="paint29_linear_99_307" x1="30.1333" y1="64.3146" x2="17.0235" y2="109.835" gradientUnits="userSpaceOnUse">
<stop stop-color="#CE1567"/>
<stop offset="1" stop-color="#7A1DBC"/>
</linearGradient>
<linearGradient id="paint30_linear_99_307" x1="31.9175" y1="64.8284" x2="18.8076" y2="110.349" gradientUnits="userSpaceOnUse">
<stop stop-color="#CE1567"/>
<stop offset="1" stop-color="#7A1DBC"/>
</linearGradient>
<linearGradient id="paint31_linear_99_307" x1="29.4352" y1="70.2169" x2="28.7216" y2="64.996" gradientUnits="userSpaceOnUse">
<stop stop-color="#F9B776"/>
<stop offset="1" stop-color="#F47960"/>
</linearGradient>
<linearGradient id="paint32_linear_99_307" x1="31.2364" y1="63.4857" x2="25.0099" y2="52.4046" gradientUnits="userSpaceOnUse">
<stop stop-color="#F9B776"/>
<stop offset="1" stop-color="#F47960"/>
</linearGradient>
<linearGradient id="paint33_linear_99_307" x1="29.8974" y1="53.8357" x2="26.7842" y2="61.6452" gradientUnits="userSpaceOnUse">
<stop stop-color="#CB236D"/>
<stop offset="1" stop-color="#4C246D"/>
</linearGradient>
<linearGradient id="paint34_linear_99_307" x1="29.911" y1="64.2305" x2="23.6845" y2="53.1493" gradientUnits="userSpaceOnUse">
<stop stop-color="#F9B776"/>
<stop offset="1" stop-color="#F47960"/>
</linearGradient>
<linearGradient id="paint35_linear_99_307" x1="37.2142" y1="57.6535" x2="33.2416" y2="66.6919" gradientUnits="userSpaceOnUse">
<stop stop-color="#F9B776"/>
<stop offset="1" stop-color="#F47960"/>
</linearGradient>
<linearGradient id="paint36_linear_99_307" x1="30.8992" y1="64.1776" x2="34.9407" y2="72.266" gradientUnits="userSpaceOnUse">
<stop stop-color="#F9B776"/>
<stop offset="1" stop-color="#F47960"/>
</linearGradient>
<linearGradient id="paint37_linear_99_307" x1="40.4409" y1="59.5388" x2="40.4728" y2="65.8243" gradientUnits="userSpaceOnUse">
<stop stop-color="#53D8FF"/>
<stop offset="1" stop-color="#3840F7"/>
</linearGradient>
<linearGradient id="paint38_linear_99_307" x1="40.8372" y1="65.6828" x2="44.2096" y2="77.9677" gradientUnits="userSpaceOnUse">
<stop stop-color="#53D8FF"/>
<stop offset="1" stop-color="#3840F7"/>
</linearGradient>
<linearGradient id="paint39_linear_99_307" x1="40.962" y1="65.6484" x2="44.3344" y2="77.9334" gradientUnits="userSpaceOnUse">
<stop stop-color="#53D8FF"/>
<stop offset="1" stop-color="#3840F7"/>
</linearGradient>
<linearGradient id="paint40_linear_99_307" x1="41.2756" y1="65.5625" x2="44.6479" y2="77.8476" gradientUnits="userSpaceOnUse">
<stop stop-color="#53D8FF"/>
<stop offset="1" stop-color="#3840F7"/>
</linearGradient>
<linearGradient id="paint41_linear_99_307" x1="41.3594" y1="65.5394" x2="44.7318" y2="77.8244" gradientUnits="userSpaceOnUse">
<stop stop-color="#53D8FF"/>
<stop offset="1" stop-color="#3840F7"/>
</linearGradient>
<linearGradient id="paint42_linear_99_307" x1="38.5003" y1="51.885" x2="37.7433" y2="75.9389" gradientUnits="userSpaceOnUse">
<stop stop-color="#FDF53F"/>
<stop offset="1" stop-color="#D93C65"/>
</linearGradient>
<linearGradient id="paint43_linear_99_307" x1="42.6706" y1="52.0162" x2="41.9135" y2="76.0702" gradientUnits="userSpaceOnUse">
<stop stop-color="#FDF53F"/>
<stop offset="1" stop-color="#D93C65"/>
</linearGradient>
<linearGradient id="paint44_linear_99_307" x1="73.2471" y1="100.706" x2="90.1696" y2="118.766" gradientUnits="userSpaceOnUse">
<stop stop-color="#2B3582"/>
<stop offset="1" stop-color="#150E42"/>
</linearGradient>
<linearGradient id="paint45_linear_99_307" x1="78.6966" y1="102.007" x2="77.2089" y2="102.022" gradientUnits="userSpaceOnUse">
<stop stop-color="#F9B776"/>
<stop offset="1" stop-color="#F47960"/>
</linearGradient>
<linearGradient id="paint46_linear_99_307" x1="56.3378" y1="109.961" x2="85.5401" y2="84.6521" gradientUnits="userSpaceOnUse">
<stop stop-color="#53D8FF"/>
<stop offset="1" stop-color="#3840F7"/>
</linearGradient>
<linearGradient id="paint47_linear_99_307" x1="76.9719" y1="97.2153" x2="93.8952" y2="115.276" gradientUnits="userSpaceOnUse">
<stop stop-color="#2B3582"/>
<stop offset="1" stop-color="#150E42"/>
</linearGradient>
<linearGradient id="paint48_linear_99_307" x1="84.058" y1="101.88" x2="82.7735" y2="101.892" gradientUnits="userSpaceOnUse">
<stop stop-color="#F9B776"/>
<stop offset="1" stop-color="#F47960"/>
</linearGradient>
<linearGradient id="paint49_linear_99_307" x1="57.2801" y1="111.048" x2="86.4823" y2="85.7391" gradientUnits="userSpaceOnUse">
<stop stop-color="#53D8FF"/>
<stop offset="1" stop-color="#3840F7"/>
</linearGradient>
<linearGradient id="paint50_linear_99_307" x1="80.2624" y1="64.3102" x2="71.4552" y2="98.2181" gradientUnits="userSpaceOnUse">
<stop stop-color="#FDF53F"/>
<stop offset="1" stop-color="#D93C65"/>
</linearGradient>
<linearGradient id="paint51_linear_99_307" x1="72.2041" y1="63.2503" x2="64.6028" y2="63.3225" gradientUnits="userSpaceOnUse">
<stop stop-color="#F9B776"/>
<stop offset="1" stop-color="#F47960"/>
</linearGradient>
<linearGradient id="paint52_linear_99_307" x1="66.2838" y1="62.0324" x2="71.4946" y2="73.5888" gradientUnits="userSpaceOnUse">
<stop stop-color="#F9B776"/>
<stop offset="1" stop-color="#F47960"/>
</linearGradient>
<linearGradient id="paint53_linear_99_307" x1="64.5903" y1="58.1834" x2="62.4309" y2="54.9314" gradientUnits="userSpaceOnUse">
<stop stop-color="#F9B776"/>
<stop offset="1" stop-color="#F47960"/>
</linearGradient>
<linearGradient id="paint54_linear_99_307" x1="87.0815" y1="66.0814" x2="78.2742" y2="99.9893" gradientUnits="userSpaceOnUse">
<stop stop-color="#FDF53F"/>
<stop offset="1" stop-color="#D93C65"/>
</linearGradient>
<linearGradient id="paint55_linear_99_307" x1="88.9394" y1="73.8582" x2="79.3203" y2="73.9496" gradientUnits="userSpaceOnUse">
<stop stop-color="#F9B776"/>
<stop offset="1" stop-color="#F47960"/>
</linearGradient>
<linearGradient id="paint56_linear_99_307" x1="81.4551" y1="63.6451" x2="77.6518" y2="63.6812" gradientUnits="userSpaceOnUse">
<stop stop-color="#F9B776"/>
<stop offset="1" stop-color="#F47960"/>
</linearGradient>
<linearGradient id="paint57_linear_99_307" x1="76.7409" y1="67.7462" x2="71.4331" y2="89.8623" gradientUnits="userSpaceOnUse">
<stop stop-color="#2B3582"/>
<stop offset="1" stop-color="#150E42"/>
</linearGradient>
<linearGradient id="paint58_linear_99_307" x1="80.3779" y1="73.5971" x2="77.3706" y2="73.5971" gradientUnits="userSpaceOnUse">
<stop stop-color="#F9B776"/>
<stop offset="1" stop-color="#F47960"/>
</linearGradient>
<linearGradient id="paint59_linear_99_307" x1="74.6016" y1="70.1051" x2="75.3949" y2="73.4103" gradientUnits="userSpaceOnUse">
<stop stop-color="#53D8FF"/>
<stop offset="1" stop-color="#3840F7"/>
</linearGradient>
<linearGradient id="paint60_linear_99_307" x1="78.7962" y1="58.6635" x2="77.4205" y2="66.7587" gradientUnits="userSpaceOnUse">
<stop stop-color="#F9B776"/>
<stop offset="1" stop-color="#F47960"/>
</linearGradient>
<linearGradient id="paint61_linear_99_307" x1="80.1568" y1="62.4172" x2="76.1954" y2="58.209" gradientUnits="userSpaceOnUse">
<stop stop-color="#2B3582"/>
<stop offset="1" stop-color="#150E42"/>
</linearGradient>
<linearGradient id="paint62_linear_99_307" x1="79.8892" y1="67.4991" x2="80.1338" y2="61.8151" gradientUnits="userSpaceOnUse">
<stop stop-color="#F9B776"/>
<stop offset="1" stop-color="#F47960"/>
</linearGradient>
<clipPath id="clip0_99_307">
<rect width="120" height="120" fill="white"/>
</clipPath>
</defs>
</svg>
