<svg width="120" height="120" viewBox="0 0 120 120" fill="none" xmlns="http://www.w3.org/2000/svg">
<path opacity="0.3" d="M101.649 75.9016C92.8666 96.3978 69.4724 107.88 49.1849 104.783C45.8837 104.279 36.8334 102.777 28.8206 95.6947C13.3954 82.0602 10.0967 55.0621 22.5397 36.0359C31.596 22.1881 47.8303 14.3383 63.2562 14.731C66.5789 14.8156 79.313 15.3368 90.5041 24.4831C92.1478 25.8265 95.7733 29.0189 99.0406 34.0833C106.713 45.9755 107.373 62.544 101.649 75.9016Z" fill="url(#paint0_linear_99_507)"/>
<path d="M94.073 21.2236C94.1697 20.925 93.8215 20.6796 93.5699 20.8673C91.0147 22.773 84.7295 28.6349 84.8222 40.1382C84.9385 54.5708 81.3826 59.4281 77.3313 62.177C77.3313 62.177 82.5699 61.2632 86.3583 56.3549C95.6598 44.304 92.3527 26.5332 94.073 21.2236Z" fill="url(#paint1_linear_99_507)"/>
<path d="M91.8105 25.4702C91.3415 27.0221 90.9034 28.5825 90.5229 30.1566C90.1343 31.7284 89.7935 33.3114 89.5025 34.9027C89.2176 36.4949 88.9627 38.0923 88.776 39.6981C88.5821 41.303 88.4573 42.9144 88.3377 44.5327C88.2091 46.1494 88.0888 47.7788 87.8012 49.4009C87.5158 51.0199 87.0325 52.6308 86.2693 54.1056C86.0786 54.4731 85.8805 54.8385 85.6628 55.1887C85.4515 55.543 85.2245 55.8881 84.9914 56.2289C84.5217 56.9085 84.0061 57.5581 83.4446 58.1664C82.3184 59.3804 81.0082 60.422 79.5989 61.2693C79.4506 61.3585 79.2581 61.3105 79.1689 61.1622C79.0813 61.0166 79.126 60.8283 79.268 60.7371L79.269 60.7365C79.606 60.5206 79.94 60.3013 80.2631 60.0677C80.4266 59.9535 80.5846 59.8323 80.7449 59.7142C80.9005 59.59 81.061 59.4719 81.2126 59.3432C81.8274 58.8384 82.4062 58.2911 82.9415 57.7037C84.0168 56.5354 84.9231 55.2004 85.6548 53.7928C86.0128 53.0847 86.3179 52.3514 86.5656 51.5971C86.8128 50.8426 87.0023 50.0679 87.1478 49.2819C87.4391 47.7088 87.5715 46.097 87.7117 44.4813C87.854 42.8654 88.0082 41.2426 88.2288 39.6287C88.3369 38.8215 88.4596 38.0164 88.5966 37.2138C88.6628 36.8122 88.7367 36.4119 88.8099 36.0115C88.887 35.6119 88.9662 35.2127 89.0487 34.8143C89.3817 33.221 89.763 31.6387 90.1938 30.0706C90.6322 28.5046 91.1119 26.9508 91.6507 25.418C91.6661 25.3742 91.7141 25.3512 91.7579 25.3666C91.8004 25.3815 91.8233 25.4274 91.8105 25.4702Z" fill="white"/>
<path d="M86.595 67.4386C86.6953 68.0082 87.3448 68.2903 87.8336 67.9811C90.5307 66.275 97.7202 60.7619 99.0217 49.8219C100.121 40.5836 101.595 35.6786 102.418 33.4984C102.592 33.0373 102.077 32.622 101.663 32.8895C97.0963 35.8411 82.9597 46.7982 86.595 67.4386Z" fill="url(#paint2_linear_99_507)"/>
<path d="M87.3657 67.5781C87.3761 67.5879 87.3876 67.5969 87.4002 67.6049C87.5054 67.6718 87.645 67.6407 87.7119 67.5354C87.7877 67.4161 95.3189 55.4571 97.4274 42.6809C97.4477 42.5579 97.3644 42.4417 97.2414 42.4213C97.1183 42.401 97.0021 42.4843 96.9817 42.6073C94.8886 55.2906 87.406 67.1747 87.3307 67.2932C87.2717 67.3859 87.2888 67.5052 87.3657 67.5781Z" fill="white"/>
<path d="M20.793 95.8651C20.793 96.6462 21.4328 97.2853 22.2146 97.2853H99.0877C99.8696 97.2853 100.509 96.6462 100.509 95.8651L101.149 51.6882C101.149 50.9071 100.229 49.3822 98.5421 49.4968L23.4132 47.5528C22.4322 47.5274 21.4837 47.905 20.789 48.5975C20.0943 49.2899 19.7141 50.2367 19.7373 51.2168L20.793 95.8651Z" fill="url(#paint3_linear_99_507)"/>
<path d="M22.1964 94.5025C22.1964 95.2422 22.8016 95.8474 23.5413 95.8474H97.2337C97.9734 95.8474 98.5786 95.2422 98.5786 94.5025L99.1822 54.3984C99.1111 51.985 96.9953 51.1176 95.7127 51.1689L23.7086 49.2371C23.0193 49.2186 22.353 49.4842 21.8649 49.9711C21.3767 50.4579 21.1082 51.1243 21.1255 51.8135L22.1964 94.5025Z" fill="url(#paint4_linear_99_507)"/>
<path d="M97.7823 75.4502C97.7813 75.4502 97.7804 75.4502 97.7794 75.4502C97.6705 75.4486 97.5835 75.3592 97.5852 75.2501L97.6329 71.9978C97.6345 71.8899 97.7224 71.8036 97.8299 71.8036C97.8309 71.8036 97.8318 71.8036 97.8328 71.8036C97.9417 71.8052 98.0286 71.8947 98.027 72.0037L97.9793 75.256C97.9777 75.3639 97.8898 75.4502 97.7823 75.4502Z" fill="white"/>
<path d="M97.8994 67.4802C97.8984 67.4802 97.8975 67.4802 97.8965 67.4802C97.7876 67.4787 97.7007 67.389 97.7023 67.2802L97.8852 54.8235C97.8817 54.0836 97.6572 53.4928 97.2176 53.0716C96.3971 52.2854 95.0943 52.3256 95.0394 52.3281L72.0253 51.711C71.9165 51.7082 71.8306 51.6175 71.8336 51.5087C71.8364 51.3999 71.92 51.3073 72.0359 51.3171L95.0364 51.9343C95.1795 51.9258 96.5665 51.9018 97.4903 52.7869C98.01 53.2848 98.2755 53.9708 98.2794 54.8255L98.0965 67.2861C98.0948 67.3939 98.0069 67.4802 97.8994 67.4802Z" fill="white"/>
<path d="M14.7395 100.952H105.004C105.105 100.952 105.187 100.87 105.187 100.77V97.2538C105.187 97.1532 105.105 97.0709 105.004 97.0709H14.7395C14.639 97.0709 14.5566 97.1532 14.5566 97.2538V100.77C14.5566 100.87 14.6389 100.952 14.7395 100.952Z" fill="url(#paint5_linear_99_507)"/>
<path d="M80.6055 28.5006L34.9419 28.221C33.4412 28.2118 32.241 29.4653 32.3153 30.9642L35.4568 95.8413H86.2719L89.0934 37.8771L80.6055 28.5006Z" fill="#AEEFEB"/>
<path d="M82.5043 37.5992C81.0168 37.5469 79.8732 36.2649 79.9904 34.7811L80.48 28.5861L89.1023 37.8391L82.5043 37.5992Z" fill="url(#paint6_linear_99_507)"/>
<g opacity="0.79">
<path opacity="0.78" d="M37.9222 65.6421C45.9255 65.6867 76.6484 65.832 84.4065 65.8686C85.385 65.8732 86.1824 66.3568 86.1685 66.9361C86.1553 67.4875 85.4076 67.9225 84.4762 67.9206L38.0187 67.8278C37.1239 67.8261 36.3607 67.4206 36.2583 66.8925L36.2323 66.7589C36.1152 66.1549 36.8989 65.6365 37.9222 65.6421Z" fill="white"/>
</g>
<g opacity="0.79">
<path opacity="0.78" d="M38.787 87.9086C46.4437 87.9222 75.8362 87.9486 83.2583 87.9552C84.1945 87.956 84.9582 88.4366 84.9461 89.0159C84.9345 89.5674 84.22 90.0052 83.3289 90.007L38.8836 90.0938C38.0275 90.0955 37.2966 89.693 37.1975 89.1653L37.1725 89.0318C37.0592 88.4283 37.808 87.9068 38.787 87.9086Z" fill="white"/>
</g>
<g opacity="0.79">
<path opacity="0.78" d="M58.4912 70.3256C63.1175 70.3346 80.8774 70.3435 85.3621 70.3456C85.9278 70.3459 86.3813 70.8259 86.3642 71.405C86.3479 71.9563 85.9088 72.3945 85.3704 72.3967L58.5128 72.5101C57.9954 72.5123 57.5606 72.1104 57.5096 71.5828L57.4967 71.4494C57.4384 70.8462 57.8996 70.3244 58.4912 70.3256Z" fill="white"/>
</g>
<path opacity="0.79" d="M59.0187 74.7885C63.486 74.7558 80.6356 74.6045 84.9662 74.5662C85.5124 74.5614 85.9532 75.0372 85.9402 75.6165C85.9279 76.1679 85.5066 76.61 84.9866 76.6171L59.0529 76.9727C58.5534 76.9795 58.131 76.5815 58.0785 76.0545L58.0653 75.9212C58.0053 75.3185 58.4475 74.7926 59.0187 74.7885Z" fill="white"/>
<path opacity="0.79" d="M59.3945 79.1499C63.7747 79.1441 80.5897 79.0961 84.8358 79.0839C85.3714 79.0823 85.8006 79.5608 85.7842 80.14C85.7687 80.6913 85.3528 81.1309 84.843 81.1348L59.4144 81.3343C58.9246 81.3382 58.513 80.9376 58.4648 80.4103L58.4527 80.2768C58.3976 79.6739 58.8345 79.1507 59.3945 79.1499Z" fill="white"/>
<path opacity="0.79" d="M59.2063 83.5967C63.5865 83.5909 80.4015 83.5429 84.6476 83.5306C85.1832 83.5291 85.6123 84.0076 85.596 84.5867C85.5805 85.1381 85.1646 85.5776 84.6548 85.5816L59.2262 85.7811C58.7364 85.7849 58.3247 85.3844 58.2766 84.857L58.2644 84.7236C58.2094 84.1207 58.6462 83.5974 59.2063 83.5967Z" fill="white"/>
<g opacity="0.81">
<path d="M82.2739 62.6899L85.238 62.6782L85.3435 51.9478L82.3799 51.9011L82.2739 62.6899Z" fill="#F4F7FA"/>
<path d="M76.9238 62.711L79.946 62.6991L80.1792 38.9766L77.1583 38.8582L76.9238 62.711Z" fill="#F4F7FA"/>
<path d="M71.4683 62.7327L74.5502 62.7205L74.7508 42.3186L71.6699 42.2175L71.4683 62.7327Z" fill="#F4F7FA"/>
<path d="M65.9041 62.7548L69.0476 62.7424L69.1019 57.2176L65.9587 57.1991L65.9041 62.7548Z" fill="#F4F7FA"/>
<path d="M60.2275 62.7773L63.4345 62.7646L63.5634 49.649L60.3572 49.5874L60.2275 62.7773Z" fill="#F4F7FA"/>
<path d="M54.4353 62.8002L57.7077 62.7873L57.8954 43.6933L54.6241 43.597L54.4353 62.8002Z" fill="#F4F7FA"/>
<path d="M48.5244 62.8238L51.8642 62.8105L52.0025 48.7436L48.6635 48.6755L48.5244 62.8238Z" fill="#F4F7FA"/>
<path d="M42.4905 62.8477L45.8998 62.8341L46.1165 40.7891L42.7085 40.6738L42.4905 62.8477Z" fill="#F4F7FA"/>
<path d="M36.3301 62.8721L39.8111 62.8583L40.0545 38.0991L36.5749 37.9668L36.3301 62.8721Z" fill="#F4F7FA"/>
</g>
<path d="M38.5638 85.2878L54.4171 85.2239C55.3179 85.2203 56.0533 84.2134 56.0656 82.9668L56.1653 72.8223C56.1778 71.5452 55.428 70.5113 54.5053 70.5332L38.6489 70.9093C37.7572 70.9305 37.0359 71.9322 37.0238 73.1661L36.9272 82.9984C36.9147 84.2628 37.6501 85.2915 38.5638 85.2878Z" fill="#F4F7FA"/>
<g opacity="0.78">
<path d="M42.246 76.6066C43.461 76.682 43.6511 75.7097 44.8489 75.6271C46.8804 75.4871 47.3507 78.2261 49.3072 78.2036C50.9043 78.1852 51.3242 76.3432 52.9029 76.5633C54.0765 76.7269 54.2971 77.8118 55.4412 77.9784C55.6697 78.0117 55.8948 78.0018 56.1148 77.9596L56.0677 82.7456C56.0543 84.1147 55.2466 85.2205 54.2573 85.2245L38.7658 85.287C37.7409 85.2912 36.9159 84.1372 36.9299 82.7189L37.0162 73.9391C38.0409 74.0515 38.7866 74.38 39.3196 74.7106C40.602 75.5059 41.02 76.5306 42.246 76.6066Z" fill="white"/>
</g>
<path d="M84.6472 96.7418C85.6809 96.8312 87.4748 96.9763 88.8891 97.0385C89.7392 97.0759 90.2286 96.9927 90.5105 96.8798C90.5101 96.9116 90.5092 96.9417 90.5079 96.9696C90.5012 97.1184 90.3803 97.2374 90.23 97.2458C87.5576 97.395 85.4324 97.2974 84.6757 97.2514C84.5193 97.2419 84.426 97.0718 84.5061 96.9384C84.5461 96.8718 84.5946 96.8064 84.6472 96.7418Z" fill="url(#paint7_linear_99_507)"/>
<path d="M88.8891 97.0386C87.4748 96.9763 85.6809 96.8312 84.6472 96.7419C85.6635 95.495 88.8891 94.6547 88.8891 94.6547H89.8001C90.4267 95.5579 90.5174 96.4178 90.5105 96.8799C90.2287 96.9927 89.7392 97.076 88.8891 97.0386Z" fill="url(#paint8_linear_99_507)"/>
<path d="M89.9535 93.1674L89.8683 94.8544C89.859 95.0371 89.7223 95.1906 89.5393 95.2168C89.3573 95.2428 89.1135 95.2461 88.855 95.1601C88.6959 95.1071 88.5778 94.9731 88.5485 94.8096L88.2539 93.1674H89.9535Z" fill="url(#paint9_linear_99_507)"/>
<path d="M101.786 97.0259C102.235 96.9633 102.437 96.7305 102.522 96.4816C102.523 96.4838 102.524 96.486 102.524 96.4883C102.59 96.7509 102.437 97.023 102.132 97.1524C101.762 97.3089 101.358 97.3355 101.045 97.3226C100.708 97.3088 100.399 97.1695 100.23 96.9467L100.227 96.9434C100.565 97.1105 101.039 97.1301 101.786 97.0259Z" fill="url(#paint10_linear_99_507)"/>
<path d="M99.6728 93.1565H100.424C101.568 93.1332 102.287 95.5468 102.522 96.4816C102.437 96.7305 102.234 96.9634 101.786 97.0259C101.039 97.1302 100.565 97.1105 100.227 96.9434C99.6086 96.1298 99.3021 94.9383 99.1548 94.2428C98.9872 93.4519 99.6728 93.1565 99.6728 93.1565Z" fill="url(#paint11_linear_99_507)"/>
<path d="M100.328 91.5907L100.745 93.25C100.796 93.4534 100.698 93.6639 100.51 93.7604C100.277 93.8801 99.9484 94.006 99.6465 93.9696C99.5044 93.9525 99.3864 93.8524 99.3395 93.7187L98.7271 91.973L100.328 91.5907Z" fill="url(#paint12_linear_99_507)"/>
<path d="M100.825 92.0704C100.306 92.5308 98.6179 92.5915 98.6179 92.5915C92.5365 77.9957 90.0488 75.9221 90.0488 75.9221C90.9269 81.4312 90.1904 93.6278 90.1904 93.6278C89.1869 94.0707 87.8931 93.6278 87.8931 93.6278C87.8116 84.6086 86.4253 76.743 84.7876 70.5419C88.8978 70.4496 91.0837 69.043 91.7974 68.4785C95.2235 74.0022 100.825 92.0704 100.825 92.0704Z" fill="url(#paint13_linear_99_507)"/>
<path d="M90.7535 51.6933C91.5315 55.5739 91.2527 62.5194 91.0695 65.6875C91.018 66.5779 91.6396 67.8124 92.1421 68.6545C92.2209 68.7866 92.1722 68.9557 92.0354 69.026C91.1942 69.4584 88.3446 70.7983 85.0418 70.9649C84.8216 70.976 84.6249 70.826 84.5679 70.6131C82.118 61.4655 79.2725 55.6201 79.2725 55.6201C82.4141 50.6032 90.7535 51.6933 90.7535 51.6933Z" fill="url(#paint14_linear_99_507)"/>
<path d="M89.6339 75.5765C89.6684 75.5765 89.7034 75.5672 89.735 75.548C89.8268 75.4919 89.8559 75.3722 89.8001 75.2806C89.7674 75.2267 88.9807 73.9553 87.3888 73.1873C87.2921 73.1408 87.1756 73.181 87.1287 73.278C87.0821 73.3748 87.1227 73.4914 87.2195 73.538C88.7036 74.2541 89.4599 75.471 89.4674 75.4831C89.5041 75.5432 89.5682 75.5765 89.6339 75.5765Z" fill="url(#paint15_linear_99_507)"/>
<path d="M95.6334 62.8305C95.3835 64.6383 94.6451 66.6101 93.1682 68.7046L92.6067 68.2469C92.6067 68.2469 93.2548 65.6172 92.8864 62.6328C93.7975 62.4551 94.8735 62.6383 95.6334 62.8305Z" fill="url(#paint16_linear_99_507)"/>
<path d="M89.8845 56.4814L90.7535 51.6932C90.7535 51.6932 96.5594 56.1312 95.6334 62.8305C94.8735 62.6383 93.7975 62.455 92.8864 62.6328C92.6209 60.483 91.8281 58.1491 89.8845 56.4814Z" fill="url(#paint17_linear_99_507)"/>
<path d="M79.2723 55.62L81.5134 60.4465C81.151 63.3604 79.5857 64.6203 77.8979 65.1035C77.7927 63.7755 77.4568 62.7026 77.1453 61.9604C79.3018 59.7339 79.2723 55.62 79.2723 55.62Z" fill="url(#paint18_linear_99_507)"/>
<path d="M77.1454 61.9604C77.457 62.7026 77.7928 63.7755 77.898 65.1035C73.395 66.8506 72.2036 63.4623 72.2036 63.4623L73.0358 63.3155C74.9152 63.5135 76.228 62.9076 77.1454 61.9604Z" fill="url(#paint19_linear_99_507)"/>
<path d="M81.3372 49.6614L82.4191 53.6386C82.5406 54.0854 83.0239 54.3254 83.4539 54.1535C83.9178 53.968 84.5065 53.7148 85.0133 53.4412C85.5542 53.1492 85.7234 52.4534 85.381 51.9428L83.1317 48.5889L81.3372 49.6614Z" fill="url(#paint20_linear_99_507)"/>
<path d="M70.1398 60.8009L97.8632 70.8911C99.0259 71.3143 99.5817 72.6382 99.0695 73.7646L98.9853 73.9495C98.5321 74.9461 97.3543 75.3832 96.3607 74.9235L69.4417 62.4706L70.1398 60.8009Z" fill="#3CD690"/>
<path opacity="0.27" d="M57.397 68.17C64.9553 68.17 71.0825 62.1533 71.0825 54.7314C71.0825 47.3094 64.9553 41.2927 57.397 41.2927C49.8386 41.2927 43.7114 47.3094 43.7114 54.7314C43.7114 62.1533 49.8386 68.17 57.397 68.17Z" fill="white"/>
<path d="M42.1687 54.7313C42.1687 62.99 48.9866 69.6849 57.397 69.6849C65.8074 69.6849 72.6253 62.99 72.6253 54.7313C72.6253 46.4727 65.8074 39.7777 57.397 39.7777C48.9866 39.7777 42.1687 46.4727 42.1687 54.7313ZM44.4057 54.7313C44.4057 47.6858 50.2221 41.9743 57.397 41.9743C64.5719 41.9743 70.3884 47.6858 70.3884 54.7313C70.3884 61.7768 64.5719 67.4883 57.397 67.4883C50.2221 67.4883 44.4057 61.7768 44.4057 54.7313Z" fill="#3CD690"/>
<path d="M71.4675 56.6033C71.4623 56.6033 71.4571 56.603 71.452 56.6023C71.3852 56.5938 71.3381 56.5327 71.3466 56.4661C71.3909 56.1194 71.4224 55.7645 71.4399 55.4112C71.4433 55.344 71.5044 55.2912 71.5676 55.2956C71.6347 55.2989 71.6865 55.356 71.6831 55.4232C71.6653 55.7827 71.6333 56.1441 71.5882 56.497C71.5803 56.5584 71.5278 56.6033 71.4675 56.6033ZM71.3629 52.4219C71.3051 52.4219 71.2537 52.3805 71.2432 52.3216C71.0737 51.3761 70.8018 50.4457 70.4352 49.5563C70.4352 49.5563 70.435 49.5559 70.4349 49.5557C68.2745 44.3143 63.1567 40.9276 57.397 40.9276C54.7108 40.9276 52.0998 41.6737 49.8461 43.0852C49.7889 43.1207 49.714 43.1036 49.6782 43.0467C49.6426 42.9896 49.6598 42.9145 49.7168 42.8788C52.0094 41.443 54.6651 40.6841 57.397 40.6841C63.2555 40.6841 68.4614 44.1301 70.6599 49.4624C70.6599 49.4624 70.66 49.4627 70.6602 49.4628C71.0335 50.3686 71.3103 51.316 71.4829 52.2786C71.4948 52.3448 71.4508 52.4081 71.3846 52.4199C71.3772 52.4213 71.37 52.4219 71.3629 52.4219Z" fill="white"/>
<path d="M78.9703 46.6397C78.9604 46.708 79.8727 51.1784 79.8727 51.1784L82.4141 50.6032L82.179 46.2378C82.179 46.2378 79.1353 45.4962 78.9703 46.6397Z" fill="url(#paint21_linear_99_507)"/>
<path d="M81.6073 47.2105L81.911 49.4989C81.9149 49.5282 81.9149 49.5572 81.9107 49.5866C81.8851 49.7659 81.7516 50.3766 81.1352 50.202C80.5758 50.0435 80.063 49.9072 79.7087 50.0156C79.5497 50.0642 79.4537 50.2253 79.487 50.3883C79.57 50.7944 79.7739 51.7062 80.072 52.4713C80.1324 52.6266 80.3024 52.7081 80.4624 52.6615C80.9444 52.5209 81.9527 52.1961 82.7026 51.7448C82.8043 51.6836 82.8648 51.5732 82.8598 51.4546C82.8354 50.8769 82.7678 49.1209 82.8247 48.6286C82.8781 48.1665 83.4451 47.8898 83.6915 47.7905C83.7723 47.758 83.8356 47.6943 83.8679 47.6134C83.9819 47.3275 84.1392 46.666 83.3055 46.3949C83.131 46.3381 83.0391 46.15 83.1011 45.9773C83.2246 45.6335 83.2766 45.1089 82.6316 44.8199C81.9761 44.5261 81.4865 44.8756 81.2221 45.1596C81.1152 45.2744 80.9437 45.2919 80.8111 45.2081C80.7355 45.1604 80.6383 45.1447 80.5208 45.2179C80.3624 45.3166 80.1527 45.2493 80.071 45.0816C79.914 44.7594 79.594 44.4142 78.9522 44.5241C77.8134 44.7192 77.6844 45.9812 77.9848 46.7207C78.2852 47.4602 79.508 47.1786 80.1213 46.8058C80.5877 46.5223 81.1927 46.8194 81.4559 46.9781C81.5393 47.0284 81.5945 47.114 81.6073 47.2105Z" fill="url(#paint22_linear_99_507)"/>
<path d="M82.927 49.463C82.927 49.463 82.4588 48.1519 82.9398 47.8308C83.4208 47.5097 84.1332 47.6764 83.9764 48.6262C83.7813 49.8076 82.927 49.463 82.927 49.463Z" fill="url(#paint23_linear_99_507)"/>
<path d="M92.8381 68.1671L90.2173 67.9535L89.0823 68.9998C89.0823 68.9998 89.3508 69.371 90.1903 69.1576C91.0298 68.9443 92.1798 68.8919 92.1798 68.8919C92.1798 68.8919 93.3387 69.4144 93.3529 68.4368L92.8381 68.1671Z" fill="url(#paint24_linear_99_507)"/>
<path d="M72.5373 64.0823C72.3107 64.2594 71.5342 63.8897 71.0589 63.6341C70.8274 63.5095 70.7152 63.2387 70.7947 62.9881C70.9091 62.6275 71.0996 62.162 71.3344 62.1033C71.7239 62.0059 73.4713 63.3526 72.5373 64.0823Z" fill="url(#paint25_linear_99_507)"/>
<path d="M97.3161 74.5551C97.2656 74.5551 97.2185 74.5236 97.2011 74.4732C97.1791 74.4095 97.2128 74.3402 97.2763 74.3183C98.0504 74.0507 98.4557 73.6191 98.4809 73.0353C98.5066 72.443 98.1316 71.8921 97.548 71.6646L94.2192 70.3667C94.1565 70.3423 94.1255 70.2716 94.1499 70.209C94.1742 70.1463 94.245 70.1155 94.3076 70.1398L97.6363 71.4377C98.3172 71.7032 98.7543 72.3494 98.7241 73.0459C98.7035 73.5226 98.4495 74.1705 97.3559 74.5484C97.3428 74.553 97.3293 74.5551 97.3161 74.5551Z" fill="white"/>
<path d="M93.2379 69.9748C93.2232 69.9748 93.2081 69.9722 93.1937 69.9665L92.7622 69.7984C92.6995 69.774 92.6685 69.7033 92.6929 69.6407C92.7173 69.578 92.7882 69.5471 92.8506 69.5714L93.2821 69.7396C93.3447 69.764 93.3758 69.8347 93.3513 69.8972C93.3325 69.9454 93.2865 69.9748 93.2379 69.9748Z" fill="white"/>
<g opacity="0.3">
<path d="M39.7895 35.6924C39.9496 35.6568 40.1141 35.7471 40.1673 35.906C40.2838 36.2535 40.387 36.6112 40.4739 36.9692C40.5162 37.1434 40.4093 37.3188 40.2352 37.3611C40.2331 37.3616 40.2311 37.362 40.229 37.3625C40.057 37.4008 39.8851 37.2944 39.8434 37.1224C39.7608 36.7823 39.6628 36.4425 39.5521 36.1124C39.4951 35.9426 39.5867 35.7585 39.7566 35.7016C39.7675 35.6979 39.7785 35.6949 39.7895 35.6924ZM40.3836 38.4559C40.396 38.4531 40.4087 38.4511 40.4217 38.4497C40.5999 38.4316 40.7592 38.5614 40.7774 38.7397C40.8146 39.1059 40.8365 39.4773 40.8425 39.8435C40.8455 40.0227 40.7033 40.1698 40.5235 40.1733C40.3443 40.1763 40.1967 40.0333 40.1938 39.8543C40.188 39.5061 40.1671 39.1533 40.1317 38.8053C40.1149 38.64 40.2253 38.4911 40.3836 38.4559ZM40.3545 41.2814C40.3897 41.2735 40.4269 41.2715 40.4648 41.2761C40.6426 41.2982 40.769 41.4602 40.747 41.638C40.702 42.0026 40.6405 42.3697 40.5642 42.7292C40.5269 42.9045 40.3547 43.0162 40.1795 42.9793C40.0042 42.9421 39.8922 42.7698 39.9294 42.5946C40.0019 42.2532 40.0602 41.9046 40.1031 41.5584C40.1203 41.4185 40.2243 41.3104 40.3545 41.2814ZM39.6941 44.03C39.7524 44.0171 39.8149 44.02 39.8752 44.0419C40.0436 44.1031 40.1305 44.2893 40.0693 44.4577C39.9437 44.8031 39.8017 45.1473 39.6472 45.4806C39.5717 45.6429 39.379 45.7137 39.2164 45.6385C39.0538 45.5632 38.9831 45.3702 39.0584 45.2076C39.2052 44.8911 39.3401 44.5642 39.4593 44.2359C39.4987 44.1278 39.5895 44.0533 39.6941 44.03ZM38.4374 46.5623C38.5191 46.5441 38.6078 46.5574 38.6836 46.6063C38.8343 46.7033 38.8777 46.9041 38.7807 47.0547C38.5821 47.3629 38.3675 47.667 38.1428 47.9583C38.0335 48.1003 37.8298 48.1267 37.6878 48.0172C37.5459 47.9078 37.5196 47.7041 37.629 47.5621C37.8426 47.2852 38.0465 46.9962 38.2352 46.7033C38.2833 46.6286 38.357 46.5802 38.4374 46.5623ZM36.6519 48.7534C36.7577 48.7298 36.873 48.7597 36.9544 48.8429C37.0799 48.9709 37.0778 49.1762 36.9499 49.3017C36.6877 49.5588 36.4111 49.8079 36.1279 50.0418C35.9897 50.156 35.7852 50.1365 35.6711 49.9983C35.557 49.8603 35.5765 49.6557 35.7146 49.5416C35.9837 49.3192 36.2465 49.0826 36.4956 48.8383C36.5405 48.7943 36.5948 48.7661 36.6519 48.7534ZM25.2151 52.0922C25.259 52.0824 25.3054 52.0817 25.3522 52.0915C25.6934 52.1633 26.0422 52.2211 26.3891 52.2634C26.5669 52.285 26.6936 52.4468 26.6719 52.6246C26.6503 52.8025 26.4886 52.9291 26.3106 52.9074C25.9454 52.863 25.5779 52.8021 25.2187 52.7266C25.0433 52.6897 24.9311 52.5176 24.968 52.3422C24.995 52.2136 25.0947 52.119 25.2151 52.0922ZM34.4267 50.4932C34.5581 50.4639 34.6992 50.519 34.7736 50.64C34.8675 50.7927 34.8198 50.9925 34.6672 51.0864C34.3544 51.2788 34.0293 51.4598 33.701 51.6246C33.5406 51.7043 33.3459 51.6405 33.2655 51.4803C33.1851 51.3202 33.2497 51.1252 33.4099 51.0447C33.7216 50.8883 34.0302 50.7163 34.3273 50.5336C34.3589 50.5143 34.3925 50.5008 34.4267 50.4932ZM28.0289 52.3585C28.0498 52.3539 28.0715 52.3511 28.0937 52.3507C28.4425 52.3443 28.7956 52.3227 29.1432 52.2867C29.3215 52.2683 29.481 52.3978 29.4994 52.576C29.5178 52.7542 29.3886 52.9145 29.2101 52.9322C28.8444 52.97 28.4728 52.9928 28.1058 52.9996C27.9267 53.0029 27.7787 52.8603 27.7754 52.6812C27.7725 52.5243 27.8815 52.3913 28.0289 52.3585ZM31.8687 51.6923C32.0285 51.6567 32.1927 51.7467 32.2462 51.9053C32.3035 52.0751 32.2123 52.2592 32.0426 52.3166C31.695 52.4338 31.3376 52.5377 30.9804 52.6251C30.9782 52.6257 30.9759 52.6262 30.9737 52.6267C30.8018 52.665 30.6302 52.5589 30.5881 52.3872C30.5455 52.2131 30.652 52.0374 30.8261 51.9949C31.1654 51.9118 31.5048 51.8131 31.8351 51.7016C31.8462 51.698 31.8575 51.6948 31.8687 51.6923Z" fill="url(#paint26_linear_99_507)"/>
<path d="M23.0373 51.4234C23.0996 51.4095 23.1668 51.4138 23.2304 51.4399C23.3852 51.5033 23.5439 51.5644 23.7021 51.6219C23.8705 51.6829 23.9577 51.8691 23.8966 52.0375C23.8355 52.2059 23.6494 52.2932 23.4809 52.2318C23.3145 52.1715 23.1476 52.1072 22.9846 52.0405C22.8188 51.9726 22.7393 51.7831 22.8072 51.6174C22.849 51.5151 22.9371 51.4457 23.0373 51.4234Z" fill="url(#paint27_linear_99_507)"/>
</g>
<g opacity="0.3">
<path d="M16.0727 44.3989C16.2255 44.3649 16.3848 44.4458 16.4444 44.596C16.5061 44.7514 16.5722 44.9082 16.6407 45.0619C16.7136 45.2256 16.6401 45.4174 16.4764 45.4904C16.3121 45.5636 16.1209 45.4897 16.048 45.3261C15.9759 45.1643 15.9064 44.9992 15.8413 44.8355C15.7752 44.669 15.8566 44.4804 16.0231 44.4142C16.0395 44.4077 16.0561 44.4027 16.0727 44.3989Z" fill="url(#paint28_linear_99_507)"/>
<path d="M25.0538 27.3945C25.1995 27.3621 25.3464 27.332 25.4943 27.3042C25.6704 27.2712 25.84 27.3872 25.873 27.5633C25.9061 27.7394 25.7894 27.9098 25.614 27.9421C25.2727 28.0062 24.9348 28.0839 24.6058 28.1743C24.4328 28.2215 24.2545 28.1203 24.207 27.9475C24.1595 27.7746 24.2611 27.5961 24.4339 27.5486C24.6373 27.4926 24.8459 27.4408 25.0538 27.3945ZM27.1955 27.1041C27.2132 27.1001 27.2315 27.0977 27.2503 27.0967C27.6118 27.0786 27.9782 27.0757 28.3391 27.088C28.5181 27.0941 28.6584 27.2443 28.6523 27.4233C28.6461 27.6024 28.4958 27.7431 28.3169 27.7365C27.9742 27.7248 27.6261 27.7276 27.2825 27.7447C27.1036 27.7536 26.9513 27.6158 26.9424 27.4369C26.9344 27.2767 27.044 27.1378 27.1955 27.1041ZM22.8229 28.1141C22.9722 28.0809 23.1287 28.1573 23.1912 28.3029C23.2618 28.4677 23.1856 28.6584 23.0209 28.7291C22.7059 28.8642 22.3924 29.0146 22.089 29.1765C21.9307 29.2606 21.7343 29.201 21.65 29.0429C21.5657 28.8847 21.6256 28.6882 21.7837 28.6039C22.1031 28.4335 22.4334 28.275 22.7651 28.1327C22.7841 28.1246 22.8034 28.1185 22.8229 28.1141ZM29.9726 27.2723C30.0128 27.2633 30.0554 27.262 30.0984 27.2694C30.4548 27.3312 30.8128 27.4089 31.1625 27.5005C31.3358 27.5459 31.4395 27.7231 31.3941 27.8964C31.3487 28.0699 31.1715 28.1736 30.9981 28.1281C30.666 28.0412 30.3261 27.9673 29.9876 27.9087C29.8111 27.8782 29.6927 27.7102 29.7234 27.5337C29.7465 27.4003 29.8481 27.3 29.9726 27.2723ZM20.4052 29.4862C20.5277 29.4589 20.6603 29.5044 20.7386 29.6125C20.8438 29.7576 20.8114 29.9605 20.6663 30.0657C20.3889 30.2667 20.1161 30.4825 19.8556 30.7069C19.7199 30.8239 19.515 30.8088 19.398 30.6729C19.281 30.5372 19.2963 30.3324 19.432 30.2154C19.7062 29.979 19.9934 29.7519 20.2855 29.5402C20.3225 29.5135 20.3633 29.4956 20.4052 29.4862ZM18.3472 31.3556C18.4451 31.3338 18.5518 31.3576 18.6327 31.429C18.767 31.5476 18.7798 31.7527 18.6612 31.887C18.4338 32.1446 18.2145 32.4148 18.0096 32.69C17.9028 32.8339 17.6995 32.8637 17.5556 32.7566C17.4119 32.6495 17.3821 32.4464 17.4891 32.3025C17.7047 32.0129 17.9354 31.7286 18.1748 31.4575C18.2219 31.4042 18.2826 31.37 18.3472 31.3556ZM16.7456 33.6292C16.8201 33.6126 16.9006 33.6221 16.9727 33.6618C17.1296 33.7483 17.1867 33.9457 17.1002 34.1026C16.9341 34.4038 16.7789 34.7152 16.6389 35.0284C16.5658 35.1919 16.3741 35.2654 16.2103 35.1922C16.0468 35.119 15.9734 34.9272 16.0466 34.7635C16.1939 34.434 16.3572 34.1061 16.5319 33.7892C16.5787 33.7044 16.658 33.6487 16.7456 33.6292ZM15.6782 36.1978C15.7298 36.1863 15.7848 36.1873 15.8392 36.2031C16.0112 36.2532 16.11 36.4332 16.0599 36.6053C15.9637 36.9353 15.8806 37.2731 15.8128 37.6095C15.7774 37.7851 15.6061 37.8988 15.4307 37.8635C15.255 37.8281 15.1413 37.657 15.1767 37.4813C15.2481 37.1271 15.3357 36.7713 15.4369 36.4239C15.4712 36.3061 15.5664 36.2227 15.6782 36.1978ZM15.2004 38.9391C15.2294 38.9327 15.2598 38.9302 15.291 38.9321C15.4698 38.943 15.6059 39.0969 15.5949 39.2757C15.5739 39.618 15.5673 39.9656 15.5753 40.3092C15.5794 40.4884 15.437 40.6369 15.2584 40.6411C15.0793 40.6453 14.9307 40.5033 14.9265 40.3241C14.9181 39.9625 14.9251 39.5964 14.9473 39.2361C14.9563 39.0884 15.0629 38.9698 15.2004 38.9391ZM15.3365 41.7165C15.343 41.7151 15.3496 41.7139 15.3562 41.7128C15.5332 41.6845 15.6995 41.8051 15.7277 41.9821C15.7676 42.2318 15.8156 42.4833 15.8705 42.7297C15.8903 42.8189 15.9112 42.9077 15.9329 42.996C15.9756 43.1701 15.8692 43.3458 15.6952 43.3885C15.5199 43.4352 15.3455 43.3248 15.3028 43.1509C15.2799 43.0579 15.258 42.9647 15.2371 42.8708C15.1794 42.6116 15.1289 42.3469 15.087 42.0842C15.0597 41.914 15.1704 41.7535 15.3365 41.7165Z" fill="url(#paint29_linear_99_507)"/>
<path d="M32.6517 28.051C32.7147 28.037 32.7823 28.0415 32.8464 28.068C33.0086 28.1354 33.1725 28.2074 33.3334 28.2822C33.496 28.3576 33.5666 28.5506 33.4911 28.7131C33.4156 28.8756 33.2229 28.9463 33.0602 28.8707C32.9073 28.7997 32.7516 28.7313 32.5976 28.6673C32.4321 28.5988 32.3536 28.4089 32.4223 28.2434C32.4644 28.1419 32.5521 28.0732 32.6517 28.051Z" fill="url(#paint30_linear_99_507)"/>
</g>
<path d="M33.0424 31.8194C32.9916 31.7794 32.921 31.776 32.8666 31.811L31.3143 32.8093C30.5334 32.4445 29.6887 32.2014 28.8073 32.1024L28.0046 30.4418C27.9764 30.3836 27.9144 30.3496 27.8502 30.3573L25.6518 30.6183C25.5875 30.626 25.5352 30.6735 25.5215 30.7367L25.13 32.5391C24.2963 32.8419 23.532 33.2759 22.8583 33.8136L21.1153 33.2065C21.0542 33.1852 20.9864 33.205 20.9464 33.2559L19.5765 34.995C19.5365 35.0458 19.5331 35.1164 19.5681 35.1708L20.5665 36.7231C20.2016 37.504 19.9586 38.3487 19.8596 39.2301L18.1989 40.0329C18.1407 40.061 18.1067 40.123 18.1143 40.1872L18.3754 42.3856C18.383 42.4499 18.4306 42.5022 18.4938 42.5159L20.2963 42.9074C20.599 43.7411 21.033 44.5054 21.5707 45.179L20.9637 46.9221C20.9424 46.9831 20.9622 47.051 21.013 47.091L22.7521 48.4609C22.8029 48.501 22.8736 48.5043 22.928 48.4693L24.4803 47.4709C25.2611 47.8359 26.1058 48.0788 26.9873 48.1778L27.79 49.8385C27.8181 49.8967 27.8801 49.9307 27.9444 49.9231L30.1427 49.662C30.207 49.6544 30.2593 49.6068 30.273 49.5436L30.6645 47.7412C31.4982 47.4385 32.2625 47.0044 32.9362 46.4668L34.6791 47.0738C34.7402 47.0951 34.8081 47.0752 34.8481 47.0244L36.218 45.2853C36.2581 45.2345 36.2614 45.1639 36.2264 45.1095L35.2281 43.5572C35.5929 42.7763 35.8359 41.9316 35.935 41.0502L37.5956 40.2475C37.6538 40.2193 37.6878 40.1573 37.6801 40.093L37.4191 37.8947C37.4114 37.8305 37.3639 37.7781 37.3007 37.7644L35.4983 37.3729C35.1955 36.5392 34.7615 35.7749 34.2238 35.1012L34.8309 33.3583C34.8521 33.2972 34.8323 33.2293 34.7815 33.1893L33.0424 31.8194Z" fill="url(#paint31_linear_99_507)"/>
<path opacity="0.56" d="M27.4148 37.9676C28.4736 37.7318 29.5765 38.3022 29.9755 39.3448C30.4141 40.4909 29.8385 41.7799 28.6925 42.2185C28.1374 42.4311 27.5327 42.4145 26.99 42.1722C26.4473 41.9299 26.0313 41.4907 25.819 40.9355C25.3804 39.7895 25.956 38.5004 27.1019 38.0619C27.2053 38.0224 27.3099 37.991 27.4148 37.9676ZM28.2647 41.8066C28.3465 41.7884 28.4274 41.7641 28.5071 41.7337C29.3857 41.3975 29.8269 40.409 29.4908 39.5304C29.1545 38.6518 28.1662 38.2101 27.2875 38.5467C26.4088 38.8829 25.9676 39.8713 26.3037 40.7499C26.4667 41.1756 26.7855 41.5123 27.2017 41.6981C27.5399 41.8491 27.9096 41.8857 28.2647 41.8066Z" fill="white"/>
<path opacity="0.56" d="M26.6718 34.8403C26.8536 34.7998 27.0385 34.7682 27.226 34.7459C27.285 34.7389 27.3442 34.7329 27.4035 34.7277C27.6955 34.7025 27.9891 34.7006 28.2797 34.722C28.2837 34.7223 28.2876 34.7226 28.2916 34.7228C28.3028 34.7237 28.3141 34.7246 28.3253 34.7256C28.3472 34.7273 28.3691 34.7293 28.3909 34.7314C28.4483 34.7368 28.4935 34.7788 28.5054 34.8322C28.5083 34.8452 28.5092 34.8589 28.5079 34.8728C28.5012 34.9441 28.4378 34.9963 28.3665 34.9897C27.9993 34.955 27.626 34.9598 27.2568 35.0037C25.4227 35.2212 23.9225 36.3718 23.1743 37.9236C22.758 38.7867 22.5745 39.774 22.6957 40.7941C22.7169 40.973 22.747 41.1494 22.7857 41.3229C23.0458 42.4901 23.694 43.5238 24.6462 44.2737C25.7398 45.1352 27.1035 45.5193 28.486 45.3551C31.3411 45.0157 33.386 42.4185 33.0471 39.5647C33.0262 39.3888 32.9965 39.2145 32.9581 39.0427C32.7922 38.2981 32.4651 37.5981 31.998 36.9942C31.9859 36.9785 31.978 36.9611 31.974 36.943C31.9634 36.8955 31.9801 36.8439 32.0213 36.8121C32.0782 36.7684 32.1595 36.7785 32.2034 36.8354C32.6938 37.4696 33.0372 38.2045 33.2115 38.9861C33.2517 39.1665 33.2829 39.3494 33.3049 39.534C33.6607 42.5302 31.5118 45.2571 28.5166 45.6129C27.0653 45.7853 25.6337 45.3821 24.4856 44.4776C23.486 43.6904 22.8055 42.6052 22.5324 41.3798C22.4918 41.1977 22.4602 41.0124 22.4379 40.8247C22.2656 39.3733 22.6687 37.9417 23.573 36.7936C24.3605 35.7938 25.4461 35.1133 26.6718 34.8403Z" fill="white"/>
<g opacity="0.3">
<path d="M48.738 24.9396C48.8227 24.9207 48.9129 24.9586 48.9569 25.0384C49.0392 25.1873 49.1181 25.3407 49.1913 25.4944C49.2389 25.5943 49.1966 25.7138 49.0966 25.7615C48.9968 25.8096 48.8772 25.7667 48.8295 25.6669C48.7597 25.5204 48.6846 25.3742 48.6061 25.2321C48.5525 25.1353 48.5878 25.0134 48.6846 24.9597C48.7018 24.9503 48.7198 24.9437 48.738 24.9396Z" fill="url(#paint32_linear_99_507)"/>
<path d="M49.3564 26.3516C49.4555 26.3295 49.5572 26.3856 49.5899 26.484C49.6823 26.762 49.7614 27.0479 49.8251 27.3337C49.8384 27.3938 49.8512 27.4544 49.8635 27.5152C49.8852 27.6238 49.8082 27.7266 49.7064 27.7513C49.5979 27.773 49.4923 27.7027 49.4705 27.5943C49.4588 27.5361 49.4467 27.4783 49.4339 27.4208C49.3732 27.1482 49.2977 26.8755 49.2097 26.6104C49.1747 26.5053 49.2316 26.392 49.3365 26.357C49.3432 26.355 49.3498 26.3531 49.3564 26.3516ZM49.7657 28.3917C49.7749 28.3896 49.7845 28.3881 49.7942 28.3873C49.9046 28.3789 50.0009 28.4616 50.0093 28.5719C50.0365 28.926 50.0418 29.2849 50.0252 29.6385C50.0201 29.7491 49.9257 29.8342 49.8157 29.8293C49.7051 29.824 49.6198 29.7303 49.6249 29.6198C49.6407 29.2824 49.6355 28.9401 49.6097 28.6024C49.602 28.5019 49.67 28.413 49.7657 28.3917ZM49.668 30.47C49.6928 30.4645 49.7191 30.4637 49.7457 30.4682C49.8547 30.487 49.9278 30.5908 49.909 30.6999C49.8485 31.0492 49.7655 31.3987 49.6621 31.7383C49.6299 31.8443 49.5182 31.9038 49.412 31.8716C49.3062 31.8394 49.2465 31.7274 49.2787 31.6216C49.3772 31.2977 49.4564 30.9647 49.514 30.6314C49.5283 30.5491 49.5911 30.4872 49.668 30.47ZM49.0624 32.4609C49.1029 32.4519 49.1464 32.4554 49.1872 32.4734C49.2883 32.5184 49.3339 32.637 49.2888 32.738C49.1443 33.0626 48.9784 33.3808 48.7955 33.6842C48.7383 33.7789 48.615 33.8092 48.5205 33.7523C48.4257 33.6952 48.3951 33.5721 48.4523 33.4772C48.6266 33.1881 48.7849 32.8844 48.9227 32.575C48.9495 32.5147 49.0025 32.4742 49.0624 32.4609ZM47.9889 34.2434C48.0454 34.2308 48.1071 34.2427 48.1562 34.2813C48.2433 34.3495 48.2585 34.4754 48.1903 34.5626C47.9714 34.8417 47.7333 35.1101 47.4824 35.3601C47.404 35.4385 47.2771 35.438 47.199 35.3596C47.1209 35.2812 47.121 35.1542 47.1994 35.0762C47.4388 34.8377 47.666 34.5817 47.8748 34.3153C47.9045 34.2774 47.9452 34.2531 47.9889 34.2434ZM46.5155 35.7111C46.5887 35.6948 46.6683 35.7206 46.7174 35.7838C46.7853 35.8712 46.7694 35.997 46.6821 36.065C46.402 36.2826 46.1056 36.4847 45.8012 36.6656C45.7056 36.722 45.5831 36.6907 45.5265 36.5957C45.47 36.5006 45.5013 36.3775 45.5964 36.3211C45.8867 36.1485 46.1691 35.9559 46.4362 35.7485C46.4604 35.7296 46.4875 35.7174 46.5155 35.7111ZM44.7284 36.7738C44.8201 36.7534 44.9164 36.7999 44.9554 36.8891C44.9997 36.9905 44.9535 37.1086 44.8521 37.1531C44.5282 37.2948 44.1911 37.418 43.8502 37.5194C43.7434 37.5492 43.6324 37.4903 43.601 37.3842C43.5695 37.2782 43.6299 37.1666 43.7359 37.135C44.0612 37.0385 44.3827 36.921 44.6915 36.7859C44.7036 36.7805 44.716 36.7766 44.7284 36.7738ZM41.6971 37.475C41.7084 37.4725 41.7201 37.4709 41.7322 37.4704C42.0241 37.4577 42.3204 37.4288 42.613 37.3845C42.6573 37.378 42.7008 37.3711 42.7441 37.3637C42.8533 37.3454 42.9566 37.4188 42.975 37.528C42.9937 37.6373 42.92 37.744 42.8108 37.7591C42.7646 37.7668 42.7185 37.7742 42.672 37.781C42.3663 37.8272 42.0557 37.8575 41.7496 37.8707C41.639 37.8755 41.5455 37.7899 41.5407 37.6793C41.5364 37.5808 41.604 37.4958 41.6971 37.475Z" fill="url(#paint33_linear_99_507)"/>
</g>
<g opacity="0.3">
<path d="M39.382 20.8017C39.4888 20.7779 39.5952 20.8444 39.6205 20.9512C39.646 21.0589 39.5793 21.1669 39.4716 21.1923C39.1474 21.2689 38.825 21.366 38.5136 21.4809C38.4101 21.518 38.2945 21.4661 38.2562 21.3622C38.2179 21.2583 38.2711 21.1431 38.3749 21.1048C38.7016 20.9845 39.0395 20.8826 39.3793 20.8023C39.3802 20.8021 39.3812 20.8019 39.382 20.8017ZM40.3921 20.6262C40.3991 20.6246 40.4062 20.6235 40.4135 20.6227C40.7602 20.5835 41.1128 20.5651 41.4615 20.5679C41.5721 20.5689 41.6611 20.6591 41.6602 20.7698C41.6594 20.8807 41.5683 20.9693 41.4583 20.9688C41.1256 20.9661 40.7892 20.9837 40.4583 21.0209C40.3484 21.0333 40.2492 20.9542 40.2368 20.8443C40.2253 20.7414 40.2935 20.6482 40.3921 20.6262ZM37.4623 21.5099C37.5491 21.4906 37.6413 21.531 37.6839 21.6138C37.7346 21.712 37.696 21.8328 37.5977 21.8836C37.3014 22.0366 37.0121 22.2087 36.7375 22.3956C36.6456 22.4576 36.5214 22.4341 36.4592 22.3425C36.3969 22.2511 36.4206 22.1263 36.5121 22.064C36.7999 21.8682 37.1034 21.6877 37.4139 21.5275C37.4297 21.5194 37.4459 21.5136 37.4623 21.5099ZM42.4393 20.6438C42.4616 20.6389 42.485 20.6376 42.509 20.6407C42.8551 20.6861 43.2019 20.7534 43.5397 20.8408C43.6469 20.8684 43.7112 20.9778 43.6836 21.085C43.6558 21.1918 43.5465 21.2563 43.4395 21.2288C43.1174 21.1456 42.7868 21.0815 42.4568 21.0381C42.3471 21.0236 42.2698 20.923 42.2842 20.8133C42.2955 20.7276 42.3595 20.6616 42.4393 20.6438ZM35.771 22.6612C35.8403 22.6457 35.9156 22.6676 35.9655 22.7247C36.0385 22.8081 36.03 22.9346 35.9468 23.0076C35.6965 23.2265 35.4571 23.4631 35.2351 23.711C35.1612 23.7936 35.0345 23.8004 34.9521 23.7265C34.8697 23.6526 34.8627 23.5259 34.9366 23.4435C35.1694 23.1837 35.4204 22.9355 35.6827 22.7059C35.7089 22.683 35.7394 22.6682 35.771 22.6612ZM34.4051 24.1846C34.4581 24.1727 34.5157 24.1824 34.5636 24.2158C34.6543 24.2792 34.6765 24.4042 34.6131 24.4949C34.4222 24.7682 34.2462 25.0554 34.09 25.3484C34.0379 25.4462 33.9164 25.4831 33.8189 25.4311C33.7212 25.379 33.6843 25.2578 33.7363 25.1601C33.9 24.8528 34.0844 24.5517 34.2845 24.2653C34.3144 24.2226 34.3579 24.1951 34.4051 24.1846ZM33.4434 25.9915C33.4807 25.9832 33.5207 25.9853 33.559 26.0002C33.6623 26.04 33.7137 26.156 33.6738 26.2593C33.5537 26.5702 33.4518 26.8912 33.3709 27.2134C33.3438 27.3205 33.235 27.3858 33.1277 27.3588C33.0203 27.3318 32.9552 27.2229 32.9822 27.1155C33.0671 26.7778 33.174 26.441 33.2998 26.1149C33.325 26.05 33.3802 26.0055 33.4434 25.9915Z" fill="url(#paint34_linear_99_507)"/>
<path d="M44.4303 21.159C44.468 21.1506 44.5085 21.153 44.5472 21.1682C44.7068 21.2311 44.8652 21.2991 45.0181 21.3701C45.1184 21.4167 45.1621 21.5359 45.1155 21.6363C45.0687 21.7364 44.9498 21.7801 44.8493 21.7337C44.7035 21.6659 44.5523 21.6011 44.4001 21.541C44.2971 21.5004 44.2466 21.384 44.2872 21.2811C44.3126 21.2168 44.3675 21.1729 44.4303 21.159Z" fill="url(#paint35_linear_99_507)"/>
</g>
<path d="M44.8305 23.7219C44.7965 23.6951 44.7492 23.6929 44.7128 23.7163L43.6741 24.3843C43.1516 24.1402 42.5864 23.9776 41.9965 23.9113L41.4594 22.8001C41.4405 22.7611 41.399 22.7384 41.3561 22.7435L39.885 22.9182C39.842 22.9233 39.807 22.9551 39.7978 22.9974L39.5359 24.2035C38.978 24.4061 38.4665 24.6965 38.0158 25.0563L36.8495 24.6501C36.8086 24.6359 36.7632 24.6491 36.7364 24.6831L35.8197 25.8469C35.7929 25.8809 35.7907 25.9281 35.8141 25.9645L36.4822 27.0033C36.238 27.5258 36.0754 28.091 36.0091 28.6809L34.8979 29.218C34.8589 29.2368 34.8362 29.2783 34.8413 29.3213L35.016 30.7924C35.0211 30.8354 35.0529 30.8704 35.0952 30.8795L36.3013 31.1415C36.5039 31.6994 36.7943 32.2108 37.1541 32.6616L36.7479 33.8279C36.7337 33.8688 36.7469 33.9142 36.7809 33.941L37.9447 34.8576C37.9787 34.8844 38.0259 34.8867 38.0623 34.8633L39.1011 34.1952C39.6236 34.4394 40.1888 34.6019 40.7786 34.6682L41.3158 35.7795C41.3346 35.8184 41.3761 35.8412 41.4191 35.8361L42.8902 35.6614C42.9332 35.6563 42.9682 35.6245 42.9774 35.5822L43.2393 34.376C43.7972 34.1735 44.3086 33.883 44.7594 33.5233L45.9257 33.9295C45.9666 33.9437 46.012 33.9304 46.0388 33.8964L46.9555 32.7327C46.9822 32.6987 46.9845 32.6515 46.9611 32.615L46.2931 31.5763C46.5372 31.0538 46.6998 30.4886 46.7661 29.8987L47.8773 29.3616C47.9163 29.3428 47.939 29.3013 47.9339 29.2583L47.7592 27.7872C47.7541 27.7442 47.7223 27.7092 47.68 27.7L46.4739 27.4381C46.2713 26.8802 45.9809 26.3688 45.6211 25.9179L46.0273 24.7516C46.0415 24.7107 46.0283 24.6653 45.9943 24.6385L44.8305 23.7219Z" fill="url(#paint36_linear_99_507)"/>
<path opacity="0.56" d="M41.0611 27.8094C41.3766 27.7391 41.705 27.7716 42.0056 27.9058C42.3753 28.0708 42.6585 28.37 42.8032 28.7482C43.1019 29.5286 42.7099 30.4066 41.9294 30.7056C41.1472 31.0033 40.2705 30.6121 39.9718 29.8316C39.8271 29.4534 39.8383 29.0415 40.0034 28.6719C40.1684 28.3022 40.4676 28.0188 40.8459 27.8742C40.9166 27.8472 40.9885 27.8255 41.0611 27.8094ZM41.6293 30.3784C41.6819 30.3667 41.7343 30.351 41.7861 30.3313C42.3603 30.1114 42.6486 29.4655 42.4289 28.8913C42.3224 28.6133 42.1141 28.3931 41.8422 28.2718C41.5701 28.1503 41.2673 28.1424 40.989 28.2485C40.7109 28.3549 40.4907 28.5634 40.3693 28.8352C40.2479 29.1073 40.2397 29.4102 40.3461 29.6885C40.546 30.2107 41.0988 30.4966 41.6293 30.3784Z" fill="white"/>
<path opacity="0.56" d="M40.5465 25.632C40.6703 25.6044 40.7965 25.5829 40.9249 25.5675C41.1801 25.5372 41.4386 25.5327 41.694 25.5544C41.7055 25.5555 41.7169 25.5565 41.7284 25.5576C41.8171 25.5659 41.8868 25.6308 41.9053 25.7133C41.9097 25.7334 41.9111 25.7545 41.9091 25.776C41.8988 25.8862 41.8008 25.9665 41.6908 25.9566C41.4526 25.934 41.2109 25.9371 40.9724 25.9656L40.9723 25.9656C40.9592 25.9671 40.9461 25.9689 40.9331 25.9706C40.3694 26.043 39.845 26.2532 39.3963 26.5777C39.1527 26.7539 38.9314 26.9639 38.7385 27.2044C38.7369 27.2063 38.7353 27.2083 38.7338 27.2102C38.729 27.2163 38.7242 27.2222 38.7195 27.2283C38.1619 27.9363 37.9132 28.8191 38.0196 29.7141C38.0332 29.8299 38.0527 29.9441 38.0777 30.0564C38.2462 30.812 38.6659 31.4812 39.2823 31.9668C39.9903 32.5245 40.8731 32.773 41.768 32.6667C42.6623 32.5601 43.4629 32.1119 44.0207 31.404C44.5784 30.696 44.827 29.8131 44.7207 28.9182C44.7073 28.8043 44.688 28.6915 44.6632 28.5803C44.5557 28.0982 44.3441 27.6452 44.0416 27.2542C44.023 27.2301 44.0107 27.2032 44.0046 27.1752C43.9883 27.1019 44.0141 27.0222 44.0776 26.9731C44.1653 26.9057 44.2909 26.9214 44.3588 27.0091C44.6971 27.4466 44.934 27.9536 45.0543 28.4928C45.0821 28.6174 45.1037 28.7435 45.1188 28.8708C45.2377 29.8723 44.9596 30.8599 44.3355 31.6521C43.7116 32.4441 42.8172 32.9464 41.8153 33.0647C40.814 33.1837 39.8264 32.9057 39.0343 32.2815C38.3447 31.7384 37.8752 30.9897 37.6868 30.1443C37.6588 30.0188 37.6369 29.8909 37.6215 29.7615C37.3914 27.8228 38.6805 26.0476 40.5465 25.632Z" fill="white"/>
<defs>
<linearGradient id="paint0_linear_99_507" x1="113" y1="106.746" x2="45.3028" y2="47.5106" gradientUnits="userSpaceOnUse">
<stop stop-color="#B37CFF"/>
<stop offset="1" stop-color="#F895E7"/>
</linearGradient>
<linearGradient id="paint1_linear_99_507" x1="98.8493" y1="37.687" x2="72.4786" y2="45.2446" gradientUnits="userSpaceOnUse">
<stop stop-color="#A737D5"/>
<stop offset="1" stop-color="#EF497A"/>
</linearGradient>
<linearGradient id="paint2_linear_99_507" x1="96.186" y1="67.2179" x2="92.7772" y2="33.7356" gradientUnits="userSpaceOnUse">
<stop stop-color="#CE1567"/>
<stop offset="1" stop-color="#7A1DBC"/>
</linearGradient>
<linearGradient id="paint3_linear_99_507" x1="67.6727" y1="93.8892" x2="49.5169" y2="39.4218" gradientUnits="userSpaceOnUse">
<stop stop-color="#2B3582"/>
<stop offset="1" stop-color="#150E42"/>
</linearGradient>
<linearGradient id="paint4_linear_99_507" x1="89.0737" y1="47.9854" x2="-40.742" y2="158.472" gradientUnits="userSpaceOnUse">
<stop stop-color="#FDF53F"/>
<stop offset="1" stop-color="#D93C65"/>
</linearGradient>
<linearGradient id="paint5_linear_99_507" x1="25.413" y1="90.6299" x2="106.293" y2="110.303" gradientUnits="userSpaceOnUse">
<stop stop-color="#2B3582"/>
<stop offset="1" stop-color="#150E42"/>
</linearGradient>
<linearGradient id="paint6_linear_99_507" x1="85.7321" y1="32.1513" x2="74.4793" y2="44.8427" gradientUnits="userSpaceOnUse">
<stop stop-color="#53D8FF"/>
<stop offset="0.2057" stop-color="#4DB9FD"/>
<stop offset="1" stop-color="#3840F7"/>
</linearGradient>
<linearGradient id="paint7_linear_99_507" x1="99.5129" y1="198.814" x2="98.4695" y2="189.973" gradientUnits="userSpaceOnUse">
<stop stop-color="#53D8FF"/>
<stop offset="0.2057" stop-color="#4DB9FD"/>
<stop offset="1" stop-color="#3840F7"/>
</linearGradient>
<linearGradient id="paint8_linear_99_507" x1="90.5109" y1="95.8511" x2="84.6472" y2="95.8511" gradientUnits="userSpaceOnUse">
<stop stop-color="#2B3582"/>
<stop offset="1" stop-color="#150E42"/>
</linearGradient>
<linearGradient id="paint9_linear_99_507" x1="89.9535" y1="94.2002" x2="88.2539" y2="94.2002" gradientUnits="userSpaceOnUse">
<stop stop-color="#F9B776"/>
<stop offset="1" stop-color="#F47960"/>
</linearGradient>
<linearGradient id="paint10_linear_99_507" x1="113.235" y1="197.194" x2="112.192" y2="188.353" gradientUnits="userSpaceOnUse">
<stop stop-color="#53D8FF"/>
<stop offset="0.2057" stop-color="#4DB9FD"/>
<stop offset="1" stop-color="#3840F7"/>
</linearGradient>
<linearGradient id="paint11_linear_99_507" x1="102.522" y1="95.1232" x2="99.1284" y2="95.1232" gradientUnits="userSpaceOnUse">
<stop stop-color="#2B3582"/>
<stop offset="1" stop-color="#150E42"/>
</linearGradient>
<linearGradient id="paint12_linear_99_507" x1="100.758" y1="92.7833" x2="98.7271" y2="92.7833" gradientUnits="userSpaceOnUse">
<stop stop-color="#F9B776"/>
<stop offset="1" stop-color="#F47960"/>
</linearGradient>
<linearGradient id="paint13_linear_99_507" x1="105.463" y1="98.7232" x2="78.7807" y2="68.535" gradientUnits="userSpaceOnUse">
<stop stop-color="#2B3582"/>
<stop offset="1" stop-color="#150E42"/>
</linearGradient>
<linearGradient id="paint14_linear_99_507" x1="75.2148" y1="50.3828" x2="121.778" y2="90.8813" gradientUnits="userSpaceOnUse">
<stop stop-color="#CB236D"/>
<stop offset="1" stop-color="#4C246D"/>
</linearGradient>
<linearGradient id="paint15_linear_99_507" x1="93.1182" y1="52.8692" x2="87.8465" y2="77.2508" gradientUnits="userSpaceOnUse">
<stop stop-color="#53D8FF"/>
<stop offset="1" stop-color="#3840F7"/>
</linearGradient>
<linearGradient id="paint16_linear_99_507" x1="91.4525" y1="63.1766" x2="98.6831" y2="69.5795" gradientUnits="userSpaceOnUse">
<stop stop-color="#F9B776"/>
<stop offset="1" stop-color="#F47960"/>
</linearGradient>
<linearGradient id="paint17_linear_99_507" x1="79.0967" y1="46.091" x2="125.45" y2="86.4069" gradientUnits="userSpaceOnUse">
<stop stop-color="#CB236D"/>
<stop offset="1" stop-color="#4C246D"/>
</linearGradient>
<linearGradient id="paint18_linear_99_507" x1="71.8098" y1="54.469" x2="118.163" y2="94.7849" gradientUnits="userSpaceOnUse">
<stop stop-color="#CB236D"/>
<stop offset="1" stop-color="#4C246D"/>
</linearGradient>
<linearGradient id="paint19_linear_99_507" x1="77.898" y1="63.7822" x2="72.2036" y2="63.7822" gradientUnits="userSpaceOnUse">
<stop stop-color="#F9B776"/>
<stop offset="1" stop-color="#F47960"/>
</linearGradient>
<linearGradient id="paint20_linear_99_507" x1="83.4331" y1="48.5648" x2="83.4952" y2="59.1986" gradientUnits="userSpaceOnUse">
<stop stop-color="#F9B776"/>
<stop offset="1" stop-color="#F47960"/>
</linearGradient>
<linearGradient id="paint21_linear_99_507" x1="79.9826" y1="46.8163" x2="84.1743" y2="54.4172" gradientUnits="userSpaceOnUse">
<stop stop-color="#F9B776"/>
<stop offset="1" stop-color="#F47960"/>
</linearGradient>
<linearGradient id="paint22_linear_99_507" x1="83.7004" y1="49.0404" x2="77.5122" y2="48.1475" gradientUnits="userSpaceOnUse">
<stop stop-color="#2B3582"/>
<stop offset="1" stop-color="#150E42"/>
</linearGradient>
<linearGradient id="paint23_linear_99_507" x1="86.7868" y1="53.3385" x2="83.2467" y2="48.4758" gradientUnits="userSpaceOnUse">
<stop stop-color="#F9B776"/>
<stop offset="1" stop-color="#F47960"/>
</linearGradient>
<linearGradient id="paint24_linear_99_507" x1="88.5971" y1="66.401" x2="95.8277" y2="72.8038" gradientUnits="userSpaceOnUse">
<stop stop-color="#F9B776"/>
<stop offset="1" stop-color="#F47960"/>
</linearGradient>
<linearGradient id="paint25_linear_99_507" x1="72.8085" y1="63.1134" x2="70.7693" y2="63.1134" gradientUnits="userSpaceOnUse">
<stop stop-color="#F9B776"/>
<stop offset="1" stop-color="#F47960"/>
</linearGradient>
<linearGradient id="paint26_linear_99_507" x1="41.7591" y1="42.7392" x2="23.6954" y2="46.7624" gradientUnits="userSpaceOnUse">
<stop stop-color="#B37CFF"/>
<stop offset="1" stop-color="#F895E7"/>
</linearGradient>
<linearGradient id="paint27_linear_99_507" x1="23.877" y1="51.7161" x2="22.8221" y2="51.9511" gradientUnits="userSpaceOnUse">
<stop stop-color="#B37CFF"/>
<stop offset="1" stop-color="#F895E7"/>
</linearGradient>
<linearGradient id="paint28_linear_99_507" x1="16.6056" y1="44.8743" x2="15.8816" y2="45.0355" gradientUnits="userSpaceOnUse">
<stop stop-color="#B37CFF"/>
<stop offset="1" stop-color="#F895E7"/>
</linearGradient>
<linearGradient id="paint29_linear_99_507" x1="32.4989" y1="32.6913" x2="13.8928" y2="36.8353" gradientUnits="userSpaceOnUse">
<stop stop-color="#B37CFF"/>
<stop offset="1" stop-color="#F895E7"/>
</linearGradient>
<linearGradient id="paint30_linear_99_507" x1="33.4802" y1="28.3561" x2="32.4386" y2="28.5881" gradientUnits="userSpaceOnUse">
<stop stop-color="#B37CFF"/>
<stop offset="1" stop-color="#F895E7"/>
</linearGradient>
<linearGradient id="paint31_linear_99_507" x1="205.09" y1="178.204" x2="254.992" y2="217.086" gradientUnits="userSpaceOnUse">
<stop stop-color="#A737D5"/>
<stop offset="1" stop-color="#EF497A"/>
</linearGradient>
<linearGradient id="paint32_linear_99_507" x1="49.1534" y1="25.3007" x2="48.6386" y2="25.4154" gradientUnits="userSpaceOnUse">
<stop stop-color="#B37CFF"/>
<stop offset="1" stop-color="#F895E7"/>
</linearGradient>
<linearGradient id="paint33_linear_99_507" x1="50.6502" y1="31.0386" x2="40.559" y2="33.2861" gradientUnits="userSpaceOnUse">
<stop stop-color="#B37CFF"/>
<stop offset="1" stop-color="#F895E7"/>
</linearGradient>
<linearGradient id="paint34_linear_99_507" x1="43.9918" y1="22.368" x2="32.4742" y2="24.9332" gradientUnits="userSpaceOnUse">
<stop stop-color="#B37CFF"/>
<stop offset="1" stop-color="#F895E7"/>
</linearGradient>
<linearGradient id="paint35_linear_99_507" x1="45.0975" y1="21.3654" x2="44.3098" y2="21.5409" gradientUnits="userSpaceOnUse">
<stop stop-color="#B37CFF"/>
<stop offset="1" stop-color="#F895E7"/>
</linearGradient>
<linearGradient id="paint36_linear_99_507" x1="48.68" y1="16.2154" x2="18.5917" y2="70.1595" gradientUnits="userSpaceOnUse">
<stop stop-color="#A737D5"/>
<stop offset="1" stop-color="#EF497A"/>
</linearGradient>
</defs>
</svg>
