<svg width="48" height="48" viewBox="0 0 48 48" fill="none" xmlns="http://www.w3.org/2000/svg">
<path d="M42.5 24C42.5 13.7827 34.2173 5.5 24 5.5C13.7827 5.5 5.5 13.7827 5.5 24C5.5 34.2173 13.7827 42.5 24 42.5C34.2173 42.5 42.5 34.2173 42.5 24ZM45.5 24C45.5 35.8741 35.8741 45.5 24 45.5C12.1259 45.5 2.5 35.8741 2.5 24C2.5 12.1259 12.1259 2.5 24 2.5C35.8741 2.5 45.5 12.1259 45.5 24Z" fill="#001413"/>
<path d="M17.0781 16.8164C17.7318 16.308 18.6748 16.4249 19.1836 17.0781L23.373 22.4648C24.0752 23.3676 24.0752 24.6324 23.373 25.5352L19.1836 30.9219C18.6748 31.5751 17.7318 31.692 17.0781 31.1836C16.4249 30.6748 16.308 29.7318 16.8164 29.0781L20.7656 24L16.8164 18.9219C16.308 18.2682 16.4249 17.3252 17.0781 16.8164ZM24.4121 16.8164C25.0659 16.3079 26.0089 16.4246 26.5176 17.0781L30.707 22.4648C31.4091 23.3676 31.4091 24.6324 30.707 25.5352L26.5176 30.9219C26.0089 31.5754 25.0659 31.6921 24.4121 31.1836C23.7585 30.6749 23.6399 29.7319 24.1484 29.0781L28.0977 24L24.1484 18.9219C23.6399 18.2681 23.7585 17.3251 24.4121 16.8164Z" fill="#001413"/>
</svg>
