<svg width="117" height="105" viewBox="0 0 117 105" fill="none" xmlns="http://www.w3.org/2000/svg">
<path d="M65.6428 24.1577V13.8379H97.9369V24.1577" stroke="#3CD690" stroke-width="5" stroke-miterlimit="22.9256" stroke-linecap="round" stroke-linejoin="round"/>
<path d="M40.8699 24.1577V2.5H78.4737V12.7016" stroke="#3CD690" stroke-width="5" stroke-miterlimit="22.9256" stroke-linecap="round" stroke-linejoin="round"/>
<path d="M100.485 90H38.1995C28.2443 90 27.2352 75.7123 38.1995 74.7677L106.735 68.8636L113.864 25.2941H26.0795M2.5 2.5H18.8355L38.1016 74.4018" stroke="black" stroke-width="5" stroke-miterlimit="22.9256" stroke-linecap="round" stroke-linejoin="round"/>
<path d="M100.485 102.5C103.936 102.5 106.735 99.7018 106.735 96.25C106.735 92.7982 103.936 90 100.485 90C97.0328 90 94.2346 92.7982 94.2346 96.25C94.2346 99.7018 97.0328 102.5 100.485 102.5Z" stroke="black" stroke-width="5" stroke-miterlimit="22.9256" stroke-linecap="round" stroke-linejoin="round"/>
<path d="M43.4097 102.5C46.8614 102.5 49.6597 99.7018 49.6597 96.25C49.6597 92.7982 46.8614 90 43.4097 90C39.9579 90 37.1597 92.7982 37.1597 96.25C37.1597 99.7018 39.9579 102.5 43.4097 102.5Z" stroke="black" stroke-width="5" stroke-miterlimit="22.9256" stroke-linecap="round" stroke-linejoin="round"/>
<path d="M53.2683 39.4526V54.3383M70.5397 39.4526V54.3383M87.8108 39.4526V54.3383" stroke="black" stroke-width="5" stroke-miterlimit="22.9256" stroke-linecap="round" stroke-linejoin="round"/>
</svg>
