<svg width="1564" height="1564" viewBox="0 0 1564 1564" fill="none" xmlns="http://www.w3.org/2000/svg">
<path d="M1385.42 1353.46L1417.22 1338.73C1420.23 1349.67 1425.76 1358.03 1433.79 1363.84C1441.82 1369.53 1452.09 1372.37 1464.59 1372.37C1476.41 1372.37 1485.79 1369.08 1492.7 1362.5C1499.73 1355.91 1503.25 1347.1 1503.25 1336.05C1503.25 1321.66 1491.31 1308.83 1467.43 1297.56C1464.08 1295.88 1461.52 1294.66 1459.73 1293.87C1432.73 1280.71 1414.71 1268.82 1405.67 1258.22C1396.75 1247.51 1392.28 1234.46 1392.28 1219.06C1392.28 1199.09 1399.03 1182.91 1412.53 1170.52C1426.15 1158.14 1443.94 1151.94 1465.93 1151.94C1484 1151.94 1499.12 1155.46 1511.28 1162.49C1523.45 1169.41 1531.87 1179.39 1536.56 1192.45L1505.43 1208.52C1500.52 1200.82 1495.1 1195.18 1489.19 1191.61C1483.39 1188.04 1476.69 1186.25 1469.11 1186.25C1458.39 1186.25 1449.86 1189.04 1443.5 1194.62C1437.25 1200.2 1434.12 1207.68 1434.12 1217.05C1434.12 1231.78 1447.96 1245.5 1475.63 1258.22C1477.75 1259.23 1479.43 1260.01 1480.65 1260.57C1504.87 1271.73 1521.49 1282.66 1530.53 1293.37C1539.57 1303.97 1544.09 1317.25 1544.09 1333.21C1544.09 1356.42 1536.78 1374.88 1522.16 1388.61C1507.55 1402.22 1487.8 1409.03 1462.91 1409.03C1442.05 1409.03 1424.92 1404.23 1411.53 1394.63C1398.25 1385.04 1389.55 1371.31 1385.42 1353.46Z" fill="#023C3A"/>
<path d="M1247.17 1261.91H1254.37C1275.46 1261.91 1289.46 1259.45 1296.38 1254.54C1303.3 1249.63 1306.75 1240.93 1306.75 1228.43C1306.75 1214.93 1303.02 1205.45 1295.54 1199.98C1288.18 1194.4 1274.45 1191.61 1254.37 1191.61H1247.17V1261.91ZM1244.66 1292.87V1402.5H1207.34V1157.47H1262.9C1279.19 1157.47 1291.8 1158.53 1300.73 1160.65C1309.77 1162.77 1317.47 1166.28 1323.83 1171.19C1331.41 1177.1 1337.27 1184.75 1341.4 1194.12C1345.53 1203.49 1347.59 1213.76 1347.59 1224.92C1347.59 1244.56 1342.85 1259.95 1333.37 1271.11C1323.88 1282.16 1309.88 1288.8 1291.36 1291.03L1375.71 1402.5H1330.69L1249.18 1292.87H1244.66Z" fill="#023C3A"/>
<path d="M1024.9 1402.5V1157.47H1162.04L1149.67 1191.17H1064.74V1252.7H1161.64V1287.68H1064.74V1366.85H1161.64V1402.5H1024.9Z" fill="#023C3A"/>
<path d="M885.145 1276.97H982.221C982.221 1278.64 982.277 1280.99 982.388 1284C982.723 1291.92 982.89 1297.28 982.89 1300.07C982.89 1334.55 973.015 1361.33 953.265 1380.41C933.516 1399.49 905.676 1409.03 869.747 1409.03C849.662 1409.03 831.754 1406.07 816.021 1400.16C800.288 1394.24 786.507 1385.32 774.68 1373.38C763.075 1361.55 754.149 1347.66 747.9 1331.7C741.763 1315.74 738.695 1298.67 738.695 1280.48C738.695 1261.96 741.819 1244.89 748.068 1229.27C754.428 1213.65 763.801 1199.87 776.186 1187.93C788.125 1176.21 802.129 1167.29 818.196 1161.15C834.264 1155.01 851.448 1151.94 869.747 1151.94C889.05 1151.94 906.29 1155.46 921.465 1162.49C936.751 1169.52 950.364 1180.28 962.304 1194.79L933.181 1216.72C924.924 1207.12 915.607 1199.98 905.23 1195.29C894.853 1190.61 883.248 1188.26 870.416 1188.26C843.86 1188.26 822.158 1196.8 805.309 1213.87C788.572 1230.83 780.203 1252.92 780.203 1280.15C780.203 1307.82 788.572 1330.31 805.309 1347.6C822.158 1364.78 843.972 1373.38 870.751 1373.38C893.514 1373.38 911.423 1368.08 924.478 1357.48C937.533 1346.88 944.06 1332.43 944.06 1314.13V1310.61H885.145V1276.97Z" fill="#023C3A"/>
<path d="M566.971 1402.5V1157.47H703.407L691.042 1191.17H606.735L606.806 1252.7H703.714V1287.68H606.806V1366.85H703.714V1402.5H566.971Z" fill="#023C3A"/>
<path d="M471.737 1191.17V1402.39H431.902V1191.17L366.18 1191.06L378.545 1157.36L537.042 1157.45L524.677 1191.17H471.737Z" fill="#023C3A"/>
<path d="M117.076 1402.5V1147.76L272.732 1297.56C276.972 1301.8 281.267 1306.32 285.619 1311.11C289.971 1315.91 294.546 1321.32 299.344 1327.35V1157.47H336.165V1412.04L177.33 1259.56C173.089 1255.43 168.961 1251.08 164.944 1246.51C161.039 1241.93 157.301 1237.14 153.73 1232.11V1402.5H117.076Z" fill="#023C3A"/>
<path d="M20 1402.5V1166.44L59.8345 1157.47V1402.5H20Z" fill="#023C3A"/>
<path d="M732.389 46.0049C751.637 12.665 799.759 12.665 819.008 46.0049L1296.17 872.477C1315.42 905.816 1291.36 947.491 1252.86 947.491H1060.89C1077.79 947.491 1088.35 929.196 1079.9 914.559L794.749 420.658C786.298 406.021 765.171 406.021 756.721 420.658L471.567 914.559C463.117 929.195 473.68 947.491 490.581 947.491H298.534C260.037 947.491 235.976 905.816 255.225 872.477L732.389 46.0049Z" fill="#02C3BD"/>
<path d="M753.303 666.878C763.311 649.545 788.329 649.545 798.337 666.878L937.833 908.493C947.84 925.826 935.331 947.493 915.316 947.493H636.324C616.309 947.493 603.8 925.826 613.807 908.493L753.303 666.878Z" fill="#5DD39E"/>
<path d="M399.18 1466H407.68V1536H399.18V1466ZM526.691 1466H535.191V1539.5L482.191 1483.9V1536H473.691V1462.5L526.691 1518.1V1466ZM603.83 1514.8C605.43 1517.6 607.097 1520.07 608.83 1522.2C610.63 1524.33 612.63 1526 614.83 1527.2C617.03 1528.4 619.53 1529 622.33 1529C626.064 1529 629.064 1527.97 631.33 1525.9C633.597 1523.83 634.73 1521.2 634.73 1518C634.73 1514.87 633.997 1512.37 632.53 1510.5C631.064 1508.63 629.13 1507.13 626.73 1506C624.397 1504.8 621.897 1503.73 619.23 1502.8C617.497 1502.2 615.564 1501.43 613.43 1500.5C611.297 1499.5 609.264 1498.27 607.33 1496.8C605.397 1495.27 603.797 1493.4 602.53 1491.2C601.33 1489 600.73 1486.3 600.73 1483.1C600.73 1479.63 601.597 1476.53 603.33 1473.8C605.064 1471.07 607.464 1468.93 610.53 1467.4C613.597 1465.8 617.097 1465 621.03 1465C624.83 1465 628.13 1465.73 630.93 1467.2C633.797 1468.6 636.23 1470.43 638.23 1472.7C640.23 1474.9 641.797 1477.23 642.93 1479.7L635.63 1483.9C634.764 1482.17 633.664 1480.47 632.33 1478.8C630.997 1477.13 629.364 1475.77 627.43 1474.7C625.564 1473.63 623.264 1473.1 620.53 1473.1C616.73 1473.1 613.964 1474.03 612.23 1475.9C610.497 1477.7 609.63 1479.73 609.63 1482C609.63 1483.93 610.13 1485.73 611.13 1487.4C612.13 1489 613.797 1490.53 616.13 1492C618.53 1493.4 621.764 1494.8 625.83 1496.2C627.697 1496.87 629.664 1497.73 631.73 1498.8C633.797 1499.87 635.697 1501.23 637.43 1502.9C639.23 1504.5 640.697 1506.47 641.83 1508.8C642.964 1511.07 643.53 1513.8 643.53 1517C643.53 1520.07 642.93 1522.83 641.73 1525.3C640.597 1527.77 638.997 1529.87 636.93 1531.6C634.93 1533.33 632.63 1534.67 630.03 1535.6C627.497 1536.53 624.83 1537 622.03 1537C618.23 1537 614.697 1536.2 611.43 1534.6C608.23 1532.93 605.397 1530.77 602.93 1528.1C600.53 1525.37 598.564 1522.47 597.03 1519.4L603.83 1514.8ZM706.016 1466H714.516V1536H706.016V1466ZM813.027 1508.5V1500.5H845.527C845.527 1505.37 844.794 1510 843.327 1514.4C841.861 1518.73 839.694 1522.6 836.827 1526C833.961 1529.4 830.427 1532.1 826.227 1534.1C822.094 1536.03 817.361 1537 812.027 1537C806.961 1537 802.261 1536.13 797.927 1534.4C793.594 1532.6 789.827 1530.1 786.627 1526.9C783.427 1523.63 780.927 1519.8 779.127 1515.4C777.394 1511 776.527 1506.2 776.527 1501C776.527 1495.8 777.394 1491 779.127 1486.6C780.927 1482.2 783.427 1478.4 786.627 1475.2C789.827 1471.93 793.594 1469.43 797.927 1467.7C802.261 1465.9 806.961 1465 812.027 1465C816.361 1465 820.327 1465.57 823.927 1466.7C827.594 1467.83 830.861 1469.5 833.727 1471.7C836.661 1473.9 839.127 1476.63 841.127 1479.9L835.127 1485.4C832.927 1481.67 829.861 1478.77 825.927 1476.7C821.994 1474.57 817.361 1473.5 812.027 1473.5C807.094 1473.5 802.627 1474.67 798.627 1477C794.627 1479.33 791.427 1482.57 789.027 1486.7C786.694 1490.77 785.527 1495.53 785.527 1501C785.527 1506.4 786.694 1511.17 789.027 1515.3C791.427 1519.43 794.627 1522.67 798.627 1525C802.627 1527.33 807.094 1528.5 812.027 1528.5C815.494 1528.5 818.594 1528 821.327 1527C824.127 1525.93 826.527 1524.47 828.527 1522.6C830.527 1520.73 832.161 1518.6 833.427 1516.2C834.761 1513.8 835.727 1511.23 836.327 1508.5H813.027ZM912.766 1502V1494H960.766V1502H912.766ZM955.066 1466H963.566V1536H955.066V1466ZM908.066 1466H916.566V1536H908.066V1466ZM1022.55 1474V1466H1067.05V1474H1049.05V1536H1040.55V1474H1022.55ZM1128.64 1514.8C1130.24 1517.6 1131.9 1520.07 1133.64 1522.2C1135.44 1524.33 1137.44 1526 1139.64 1527.2C1141.84 1528.4 1144.34 1529 1147.14 1529C1150.87 1529 1153.87 1527.97 1156.14 1525.9C1158.4 1523.83 1159.54 1521.2 1159.54 1518C1159.54 1514.87 1158.8 1512.37 1157.34 1510.5C1155.87 1508.63 1153.94 1507.13 1151.54 1506C1149.2 1504.8 1146.7 1503.73 1144.04 1502.8C1142.3 1502.2 1140.37 1501.43 1138.24 1500.5C1136.1 1499.5 1134.07 1498.27 1132.14 1496.8C1130.2 1495.27 1128.6 1493.4 1127.34 1491.2C1126.14 1489 1125.54 1486.3 1125.54 1483.1C1125.54 1479.63 1126.4 1476.53 1128.14 1473.8C1129.87 1471.07 1132.27 1468.93 1135.34 1467.4C1138.4 1465.8 1141.9 1465 1145.84 1465C1149.64 1465 1152.94 1465.73 1155.74 1467.2C1158.6 1468.6 1161.04 1470.43 1163.04 1472.7C1165.04 1474.9 1166.6 1477.23 1167.74 1479.7L1160.44 1483.9C1159.57 1482.17 1158.47 1480.47 1157.14 1478.8C1155.8 1477.13 1154.17 1475.77 1152.24 1474.7C1150.37 1473.63 1148.07 1473.1 1145.34 1473.1C1141.54 1473.1 1138.77 1474.03 1137.04 1475.9C1135.3 1477.7 1134.44 1479.73 1134.44 1482C1134.44 1483.93 1134.94 1485.73 1135.94 1487.4C1136.94 1489 1138.6 1490.53 1140.94 1492C1143.34 1493.4 1146.57 1494.8 1150.64 1496.2C1152.5 1496.87 1154.47 1497.73 1156.54 1498.8C1158.6 1499.87 1160.5 1501.23 1162.24 1502.9C1164.04 1504.5 1165.5 1506.47 1166.64 1508.8C1167.77 1511.07 1168.34 1513.8 1168.34 1517C1168.34 1520.07 1167.74 1522.83 1166.54 1525.3C1165.4 1527.77 1163.8 1529.87 1161.74 1531.6C1159.74 1533.33 1157.44 1534.67 1154.84 1535.6C1152.3 1536.53 1149.64 1537 1146.84 1537C1143.04 1537 1139.5 1536.2 1136.24 1534.6C1133.04 1532.93 1130.2 1530.77 1127.74 1528.1C1125.34 1525.37 1123.37 1522.47 1121.84 1519.4L1128.64 1514.8Z" fill="black"/>
</svg>
