<svg width="220" height="44" viewBox="0 0 220 44" fill="none" xmlns="http://www.w3.org/2000/svg">
<path d="M197.625 31.6315L200.843 30.1199C201.148 31.2421 201.707 32.101 202.519 32.6965C203.332 33.2805 204.371 33.5725 205.635 33.5725C206.832 33.5725 207.78 33.2347 208.48 32.559C209.191 31.8834 209.547 30.9787 209.547 29.845C209.547 28.3678 208.339 27.0509 205.923 25.8943C205.584 25.7225 205.325 25.5966 205.144 25.5164C202.412 24.1651 200.589 22.9455 199.674 21.8577C198.771 20.7583 198.32 19.4185 198.32 17.8382C198.32 15.7884 199.003 14.1279 200.369 12.8568C201.746 11.5857 203.547 10.9501 205.771 10.9501C207.6 10.9501 209.129 11.3109 210.36 12.0323C211.59 12.7423 212.443 13.7672 212.917 15.107L209.767 16.756C209.27 15.9659 208.723 15.3876 208.125 15.0211C207.537 14.6547 206.86 14.4715 206.092 14.4715C205.009 14.4715 204.145 14.7577 203.502 15.3303C202.869 15.9029 202.553 16.6701 202.553 17.6321C202.553 19.1437 203.953 20.5522 206.753 21.8577C206.967 21.9607 207.137 22.0409 207.261 22.0981C209.711 23.2433 211.393 24.3655 212.307 25.4649C213.222 26.5528 213.679 27.9155 213.679 29.553C213.679 31.9349 212.939 33.8302 211.461 35.2387C209.982 36.6358 207.983 37.3343 205.466 37.3343C203.355 37.3343 201.622 36.8419 200.267 35.8571C198.924 34.8722 198.043 33.4637 197.625 31.6315Z" fill="#023C3A"/>
<path d="M183.639 22.2352H184.367C186.501 22.2352 187.917 21.9832 188.617 21.4794C189.317 20.9755 189.667 20.0823 189.667 18.7997C189.667 17.4141 189.289 16.4407 188.533 15.8796C187.787 15.307 186.399 15.0207 184.367 15.0207H183.639V22.2352ZM183.385 25.413V36.664H179.608V11.5166H185.23C186.879 11.5166 188.154 11.6254 189.058 11.843C189.972 12.0605 190.751 12.4213 191.394 12.9251C192.162 13.5321 192.755 14.3165 193.172 15.2784C193.59 16.2403 193.799 17.2939 193.799 18.439C193.799 20.4545 193.319 22.0348 192.36 23.1799C191.4 24.3136 189.983 24.995 188.109 25.224L196.644 36.664H192.089L183.842 25.413H183.385Z" fill="#023C3A"/>
<path d="M161.149 36.664V11.5166H175.024L173.773 14.9755H165.179V21.2904H174.984V24.8805H165.179V33.0053H174.984V36.664H161.149Z" fill="#023C3A"/>
<path d="M147.009 23.7815H156.83C156.83 23.9533 156.836 24.1938 156.847 24.5029C156.881 25.316 156.898 25.8657 156.898 26.152C156.898 29.6905 155.899 32.4388 153.901 34.397C151.902 36.3552 149.086 37.3343 145.451 37.3343C143.419 37.3343 141.607 37.0308 140.015 36.4239C138.423 35.817 137.029 34.9009 135.832 33.6756C134.658 32.4617 133.755 31.036 133.123 29.3984C132.502 27.7609 132.191 26.0088 132.191 24.1422C132.191 22.2413 132.508 20.4892 133.14 18.886C133.783 17.2828 134.731 15.8685 135.985 14.6432C137.193 13.4408 138.609 12.5247 140.235 11.8949C141.861 11.265 143.599 10.9501 145.451 10.9501C147.404 10.9501 149.148 11.3109 150.683 12.0323C152.23 12.7537 153.607 13.8588 154.815 15.3475L151.869 17.5977C151.033 16.6129 150.091 15.88 149.041 15.399C147.991 14.9181 146.817 14.6776 145.518 14.6776C142.832 14.6776 140.636 15.5536 138.931 17.3057C137.238 19.0463 136.391 21.3137 136.391 24.1079C136.391 26.9478 137.238 29.2553 138.931 31.0303C140.636 32.7938 142.843 33.6756 145.552 33.6756C147.855 33.6756 149.667 33.1316 150.988 32.0437C152.309 30.9558 152.969 29.4729 152.969 27.5948V27.2341H147.009V23.7815Z" fill="#023C3A"/>
<path d="M114.818 36.664V11.5166H128.622L127.371 14.9755H118.842L118.849 21.2904H128.653V24.8805H118.849V33.0053H128.653V36.664H114.818Z" fill="#023C3A"/>
<path d="M105.181 14.9768V36.6545H101.151V14.9768L94.5015 14.966L95.7525 11.507L111.788 11.5159L110.537 14.9768H105.181Z" fill="#023C3A"/>
<path d="M69.3003 36.6642V10.5205L85.0488 25.8941C85.4778 26.3293 85.9125 26.7931 86.3528 27.2855C86.793 27.7779 87.2559 28.3333 87.7413 28.9517V11.5168H91.4668V37.6433L75.3965 21.9949C74.9675 21.5712 74.5498 21.1246 74.1434 20.6551C73.7483 20.1856 73.3701 19.6932 73.0088 19.1778V36.6642H69.3003Z" fill="#023C3A"/>
<path d="M59.4785 36.664V12.4375L63.5088 11.5166V36.664H59.4785Z" fill="#023C3A"/>
<path d="M22.1656 6.97231C22.9035 5.6759 24.7481 5.67589 25.486 6.97231L41.3919 34.9178C42.1297 36.2142 41.2074 37.8348 39.7316 37.8348H33.3904C34.0383 37.8348 34.4433 37.1233 34.1194 36.5542L24.5559 19.7517C24.2319 19.1826 23.4221 19.1826 23.0981 19.7517L13.5346 36.5542C13.2107 37.1233 13.6157 37.8348 14.2635 37.8348H7.91992C6.44415 37.8348 5.52182 36.2142 6.2597 34.9178L22.1656 6.97231Z" fill="#02C3BD"/>
<path d="M22.9672 28.2952C23.3508 27.6212 24.3099 27.6212 24.6935 28.2952L29.2601 36.3184C29.6437 36.9924 29.1642 37.8349 28.397 37.8349H19.2638C18.4965 37.8349 18.017 36.9924 18.4006 36.3184L22.9672 28.2952Z" fill="#5DD39E"/>
</svg>
