<svg width="100" height="100" viewBox="0 0 100 100" fill="none" xmlns="http://www.w3.org/2000/svg">
<g clip-path="url(#clip0_99_926)">
<path d="M45.5581 21.9119H54.4913M45.5581 31.2869H54.4913" stroke="#3CD690" stroke-width="4" stroke-miterlimit="10" stroke-linecap="round" stroke-linejoin="round"/>
<path d="M45.6544 42.9568H36.939V10.2419H63.1108V42.9568H54.4938" stroke="#3CD690" stroke-width="4" stroke-miterlimit="10" stroke-linejoin="round"/>
<path d="M10.7678 13.8228H19.701M10.7678 23.1978H19.701M89.2322 13.8228H80.299M89.2322 23.1978H80.299M2.14844 2.15283H28.3203V34.8677H2.14844V2.15283Z" stroke="black" stroke-width="4" stroke-miterlimit="10" stroke-linecap="round" stroke-linejoin="round"/>
<path d="M97.8516 34.8677H71.6797V2.15283H97.8516V34.8677Z" stroke="black" stroke-width="4" stroke-miterlimit="10" stroke-linecap="round" stroke-linejoin="round"/>
<path d="M72.085 70.8755V67.0005C72.085 64.5716 74.054 62.6027 76.4829 62.6027C78.9118 62.6027 80.8807 64.5716 80.8807 67.0005V76.3019C80.8807 88.2011 71.2346 97.8472 59.3354 97.8472C50.2559 97.8472 42.1508 92.1552 39.0692 83.6148L33.3717 67.8255C32.4647 65.3121 33.6495 62.5244 36.0885 61.4328C38.5682 60.323 41.4829 61.3496 42.7196 63.7685L45.6983 69.5947V44.2931C45.6983 41.8642 47.6673 39.8953 50.0962 39.8953C52.5251 39.8953 54.494 41.8642 54.494 44.2931V67.6605" stroke="black" stroke-width="4" stroke-miterlimit="10" stroke-linecap="round" stroke-linejoin="round"/>
<path d="M54.4937 70.8754V60.8822C54.4937 58.4533 56.4626 56.4844 58.8915 56.4844C61.3204 56.4844 63.2894 58.4533 63.2894 60.8822V70.8754" stroke="black" stroke-width="4" stroke-miterlimit="10" stroke-linecap="round" stroke-linejoin="round"/>
<path d="M63.2893 67.6605V62.0724C63.2893 59.6435 65.2583 57.6746 67.6872 57.6746C70.1161 57.6746 72.085 59.6435 72.085 62.0724V67.6605" stroke="black" stroke-width="4" stroke-miterlimit="10" stroke-linecap="round" stroke-linejoin="round"/>
</g>
<defs>
<clipPath id="clip0_99_926">
<rect width="100" height="100" fill="white"/>
</clipPath>
</defs>
</svg>
