<svg width="24" height="24" viewBox="0 0 24 24" fill="none" xmlns="http://www.w3.org/2000/svg">
<path d="M8.42088 13.25C8.86095 13.25 9.27466 13.2478 9.58787 13.292C9.85813 13.3302 10.33 13.4377 10.5791 13.8828L10.626 13.9766L10.664 14.0752C10.8271 14.5635 10.582 14.9853 10.4248 15.209C10.2435 15.4668 9.96002 15.7656 9.66111 16.083L6.02244 19.9453C5.91428 20.0602 5.82222 20.1604 5.74216 20.2471C5.86432 20.2483 6.00617 20.25 6.17088 20.25H9.99998C10.4142 20.25 10.75 20.5858 10.75 21C10.75 21.4142 10.4142 21.75 9.99998 21.75H6.17088C5.73088 21.75 5.31707 21.7522 5.00388 21.708C4.7156 21.6673 4.19783 21.5477 3.9658 21.0234C3.73155 20.4937 3.99927 20.0296 4.16697 19.791C4.34823 19.5333 4.63178 19.2344 4.93064 18.917L8.56834 15.0547C8.67656 14.9398 8.76852 14.8387 8.84861 14.752C8.72662 14.7507 8.58524 14.75 8.42088 14.75H3.99998C3.58576 14.75 3.24998 14.4142 3.24998 14C3.24998 13.5858 3.58576 13.25 3.99998 13.25H8.42088Z" fill="#001413"/>
<path d="M6.99998 2.25C7.5765 2.25 7.89781 2.68129 8.05271 2.92871C8.22312 3.20101 8.3941 3.5856 8.57908 3.99805L10.6845 8.69336C10.8538 9.07123 10.6845 9.51511 10.3066 9.68457C9.92875 9.85384 9.48486 9.68448 9.31541 9.30664L7.20994 4.6123C7.12832 4.43032 7.05924 4.27862 6.99998 4.15137C6.94072 4.27862 6.87163 4.43032 6.79002 4.6123L4.68455 9.30664C4.51509 9.68448 4.07121 9.85384 3.69334 9.68457C3.3155 9.51511 3.14614 9.07123 3.31541 8.69336L5.42088 3.99805C5.60585 3.5856 5.77683 3.20101 5.94724 2.92871C6.10215 2.68129 6.42345 2.25 6.99998 2.25Z" fill="#001413"/>
<path d="M16.75 4C16.75 3.58579 17.0858 3.25 17.5 3.25C17.9142 3.25 18.25 3.58579 18.25 4V18.4609C18.2518 18.4588 18.2541 18.4572 18.2558 18.4551C18.4829 18.1871 18.7055 17.9024 18.9111 17.6406C19.1032 17.3961 19.3049 17.1391 19.4619 16.9775C19.7505 16.6806 20.2254 16.6735 20.5224 16.9619C20.8194 17.2505 20.8265 17.7254 20.5381 18.0225C20.4494 18.1137 20.303 18.296 20.0898 18.5674C19.89 18.8217 19.6492 19.1311 19.4004 19.4248C19.1543 19.7151 18.8788 20.0165 18.6035 20.251C18.4656 20.3684 18.3098 20.4847 18.1426 20.5742C17.9811 20.6606 17.7583 20.75 17.5 20.75C17.2417 20.75 17.0188 20.6606 16.8574 20.5742C16.6902 20.4847 16.5344 20.3684 16.3965 20.251C16.1212 20.0165 15.8456 19.7151 15.5996 19.4248C15.3507 19.1311 15.1099 18.8217 14.9101 18.5674C14.6969 18.296 14.5506 18.1137 14.4619 18.0225C14.1735 17.7254 14.1806 17.2505 14.4775 16.9619C14.7746 16.6735 15.2495 16.6806 15.5381 16.9775C15.695 17.1391 15.8968 17.3961 16.0888 17.6406C16.2944 17.9024 16.5171 18.1871 16.7441 18.4551C16.7459 18.4572 16.7482 18.4588 16.75 18.4609V4Z" fill="#001413"/>
</svg>
